SplineFontDB: 3.0
FontName: mwg_mathsymb20
FullName: mwg_mathsymb20
FamilyName: mwg_mathsymb
Weight: Regular+
Copyright: Copyright (C) 2012, Koichi Murase, 1994, 1995, Basil K. Malyshev. All Rights Reserved.\nBaKoMa Fonts Collection, Level-C.
Version: 1.0.19/2012-11-24
ItalicAngle: 0
UnderlinePosition: -136
UnderlineWidth: 20
Ascent: 819
Descent: 205
LayerCount: 2
Layer: 0 0 "+gMyXYgAA"  1
Layer: 1 0 "+Uk2XYgAA"  0
NeedsXUIDChange: 1
UniqueID: 4702302
FSType: 0
OS2Version: 1
OS2_WeightWidthSlopeOnly: 0
OS2_UseTypoMetrics: 0
CreationTime: 878738956
ModificationTime: 1353793604
PfmFamily: 17
TTFWeight: 400
TTFWidth: 5
LineGap: 92
VLineGap: 0
OS2TypoAscent: 819
OS2TypoAOffset: 0
OS2TypoDescent: -205
OS2TypoDOffset: 0
OS2TypoLinegap: 92
OS2WinAscent: 819
OS2WinAOffset: 0
OS2WinDescent: 205
OS2WinDOffset: 0
HheadAscent: 0
HheadAOffset: 1
HheadDescent: 0
HheadDOffset: 1
OS2Vendor: 'PfEd'
MarkAttachClasses: 1
DEI: 91125
GaspTable: 3 5 2 17 3 65535 3
Encoding: Custom
UnicodeInterp: none
NameList: Adobe Glyph List
DisplaySize: -36
AntiAlias: 1
FitToEm: 1
WinInfo: 8613 33 16
BeginPrivate: 7
BlueValues 39 [-14 0 317 329 539 553 659 674 711 718]
OtherBlues 11 [-206 -199]
StdHW 4 [44]
StdVW 4 [44]
StemSnapV 10 [33 44 88]
BlueScale 9 0.0687917
StemSnapH 10 [33 44 61]
EndPrivate
BeginChars: 65550 488

StartChar: blackdiamond
Encoding: 9830 9830 1
Width: 799
VWidth: 1000
Flags: W
LayerCount: 2
Fore
SplineSet
726 244 m 0
 603 132 505 -4 429 -153 c 0
 426 -158 425 -161 421 -165 c 0
 418 -168 413 -171 407 -172 c 0
 405 -173 403 -173 400 -173 c 0
 393 -173 385 -173 376 -161 c 0
 372 -155 366 -146 362 -138 c 0
 311 -39 217 114 70 248 c 0
 60 257 57 260 54 263 c 0
 46 272 47 278 47 282 c 0
 47 286 47 292 54 301 c 0
 57 305 62 310 73 320 c 0
 196 432 294 569 370 718 c 0
 373 724 382 737 400 737 c 0
 405 737 415 737 423 726 c 0
 428 720 433 711 437 702 c 0
 513 552 615 422 729 316 c 0
 739 307 743 304 746 300 c 0
 752 293 752 288 752 282 c 0
 752 278 752 272 745 263 c 0
 742 259 737 254 726 244 c 0
EndSplineSet
Validated: 1
EndChar

StartChar: angle
Encoding: 8736 8736 2
Width: 759
Flags: W
HStem: -10 64<152 708.206>
LayerCount: 2
Fore
SplineSet
48 23 m 0
 48 24 48 29 51 35 c 0
 52 37 54 40 57 44 c 2
 656 711 l 2
 659 714 663 719 674 721 c 0
 675 721 677 721 679 721 c 0
 680 721 685 721 692 717 c 0
 702 712 709 703 710 692 c 1
 710 692 710 691 710 689 c 0
 710 685 710 684 709 681 c 0
 707 675 704 670 701 667 c 2
 152 54 l 1
 682 54 l 1
 683 54 l 1
 692 52 698 48 704 41 c 0
 706 38 710 32 710 23 c 0
 710 6 697 -7 683 -10 c 1
 682 -10 l 1
 78 -10 l 1
 77 -10 l 1
 62 -7 48 5 48 23 c 0
EndSplineSet
Validated: 1
EndChar

StartChar: proportional
Encoding: 8733 8733 3
Width: 799
VWidth: 1000
Flags: W
HStem: -21 65<649.366 750.836> -21 52<161.526 306.839> 387 65<157.301 291.634> 400 52<634.271 748.907>
VStem: 47 45<114.366 309.904>
LayerCount: 2
Fore
SplineSet
751 49 m 1x98
 751 -15 l 1
 743 -17 l 2
 733 -19 717 -21 704 -21 c 0x98
 582 -21 510 75 467 139 c 1
 410 41 329 -21 235 -21 c 0
 113 -21 47 101 47 215 c 0
 47 336 118 452 237 452 c 0x68
 359 452 431 356 474 292 c 1
 531 390 612 452 706 452 c 0
 722 452 731 451 737 449 c 1
 737 449 738 449 739 449 c 2
 739 449 740 447 741 447 c 0
 746 441 747 444 749 438 c 0
 751 432 751 423 751 407 c 2
 751 395 l 1
 739 397 l 2
 726 400 715 400 713 400 c 0
 603 400 535 288 511 236 c 1
 601 101 642 44 717 44 c 0
 726 44 734 45 738 46 c 2
 751 49 l 1x98
430 195 m 1
 340 330 299 387 224 387 c 0
 143 387 92 303 92 215 c 0
 92 126 139 31 228 31 c 0x68
 338 31 406 143 430 195 c 1
EndSplineSet
Validated: 1
EndChar

StartChar: anticlockwise
Encoding: 8634 8634 4
Width: 818
Flags: W
HStem: -106 53<298.968 518.916> 534 49<239.508 289.667> 564 53<382.517 427.718>
VStem: 48 53<146.038 367.381> 716 53<141.611 366.433>
LayerCount: 2
Fore
SplineSet
48 256 m 0xb8
 48 392 127 521 251 580 c 0
 253 581 254 582 255 582 c 0
 257 583 260 583 263 583 c 0
 277 583 290 572 290 557 c 0
 290 547 282 537 276 534 c 0xd8
 170 483 101 373 101 256 c 0
 101 87 240 -53 409 -53 c 0
 578 -53 716 86 716 256 c 0
 716 384 633 502 513 546 c 1
 512 544 l 1
 540 504 559 459 567 410 c 1
 569 394 l 1
 513 410 l 1
 512 416 l 2
 503 473 472 526 428 563 c 1
 422 564 415 564 408 564 c 0
 392 564 382 578 382 591 c 0
 382 608 397 617 411 617 c 0
 433 617 454 615 474 611 c 1
 518 624 560 650 590 684 c 1
 594 688 l 1
 651 673 l 1
 639 661 l 2
 612 633 582 608 548 589 c 1
 680 533 769 400 769 256 c 0
 769 57 609 -106 409 -106 c 0
 209 -106 48 57 48 256 c 0xb8
EndSplineSet
Validated: 1
EndChar

StartChar: harpoonupright
Encoding: 8638 8638 5
Width: 438
Flags: W
VStem: 187 64<-207.351 589>
LayerCount: 2
Fore
SplineSet
187 -177 m 2
 187 721 l 1
 225 721 l 1
 228 715 l 1
 261 645 321 591 393 562 c 1
 399 560 l 1
 399 504 l 1
 386 507 l 1
 335 522 289 551 251 589 c 1
 251 -177 l 2
 251 -195 237 -209 219 -209 c 0
 201 -209 187 -194 187 -177 c 2
EndSplineSet
Validated: 1
EndChar

StartChar: curlyright
Encoding: 8620 8620 6
Width: 1051
Flags: W
HStem: 223 65<147.249 344 408 878> 537 65<128.707 297.692>
VStem: 27 64<338.867 498.08> 344 64<-53.53 223 288 479.904>
LayerCount: 2
Fore
SplineSet
344 223 m 1
 310 223 l 2
 169 223 27 231 27 413 c 0
 27 564 120 602 217 602 c 0
 403 602 408 428 408 288 c 1
 878 288 l 1
 840 327 811 372 791 422 c 1
 785 436 l 1
 843 436 l 1
 845 430 l 1
 874 358 927 299 997 265 c 2
 1016 256 l 1
 997 247 l 1
 927 212 874 153 845 81 c 1
 843 75 l 1
 785 75 l 1
 791 89 l 1
 811 139 840 184 878 223 c 1
 408 223 l 1
 408 -26 l 1
 408 -28 l 1
 405 -37 403 -42 396 -48 c 0
 391 -52 384 -55 376 -55 c 0
 357 -55 346 -40 344 -27 c 1
 344 -26 l 1
 344 223 l 1
91 413 m 0
 91 289 195 288 310 288 c 2
 344 288 l 1
 343 350 342 402 334 444 c 0
 321 511 289 537 217 537 c 0
 130 537 91 505 91 413 c 0
EndSplineSet
Validated: 1
EndChar

StartChar: eqgreater
Encoding: 8925 8925 7
Width: 799
VWidth: 1000
Flags: W
HStem: -164 62<77.405 100> 395 64<84.2827 102> 602 57<76.3471 721.142>
LayerCount: 2
Fore
SplineSet
722 148 m 2
 722 148 722 143 722 142 c 0
 720 131 712 125 711 124 c 0
 706 120 700 117 697 116 c 2
 131 -156 l 2
 130 -157 123 -160 117 -162 c 0
 112 -164 109 -164 107 -164 c 0
 93 -164 76 -153 76 -132 c 0
 76 -125 77 -116 89 -108 c 0
 93 -106 98 -103 100 -102 c 2
 618 148 l 1
 102 395 l 2
 98 397 90 400 84 406 c 0
 76 414 76 422 76 424 c 0
 76 425 76 426 76 428 c 0
 76 442 87 459 108 459 c 0
 112 459 114 459 118 457 c 0
 120 456 124 454 129 452 c 2
 696 180 l 2
 701 178 708 175 713 170 c 0
 719 164 722 157 722 148 c 2
722 632 m 1
 722 631 l 0
 722 628 721 608 701 602 c 0
 692 599 682 599 677 599 c 2
 121 599 l 2
 110 599 104 600 97 602 c 0
 86 606 76 613 76 629 c 0
 76 630 76 630 76 631 c 0
 76 642 79 653 96 659 c 0
 105 662 117 662 121 662 c 2
 677 662 l 2
 688 662 695 661 702 659 c 0
 715 655 722 647 722 632 c 1
EndSplineSet
Validated: 1
EndChar

StartChar: geq
Encoding: 8805 8805 8
Width: 799
VWidth: 1000
Flags: W
HStem: -161 57<76.8581 721.653> 600 62<77.8254 100>
LayerCount: 2
Fore
SplineSet
129 46 m 2
 128 45 122 43 118 41 c 0
 114 39 112 39 108 39 c 0
 81 41 77 61 76 68 c 1
 76 70 l 1
 76 74 l 2
 76 76 76 84 84 92 c 0
 88 96 95 99 102 103 c 2
 618 350 l 1
 100 600 l 2
 99 601 93 603 89 606 c 0
 85 609 76 616 76 630 c 1
 78 657 98 661 105 662 c 0
 106 662 106 662 107 662 c 0
 111 662 113 661 117 660 c 0
 120 659 124 658 131 654 c 2
 697 382 l 2
 698 381 706 378 711 374 c 0
 712 373 720 367 722 356 c 0
 722 355 722 353 722 350 c 0
 722 348 723 337 713 328 c 0
 708 323 699 320 696 318 c 2
 129 46 l 2
76 -133 m 1
 76 -130 77 -110 97 -104 c 0
 106 -101 116 -101 121 -101 c 2
 677 -101 l 2
 688 -101 694 -102 701 -104 c 0
 712 -108 722 -115 722 -131 c 0
 722 -132 722 -132 722 -133 c 0
 722 -144 719 -155 702 -161 c 0
 693 -164 681 -164 677 -164 c 2
 121 -164 l 2
 110 -164 103 -163 96 -161 c 0
 83 -157 76 -148 76 -133 c 1
EndSplineSet
Validated: 1
EndChar

StartChar: rightarrow
Encoding: 8594 8594 9
Width: 1027
VWidth: 1000
Flags: W
HStem: 219 63<48.1602 852>
VStem: 761 50<381.553 439.814>
LayerCount: 2
Fore
SplineSet
92 219 m 2
 80 219 74 220 67 222 c 0
 56 226 47 233 47 251 c 0
 47 254 47 274 69 280 c 0
 77 282 88 282 92 282 c 2
 852 282 l 1
 788 338 763 401 761 415 c 0
 761 416 761 416 761 417 c 0
 761 433 776 440 786 440 c 0
 801 440 807 432 811 423 c 0
 827 387 858 319 959 274 c 0
 961 273 969 271 974 266 c 0
 976 264 978 261 979 259 c 0
 980 256 980 253 980 250 c 0
 980 244 977 234 965 229 c 0
 937 217 860 184 816 89 c 0
 806 68 804 67 799 64 c 2
 799 64 798 63 797 63 c 0
 793 61 790 61 786 61 c 0
 778 61 761 66 761 84 c 0
 761 86 761 85 761 86 c 0
 763 102 791 166 852 219 c 1
 92 219 l 2
EndSplineSet
Validated: 1
EndChar

StartChar: check
Encoding: 10003 10003 10
Width: 876
Flags: W
LayerCount: 2
Fore
SplineSet
88 220 m 2
 86 222 78 231 78 232 c 0
 78 237 78 238 79 241 c 0
 89 272 149 294 168 297 c 1
 178 297 l 1
 181 294 l 1
 181 294 181 294 182 294 c 0
 187 292 189 289 189 288 c 2
 280 139 l 1
 323 260 387 371 466 471 c 0
 508 524 687 718 774 729 c 1
 782 729 l 1
 784 728 l 1
 784 728 787 727 788 726 c 0
 792 724 797 720 797 711 c 1
 797 711 797 708 795 703 c 0
 792 694 784 686 782 684 c 0
 756 661 730 644 705 624 c 0
 682 605 660 584 638 562 c 0
 583 507 533 445 491 378 c 0
 422 268 375 147 349 21 c 1
 340 -17 282 -38 259 -41 c 1
 251 -41 l 1
 250 -40 l 2
 248 -39 246 -39 245 -39 c 0
 240 -36 238 -33 238 -32 c 2
 80 225 l 1
 88 220 l 2
EndSplineSet
Validated: 1
EndChar

StartChar: downfall
Encoding: 8910 8910 11
Width: 806
Flags: W
HStem: 538 64<80.2409 184.953 621.047 726.438>
VStem: 371 64<-31.4502 225.851>
LayerCount: 2
Fore
SplineSet
107 538 m 0
 94 540 78 551 78 570 c 1
 78 570 78 575 78 576 c 0
 78 579 80 582 80 583 c 0
 85 596 99 602 112 602 c 1
 282 585 365 441 403 294 c 1
 441 441 524 585 694 602 c 1
 715 600 724 589 727 579 c 1
 727 579 728 574 728 572 c 0
 728 571 728 573 728 570 c 0
 728 551 712 540 699 538 c 0
 467 514 435 192 435 -3 c 2
 435 -4 l 1
 435 -5 l 1
 432 -16 426 -25 416 -30 c 0
 412 -32 408 -33 403 -33 c 2
 403 -33 398 -32 397 -32 c 0
 396 -32 394 -32 392 -31 c 0
 381 -27 373 -17 371 -5 c 1
 371 -4 l 1
 371 -3 l 2
 371 192 339 514 107 538 c 0
80 583 m 0
EndSplineSet
Validated: 1
EndChar

StartChar: dotplus
Encoding: 8724 8724 12
Width: 818
Flags: W
HStem: 223 65<49.8737 377 441 766.921> 681 131<361.303 457.8>
VStem: 344 131<697.85 794.697> 377 64<-111.18 223 288 617.763>
LayerCount: 2
Fore
SplineSet
377 223 m 1xd0
 78 223 l 1
 77 223 l 1
 62 226 48 238 48 256 c 1
 48 256 47 262 51 269 c 0
 52 271 60 285 77 288 c 1
 78 288 l 1
 377 288 l 1
 377 595 l 1
 377 596 l 1
 380 611 393 624 410 624 c 1
 410 624 420 625 428 618 c 0
 435 613 439 605 441 596 c 1
 441 595 l 1
 441 288 l 1
 740 288 l 1
 741 288 l 1
 752 285 761 279 766 269 c 0
 768 265 769 261 769 256 c 0
 769 243 759 227 741 223 c 1
 740 223 l 1
 441 223 l 1
 441 -84 l 1
 441 -85 l 1
 439 -95 435 -101 428 -107 c 0
 421 -113 414 -113 410 -113 c 0
 393 -113 380 -100 377 -85 c 1
 377 -84 l 1
 377 223 l 1xd0
344 746 m 0xe0
 344 782 374 812 410 812 c 0
 446 812 475 782 475 746 c 0
 475 710 445 681 410 681 c 0
 374 681 344 710 344 746 c 0xe0
EndSplineSet
Validated: 1
EndChar

StartChar: harpoonrightleft
Encoding: 8652 8652 13
Width: 1051
Flags: W
HStem: 120 64<180 1001.46> 328 64<54.4262 871> 520 20G<787 845>
LayerCount: 2
Fore
SplineSet
54 143 m 2
 48 146 l 1
 48 184 l 1
 972 184 l 2
 990 184 1003 169 1003 152 c 0
 1003 135 990 120 972 120 c 2
 180 120 l 1
 218 82 247 35 262 -16 c 1
 265 -29 l 1
 209 -29 l 1
 207 -23 l 1
 178 50 124 109 54 143 c 2
81 392 m 2
 871 392 l 1
 833 430 805 476 790 527 c 1
 787 540 l 1
 843 540 l 1
 845 534 l 1
 874 461 927 402 997 368 c 2
 1003 365 l 1
 1003 328 l 1
 81 328 l 2
 78 328 63 328 54 341 c 0
 51 345 49 350 48 354 c 0
 48 355 48 357 48 359 c 0
 48 376 62 392 81 392 c 2
EndSplineSet
Validated: 1
EndChar

StartChar: harpoonupleft
Encoding: 8639 8639 14
Width: 438
Flags: W
VStem: 188 64<-207.351 589>
LayerCount: 2
Fore
SplineSet
188 589 m 1
 150 551 103 522 52 507 c 1
 39 504 l 1
 39 560 l 1
 45 562 l 1
 117 591 177 645 211 715 c 2
 214 721 l 1
 252 721 l 1
 252 -177 l 2
 252 -195 238 -209 220 -209 c 0
 202 -209 188 -194 188 -177 c 2
 188 589 l 1
EndSplineSet
Validated: 1
EndChar

StartChar: followsorequal
Encoding: -1 8829 15
Width: 799
VWidth: 1000
Flags: MW
HStem: -246 60<502 612.5 502 624.5> -63 60<186 296> 429 43<599.5 693 599.5 693>
VStem: 57 30<-220 -212 -212 -180 -220 -163> 711 30<-69 -37 -37 -29>
LayerCount: 2
Fore
SplineSet
72 -246 m 0
 61 -246 58 -228 57 -220 c 1
 57 -212 l 2
 57 -114 120 -3 228 -3 c 0
 371 -3 434 -186 570 -186 c 0
 655 -186 711 -109 711 -29 c 1
 712 -20 715 -3 726 -3 c 0
 737 -3 740 -20 741 -29 c 1
 741 -37 l 2
 741 -135 679 -246 570 -246 c 0
 427 -246 364 -63 228 -63 c 0
 144 -63 87 -140 87 -220 c 1
 86 -228 83 -246 72 -246 c 0
108 149 m 0
 94 149 86 160 86 173 c 1
 104 350 262 421 417 451 c 1
 262 480 104 551 86 729 c 1
 86 741 94 752 108 752 c 0
 119 752 127 743 129 733 c 0
 154 487 506 472 693 472 c 1
 703 470 712 462 712 451 c 0
 712 439 703 431 693 429 c 1
 505 429 154 414 129 169 c 0
 127 158 119 149 108 149 c 0
EndSplineSet
Validated: 1
EndChar

StartChar: squareimage
Encoding: 8847 8847 16
Width: 818
Flags: W
HStem: -63 64<142 733.763> 510 64<142 738.18>
VStem: 78 64<1 510>
LayerCount: 2
Fore
SplineSet
78 545 m 1
 79 552 79 558 89 566 c 0
 94 570 101 573 107 574 c 1
 108 574 l 1
 711 574 l 1
 712 574 l 1
 722 572 728 568 734 561 c 0
 740 554 740 547 740 543 c 0
 740 526 727 513 712 510 c 1
 711 510 l 1
 142 510 l 1
 142 1 l 1
 711 1 l 1
 712 1 l 1
 727 -2 740 -15 740 -32 c 1
 740 -32 741 -42 734 -50 c 0
 729 -57 721 -61 712 -63 c 1
 711 -63 l 1
 109 -63 l 2
 107 -63 101 -63 93 -58 c 0
 89 -55 81 -48 78 -36 c 1
 78 -35 l 1
 78 545 l 1
EndSplineSet
Validated: 1
EndChar

StartChar: triangle
Encoding: 9651 9651 17
Width: 743
Flags: W
HStem: -33 66<160 583>
LayerCount: 2
Fore
SplineSet
78 -0 m 0
 78 2 78 3 78 4 c 0
 78 6 78 5 78 7 c 0
 78 8 78 7 79 9 c 2
 79 9 79 10 80 12 c 2
 342 582 l 2
 347 593 358 602 372 602 c 0
 375 602 381 602 387 598 c 0
 394 594 398 587 401 582 c 2
 663 12 l 2
 664 9 665 9 665 4 c 2
 665 4 665 3 665 2 c 2
 665 -0 l 2
 665 -17 653 -29 639 -33 c 1
 637 -33 l 1
 107 -33 l 1
 105 -33 l 1
 91 -29 78 -18 78 -0 c 0
160 33 m 1
 583 33 l 1
 372 493 l 1
 160 33 l 1
EndSplineSet
Validated: 1
EndChar

StartChar: nand
Encoding: 8892 8892 18
Width: 643
Flags: W
HStem: -10 21G<73 82.5 559.5 563.5> 679 64<49.8737 591.881>
LayerCount: 2
Fore
SplineSet
52 38 m 2
 294 519 l 2
 295 520 296 525 303 529 c 0
 309 533 316 535 322 535 c 0
 327 535 327 535 330 534 c 0
 332 533 344 530 351 517 c 2
 592 35 l 1
 592 34 l 1
 593 30 594 26 594 23 c 0
 592 3 580 -6 570 -9 c 0
 567 -10 565 -10 562 -10 c 0
 557 -10 555 -9 551 -8 c 0
 548 -7 545 -5 542 -3 c 0
 538 1 535 5 533 10 c 2
 322 433 l 1
 108 7 l 2
 106 3 103 -4 91 -8 c 0
 88 -9 84 -10 81 -10 c 0
 65 -10 48 5 48 23 c 0
 48 27 48 27 49 30 c 0
 50 33 51 35 52 38 c 2
48 712 m 0
 48 714 48 723 56 731 c 0
 62 738 70 742 77 743 c 1
 78 743 l 1
 565 743 l 1
 566 743 l 1
 575 740 581 737 587 730 c 0
 591 725 594 719 594 712 c 0
 594 699 584 683 566 679 c 1
 565 679 l 1
 78 679 l 1
 77 679 l 1
 62 682 48 694 48 712 c 0
EndSplineSet
Validated: 1
EndChar

StartChar: multiopenright
Encoding: 8908 8908 19
Width: 818
Flags: W
LayerCount: 2
Fore
SplineSet
48 -1 m 0
 48 4 48 4 49 7 c 0
 51 13 54 18 57 22 c 2
 714 712 l 2
 717 715 725 721 736 721 c 1
 756 719 765 707 768 697 c 0
 769 694 769 692 769 689 c 0
 769 685 769 684 768 681 c 0
 766 675 763 670 760 667 c 2
 453 344 l 1
 761 22 l 1
 769 11 769 1 769 -1 c 0
 769 -6 769 -6 768 -9 c 0
 764 -22 751 -33 736 -33 c 1
 736 -33 732 -33 728 -32 c 0
 722 -30 718 -27 714 -23 c 2
 409 298 l 1
 103 -23 l 2
 98 -27 95 -30 89 -32 c 0
 87 -33 84 -33 81 -33 c 0
 61 -31 52 -19 49 -9 c 0
 48 -6 48 -4 48 -1 c 0
EndSplineSet
Validated: 1
EndChar

StartChar: revasymptequal
Encoding: 8909 8909 20
Width: 818
Flags: W
HStem: 16 64<58.2805 760.717> 245 81<162.022 313.288> 413 81<503.712 656.55>
VStem: 48 51<388.205 490.711> 718 51<250.19 351.688>
LayerCount: 2
Fore
SplineSet
48 47 m 0
 48 52 48 50 48 51 c 0
 48 53 49 56 51 60 c 0
 57 71 66 77 76 80 c 1
 78 80 l 1
 740 80 l 1
 742 80 l 1
 754 76 769 65 769 47 c 0
 769 45 770 35 761 26 c 0
 755 20 747 17 741 16 c 1
 740 16 l 1
 78 16 l 1
 77 16 l 1
 69 18 64 19 58 25 c 0
 48 34 48 45 48 47 c 0
48 450 m 2
 48 459 l 1
 50 469 54 485 64 491 c 0
 67 493 71 494 74 494 c 0
 75 494 80 494 85 491 c 0
 95 485 98 469 99 459 c 1
 99 458 l 2
 99 386 162 326 233 326 c 0
 365 326 438 494 584 494 c 0
 694 494 769 393 769 290 c 2
 769 281 l 1
 767 270 763 255 753 248 c 0
 750 246 746 245 743 245 c 0
 742 245 736 245 730 250 c 0
 726 254 720 262 718 281 c 1
 718 282 l 2
 718 354 656 413 584 413 c 0
 452 413 379 245 233 245 c 0
 123 245 48 347 48 450 c 2
EndSplineSet
Validated: 1
EndChar

StartChar: forces
Encoding: 8873 8873 21
Width: 759
Flags: W
HStem: -10 21G<72.5 83 280.5 291> 324 64<320 708.259>
VStem: 48 64<-8.18023 718.877> 256 64<-8.18023 324 388 718.877>
LayerCount: 2
Fore
SplineSet
48 19 m 1
 48 692 l 1
 48 693 l 1
 52 711 68 721 81 721 c 0
 83 721 91 721 99 714 c 0
 106 708 111 700 112 693 c 1
 112 692 l 1
 112 19 l 1
 112 18 l 1
 110 8 106 2 99 -4 c 0
 92 -10 85 -10 81 -10 c 0
 64 -10 51 3 48 18 c 1
 48 19 l 1
256 19 m 1
 256 692 l 1
 256 693 l 1
 260 711 276 721 289 721 c 0
 291 721 299 721 307 714 c 0
 314 708 319 700 320 693 c 1
 320 692 l 1
 320 388 l 1
 682 388 l 1
 683 388 l 1
 701 384 710 369 710 356 c 0
 710 339 697 327 683 324 c 1
 682 324 l 1
 320 324 l 1
 320 19 l 1
 320 18 l 1
 318 8 314 2 307 -4 c 0
 300 -10 293 -10 289 -10 c 0
 272 -10 259 3 256 18 c 1
 256 19 l 1
EndSplineSet
Validated: 1
EndChar

StartChar: arrowtailright
Encoding: 8611 8611 22
Width: 1169
Flags: W
HStem: 223 65<206.068 995>
LayerCount: 2
Fore
SplineSet
169 237 m 1
 169 274 l 1
 123 316 90 366 67 422 c 2
 61 436 l 1
 119 436 l 1
 121 430 l 1
 144 373 183 323 233 288 c 1
 995 288 l 1
 957 327 927 372 907 422 c 1
 901 436 l 1
 959 436 l 1
 961 430 l 1
 990 358 1044 299 1114 265 c 2
 1133 256 l 1
 1114 247 l 1
 1044 212 990 153 961 81 c 1
 959 75 l 1
 901 75 l 1
 907 89 l 1
 927 139 957 184 995 223 c 1
 233 223 l 1
 183 188 144 138 121 81 c 1
 119 75 l 1
 61 75 l 1
 67 89 l 2
 90 145 123 195 169 237 c 1
EndSplineSet
Validated: 1
EndChar

StartChar: leqq
Encoding: 8806 8806 23
Width: 818
Flags: W
HStem: -207 64<83.2827 737.259> 1 64<83.2827 737.259> 742 61<720 737.514>
LayerCount: 2
Fore
SplineSet
78 -175 m 0
 78 -172 79 -166 83 -159 c 0
 89 -150 97 -145 107 -143 c 1
 108 -143 l 1
 711 -143 l 1
 712 -143 l 1
 726 -146 739 -158 739 -175 c 0
 739 -188 730 -203 712 -207 c 1
 711 -207 l 1
 108 -207 l 1
 107 -207 l 1
 95 -204 86 -198 81 -188 c 0
 79 -183 78 -179 78 -175 c 0
78 33 m 0
 78 36 79 42 83 49 c 0
 89 58 97 63 107 65 c 1
 108 65 l 1
 711 65 l 1
 712 65 l 1
 726 62 739 50 739 33 c 0
 739 20 730 5 712 1 c 1
 711 1 l 1
 108 1 l 1
 107 1 l 1
 95 4 86 10 81 20 c 0
 79 25 78 29 78 33 c 0
78 484 m 0
 78 498 87 509 98 514 c 2
 695 801 l 2
 697 802 699 803 708 803 c 1
 708 803 714 803 721 799 c 0
 731 794 738 785 739 774 c 1
 739 774 739 773 739 771 c 0
 739 757 730 746 720 742 c 2
 184 484 l 1
 723 225 l 2
 724 224 730 223 734 216 c 0
 738 210 739 203 739 198 c 0
 739 192 737 176 721 168 c 0
 717 166 713 165 708 165 c 0
 706 165 703 165 700 166 c 0
 698 166 696 167 694 169 c 2
 95 456 l 2
 93 457 84 460 80 471 c 0
 78 475 78 480 78 484 c 0
EndSplineSet
Validated: 1
EndChar

StartChar: triangleright
Encoding: 8882 8882 24
Width: 818
Flags: W
VStem: 78 64<20 491>
LayerCount: 2
Fore
SplineSet
78 -35 m 1
 78 546 l 1
 78 547 l 1
 81 561 94 574 111 574 c 0
 114 574 118 573 122 572 c 1
 123 572 l 1
 720 285 l 2
 727 281 732 278 736 271 c 0
 738 267 740 262 740 256 c 0
 740 251 740 248 738 243 c 0
 735 237 730 231 723 228 c 2
 123 -61 l 1
 122 -61 l 1
 118 -62 114 -63 111 -63 c 0
 94 -63 81 -50 78 -36 c 1
 78 -35 l 1
142 20 m 1
 633 256 l 1
 142 491 l 1
 142 20 l 1
EndSplineSet
Validated: 1
EndChar

StartChar: triangleinv
Encoding: 9661 9661 25
Width: 743
Flags: W
HStem: 538 64<160 583>
LayerCount: 2
Fore
SplineSet
80 557 m 2
 79 560 78 560 78 565 c 0
 78 567 l 2
 78 569 l 2
 78 587 91 598 105 602 c 1
 107 602 l 1
 637 602 l 1
 639 602 l 1
 659 597 665 582 665 569 c 2
 665 569 665 566 665 565 c 2
 665 565 665 563 665 562 c 2
 665 562 664 561 664 560 c 2
 664 560 664 558 663 557 c 2
 401 -12 l 1
 397 -18 395 -23 389 -27 c 0
 384 -30 379 -33 372 -33 c 1
 372 -33 367 -33 361 -31 c 0
 352 -27 345 -19 342 -12 c 2
 80 557 l 2
372 76 m 1
 583 538 l 1
 160 538 l 1
 372 76 l 1
EndSplineSet
Validated: 1
EndChar

StartChar: measuredangle
Encoding: 8737 8737 26
Width: 759
Flags: W
HStem: -10 64<151 403 469 708.206>
VStem: 403 66<54 141.582>
LayerCount: 2
Fore
SplineSet
48 23 m 0
 48 24 48 29 51 35 c 0
 52 37 54 40 57 44 c 2
 656 733 l 2
 659 736 663 741 674 743 c 0
 675 743 677 743 679 743 c 0
 681 743 685 743 690 741 c 0
 702 736 710 725 710 711 c 0
 710 704 709 700 706 694 c 1
 706 694 705 693 704 692 c 2
 704 692 704 691 703 690 c 2
 703 690 702 689 701 688 c 2
 363 299 l 1
 411 240 465 135 469 54 c 1
 682 54 l 1
 683 54 l 1
 692 52 698 48 704 41 c 0
 706 38 710 32 710 23 c 0
 710 6 697 -7 683 -10 c 1
 682 -10 l 1
 469 -10 l 1
 465 -23 452 -33 438 -33 c 0
 436 -33 426 -33 417 -24 c 0
 416 -23 412 -18 409 -10 c 1
 78 -10 l 1
 77 -10 l 1
 62 -7 48 5 48 23 c 0
151 54 m 1
 403 54 l 1
 394 125 365 193 321 249 c 1
 151 54 l 1
EndSplineSet
Validated: 1
EndChar

StartChar: superseteq
Encoding: 8839 8839 27
Width: 799
VWidth: 1000
Flags: W
HStem: -164 63<76.8412 698.711> 39 63<77.0553 501.136> 599 63<76.8412 500.362>
VStem: 659 63<254.724 448.896>
LayerCount: 2
Fore
SplineSet
121 599 m 2
 109 599 103 600 96 602 c 0
 86 606 76 613 76 629 c 0
 76 630 76 630 76 631 c 0
 76 642 79 653 96 659 c 0
 105 662 117 662 121 662 c 2
 401 662 l 2
 569 662 722 531 722 350 c 0
 722 173 571 39 401 39 c 2
 121 39 l 2
 109 39 103 40 96 42 c 0
 85 46 76 52 76 71 c 0
 76 82 79 93 96 99 c 0
 105 102 117 102 121 102 c 2
 397 102 l 2
 545 102 659 213 659 351 c 0
 659 485 547 599 397 599 c 2
 121 599 l 2
121 -164 m 2
 109 -164 103 -163 96 -161 c 0
 86 -157 76 -150 76 -134 c 0
 76 -133 76 -133 76 -132 c 0
 76 -121 79 -110 96 -104 c 0
 105 -101 117 -101 121 -101 c 2
 656 -101 l 2
 661 -101 672 -101 681 -104 c 0
 694 -109 700 -118 700 -133 c 1
 699 -146 696 -155 680 -161 c 0
 671 -164 661 -164 656 -164 c 2
 121 -164 l 2
EndSplineSet
Validated: 1
EndChar

StartChar: therefore
Encoding: 8756 8756 28
Width: 701
Flags: W
HStem: -90 135<39.139 137.243 563.139 661.79> 364 134<300.406 399.79>
VStem: 21 134<-72.5935 26.7902> 283 135<382.139 480.243> 545 135<-71.861 26.7902>
LayerCount: 2
Fore
SplineSet
88 45 m 0
 125 45 155 14 155 -23 c 0
 155 -61 124 -90 88 -90 c 0
 51 -90 21 -60 21 -23 c 0
 21 13 50 45 88 45 c 0
612 45 m 0
 649 45 680 14 680 -23 c 0
 680 -61 648 -90 612 -90 c 0
 575 -90 545 -60 545 -23 c 0
 545 13 574 45 612 45 c 0
350 498 m 0
 387 498 418 468 418 431 c 0
 418 393 386 364 350 364 c 0
 313 364 283 394 283 431 c 0
 283 467 312 498 350 498 c 0
EndSplineSet
Validated: 1
EndChar

StartChar: rightanglese
Encoding: 9496 9496 29
Width: 525
Flags: W
HStem: -33 65<51.2373 413>
VStem: 413 64<32 394.18>
LayerCount: 2
Fore
SplineSet
48 -1 m 0
 48 17 62 29 77 32 c 1
 78 32 l 1
 413 32 l 1
 413 367 l 1
 413 368 l 1
 415 378 419 384 426 390 c 0
 433 396 440 396 444 396 c 0
 461 396 474 383 477 368 c 1
 477 367 l 1
 477 -3 l 2
 477 -7 477 -13 470 -21 c 0
 465 -26 457 -31 448 -33 c 1
 447 -33 l 1
 78 -33 l 1
 77 -33 l 1
 65 -30 56 -24 51 -14 c 0
 49 -9 48 -5 48 -1 c 0
EndSplineSet
Validated: 1
EndChar

StartChar: squareplus
Encoding: 8862 8862 30
Width: 818
Flags: W
HStem: -10 64<112 377 441 705> 330 64<112 377 441 705> 669 64<112 377 441 705>
VStem: 48 64<54 330 394 669> 377 64<54 330 394 669> 705 64<54 330 394 669>
LayerCount: 2
Fore
SplineSet
48 20 m 2
 48 704 l 1
 48 705 l 1
 51 714 54 720 61 726 c 0
 66 730 72 733 79 733 c 2
 740 733 l 1
 741 733 l 1
 750 730 756 728 762 721 c 0
 766 717 769 710 769 703 c 2
 769 19 l 1
 769 18 l 1
 767 9 764 3 757 -3 c 0
 752 -7 746 -10 739 -10 c 2
 78 -10 l 1
 77 -10 l 1
 70 -8 65 -7 59 -2 c 0
 52 4 48 11 48 20 c 2
112 54 m 1
 377 54 l 1
 377 330 l 1
 112 330 l 1
 112 54 l 1
441 54 m 1
 705 54 l 1
 705 330 l 1
 441 330 l 1
 441 54 l 1
112 394 m 1
 377 394 l 1
 377 669 l 1
 112 669 l 1
 112 394 l 1
441 394 m 1
 705 394 l 1
 705 669 l 1
 441 669 l 1
 441 394 l 1
EndSplineSet
Validated: 1
EndChar

StartChar: satisfies
Encoding: 8872 8872 31
Width: 643
Flags: W
HStem: -10 21G<72.5 83> 220 64<112 591.921> 428 64<112 591.921>
VStem: 48 64<-8.18023 220 284 428 492 718.877>
LayerCount: 2
Fore
SplineSet
48 19 m 1
 48 692 l 1
 48 693 l 1
 52 711 68 721 81 721 c 0
 83 721 91 721 99 714 c 0
 106 708 111 700 112 693 c 1
 112 692 l 1
 112 492 l 1
 565 492 l 1
 566 492 l 1
 575 489 581 486 587 479 c 0
 591 474 594 468 594 461 c 0
 594 448 584 432 566 428 c 1
 565 428 l 1
 112 428 l 1
 112 284 l 1
 565 284 l 1
 566 284 l 1
 575 281 581 278 587 271 c 0
 591 266 594 260 594 253 c 0
 594 240 584 224 566 220 c 1
 565 220 l 1
 112 220 l 1
 112 19 l 1
 112 18 l 1
 110 8 106 2 99 -4 c 0
 92 -10 85 -10 81 -10 c 0
 64 -10 51 3 48 18 c 1
 48 19 l 1
EndSplineSet
Validated: 1
EndChar

StartChar: arrowparrleftright
Encoding: 8646 8646 32
Width: 1051
Flags: W
HStem: -11 21G<785 845> 137 64<49.5029 878> 330 21G<207 267> 479 65<173 989.58>
LayerCount: 2
Fore
SplineSet
48 170 m 1
 48 175 l 1
 49 179 51 184 54 188 c 0
 60 197 70 201 81 201 c 2
 878 201 l 1
 840 240 811 286 791 336 c 1
 785 350 l 1
 843 350 l 1
 845 344 l 1
 874 272 927 213 997 179 c 2
 1016 170 l 1
 997 161 l 2
 927 127 874 68 845 -5 c 1
 843 -11 l 1
 785 -11 l 1
 791 3 l 1
 811 53 841 99 878 137 c 1
 81 137 l 2
 63 137 48 152 48 168 c 0
 48 169 48 169 48 170 c 1
54 502 m 2
 35 511 l 1
 54 520 l 2
 124 554 178 613 207 686 c 1
 209 692 l 1
 267 692 l 1
 261 678 l 1
 241 628 211 582 173 544 c 1
 972 544 l 2
 974 544 981 544 990 538 c 0
 998 532 1003 522 1003 511 c 0
 1003 494 990 479 972 479 c 2
 173 479 l 1
 211 440 241 395 261 344 c 1
 267 330 l 1
 209 330 l 1
 207 336 l 1
 178 409 124 468 54 502 c 2
EndSplineSet
Validated: 1
EndChar

StartChar: because
Encoding: 8757 8757 33
Width: 701
Flags: W
HStem: -90 135<301.139 399.79> 364 134<38.4065 137.243 562.406 661.79>
VStem: 21 134<381.406 480.243> 283 135<-71.861 26.7902> 545 135<382.139 480.243>
LayerCount: 2
Fore
SplineSet
350 45 m 0
 387 45 418 14 418 -23 c 0
 418 -61 386 -90 350 -90 c 0
 313 -90 283 -60 283 -23 c 0
 283 13 312 45 350 45 c 0
88 498 m 0
 125 498 155 468 155 431 c 0
 155 393 124 364 88 364 c 0
 51 364 21 394 21 431 c 0
 21 467 50 498 88 498 c 0
612 498 m 0
 649 498 680 468 680 431 c 0
 680 393 648 364 612 364 c 0
 575 364 545 394 545 431 c 0
 545 467 574 498 612 498 c 0
EndSplineSet
Validated: 1
EndChar

StartChar: lessorgreater
Encoding: 8822 8822 34
Width: 818
Flags: W
HStem: -286 61<36.3332 53> 154 62<764 781.458>
LayerCount: 2
Fore
SplineSet
53 -225 m 2
 659 1 l 1
 53 227 l 2
 51 228 45 229 39 238 c 0
 36 243 34 250 34 256 c 0
 34 272 48 288 66 288 c 0
 74 288 73 286 74 286 c 2
 76 286 l 1
 764 31 l 2
 775 26 783 13 783 1 c 0
 783 -12 775 -23 764 -29 c 1
 77 -284 l 2
 73 -285 74 -286 68 -286 c 0
 67 -286 67 -286 66 -286 c 0
 57 -285 43 -283 36 -266 c 0
 35 -263 34 -259 34 -255 c 0
 34 -246 36 -241 41 -234 c 0
 44 -230 48 -227 53 -225 c 2
34 441 m 0
 34 453 42 466 53 471 c 2
 740 726 l 2
 744 727 743 728 748 728 c 2
 748 728 749 728 750 728 c 0
 751 728 751 728 752 728 c 0
 755 728 760 728 766 725 c 0
 777 719 783 708 783 696 c 0
 783 689 782 684 778 678 c 0
 775 673 770 669 764 667 c 2
 158 441 l 1
 764 216 l 2
 775 211 783 198 783 186 c 0
 783 169 770 154 752 154 c 0
 749 154 744 155 739 157 c 2
 53 412 l 2
 51 413 45 414 39 423 c 0
 36 428 34 435 34 441 c 0
EndSplineSet
Validated: 1
EndChar

StartChar: trianglerightequal
Encoding: 8885 8885 35
Width: 818
Flags: W
HStem: -168 64<83.2827 738.483>
VStem: 78 64<124 594>
LayerCount: 2
Fore
SplineSet
78 -136 m 0
 78 -133 79 -127 83 -120 c 0
 89 -111 97 -106 107 -104 c 1
 108 -104 l 1
 711 -104 l 1
 712 -104 l 1
 725 -106 740 -117 740 -136 c 0
 740 -153 727 -165 712 -168 c 1
 711 -168 l 1
 108 -168 l 1
 107 -168 l 1
 95 -165 86 -159 81 -149 c 0
 79 -144 78 -140 78 -136 c 0
78 70 m 1
 78 650 l 1
 78 651 l 1
 82 669 98 679 111 679 c 0
 114 679 118 678 122 677 c 1
 123 677 l 1
 720 390 l 2
 731 385 740 374 740 360 c 0
 740 355 740 352 738 347 c 0
 735 341 730 335 723 332 c 2
 123 43 l 1
 122 43 l 1
 118 42 114 41 111 41 c 0
 98 41 82 51 78 69 c 1
 78 70 l 1
142 124 m 1
 633 359 l 1
 142 594 l 1
 142 124 l 1
EndSplineSet
Validated: 1
EndChar

StartChar: lessequalgreater
Encoding: 8922 8922 36
Width: 818
Flags: W
HStem: 222 64<79.8737 716.126> 430 62<697 715.683> 883 61<697 716.366>
LayerCount: 2
Fore
SplineSet
99 -374 m 2
 598 -178 l 1
 99 18 l 1
 99 18 95 19 94 20 c 0
 89 23 84 27 81 32 c 0
 79 37 78 42 78 47 c 0
 78 52 78 52 79 55 c 0
 83 68 96 79 111 79 c 0
 114 79 118 78 122 77 c 2
 697 -149 l 2
 706 -153 711 -157 715 -165 c 0
 717 -169 718 -173 718 -178 c 0
 718 -196 703 -206 697 -208 c 2
 121 -433 l 2
 119 -433 118 -435 113 -435 c 2
 113 -435 112 -435 111 -435 c 0
 91 -433 82 -421 79 -411 c 0
 78 -408 78 -406 78 -403 c 0
 78 -397 78 -393 81 -388 c 0
 84 -383 89 -379 94 -376 c 0
 95 -375 97 -375 99 -374 c 2
78 255 m 0
 78 257 78 266 86 274 c 0
 92 281 100 285 107 286 c 1
 108 286 l 1
 688 286 l 1
 689 286 l 1
 698 284 704 281 710 274 c 0
 715 269 718 263 718 255 c 0
 718 237 704 225 689 222 c 1
 688 222 l 1
 108 222 l 1
 107 222 l 1
 92 225 78 237 78 255 c 0
78 687 m 0
 78 696 80 701 85 708 c 0
 88 712 94 715 99 717 c 2
 675 942 l 2
 677 942 678 944 683 944 c 2
 683 944 684 944 685 944 c 0
 705 942 714 930 717 920 c 0
 718 917 718 915 718 912 c 0
 718 911 719 906 715 899 c 0
 713 895 708 887 697 883 c 2
 198 687 l 1
 697 492 l 1
 705 487 711 484 715 476 c 0
 717 472 718 468 718 463 c 0
 718 447 703 430 685 430 c 0
 682 430 681 430 678 431 c 0
 677 431 675 431 674 432 c 2
 674 432 673 432 672 433 c 2
 99 658 l 1
 99 658 95 659 94 660 c 0
 89 663 84 667 81 672 c 0
 79 677 78 682 78 687 c 0
EndSplineSet
Validated: 1
EndChar

StartChar: geomequivalent
Encoding: 8782 8782 37
Width: 818
Flags: W
HStem: -12 64<348.649 468.917> 120 64<49.8121 254.556 562.469 767.399> 328 64<58.2805 254.556 562.469 760.717> 459 64<348.649 469.072>
LayerCount: 2
Fore
SplineSet
48 152 m 0
 48 154 48 163 56 172 c 0
 59 175 65 181 76 184 c 1
 78 184 l 1
 280 184 l 1
 287 183 293 184 301 173 c 0
 305 168 308 161 309 156 c 1
 309 155 l 1
 309 154 l 2
 309 99 354 52 409 52 c 0
 464 52 507 99 508 154 c 0
 508 161 509 167 519 175 c 0
 522 177 527 180 535 183 c 1
 536 184 l 1
 740 184 l 1
 742 184 l 1
 751 181 757 178 763 170 c 0
 765 167 769 161 769 152 c 1
 769 152 768 147 768 146 c 0
 768 145 768 143 767 141 c 0
 763 130 753 122 741 120 c 1
 740 120 l 1
 568 120 l 1
 553 44 487 -12 409 -12 c 0
 331 -12 264 44 249 120 c 1
 78 120 l 1
 77 120 l 1
 66 123 59 127 53 136 c 0
 50 141 48 146 48 152 c 0
48 359 m 0
 48 364 48 366 48 367 c 4
 49 369 50 371 51 372 c 0
 56 383 66 389 76 392 c 1
 78 392 l 1
 249 392 l 1
 264 467 331 523 409 523 c 0
 487 523 553 467 568 392 c 1
 740 392 l 1
 742 392 l 1
 754 388 769 377 769 359 c 0
 769 357 770 347 761 338 c 0
 755 332 747 329 741 328 c 1
 740 328 l 1
 538 328 l 2
 534 328 525 328 516 338 c 0
 512 343 509 349 508 355 c 1
 508 356 l 1
 508 357 l 2
 508 412 464 459 409 459 c 0
 354 459 309 412 309 357 c 0
 309 352 308 343 297 335 c 0
 292 331 287 329 282 328 c 1
 281 328 l 1
 78 328 l 1
 77 328 l 1
 69 330 64 331 58 337 c 0
 48 346 48 357 48 359 c 0
EndSplineSet
Validated: 1
EndChar

StartChar: complement
Encoding: 8705 8705 38
Width: 525
Flags: W
HStem: -33 109<176.293 348.707> 547 21G<405.5 441> 769 108<176.293 348.707>
VStem: 48 108<98.9663 746.016> 369 108<98.9663 286.395 558.605 746.016>
LayerCount: 2
Fore
SplineSet
48 721 m 2
 48 833 172 877 260 877 c 2
 265 877 l 2
 353 877 477 833 477 721 c 2
 477 598 l 1
 474 572 456 551 426 547 c 1
 419 547 l 1
 392 551 373 569 369 598 c 1
 369 716 l 2
 369 758 299 769 263 769 c 0
 203 769 175 749 163 736 c 0
 162 735 159 732 158 729 c 0
 157 727 157 724 156 722 c 1
 156 129 l 2
 156 87 227 76 263 76 c 0
 300 76 340 83 363 108 c 0
 364 109 366 113 367 116 c 0
 368 118 368 121 369 123 c 1
 369 247 l 1
 373 276 392 294 419 298 c 1
 426 298 l 1
 452 295 473 277 477 247 c 1
 477 124 l 2
 477 12 353 -33 265 -33 c 2
 260 -33 l 2
 172 -33 48 12 48 124 c 2
 48 721 l 2
EndSplineSet
Validated: 1
EndChar

StartChar: square
Encoding: 9633 9633 39
Width: 818
Flags: W
HStem: -10 64<112 705> 669 64<112 705>
VStem: 48 64<54 669> 705 64<54 669>
LayerCount: 2
Fore
SplineSet
48 703 m 2
 48 707 48 713 55 721 c 0
 60 726 68 731 77 733 c 1
 78 733 l 1
 739 733 l 2
 743 733 749 733 757 726 c 0
 764 720 768 712 769 705 c 1
 769 704 l 1
 769 20 l 2
 769 16 769 8 760 -0 c 0
 756 -4 749 -8 741 -10 c 1
 740 -10 l 1
 79 -10 l 2
 77 -10 69 -10 61 -3 c 0
 54 3 49 11 48 18 c 1
 48 19 l 1
 48 703 l 2
112 54 m 1
 705 54 l 1
 705 669 l 1
 112 669 l 1
 112 54 l 1
EndSplineSet
Validated: 1
EndChar

StartChar: dblarrowheadleft
Encoding: 8606 8606 40
Width: 1051
Flags: W
HStem: 223 65<173 314.402 367 989.812>
LayerCount: 2
Fore
SplineSet
54 247 m 1
 35 256 l 1
 54 265 l 2
 124 299 178 358 207 430 c 1
 209 436 l 1
 267 436 l 1
 261 422 l 1
 241 372 211 327 173 288 c 1
 287 288 l 1
 338 323 377 373 401 430 c 1
 403 436 l 1
 460 436 l 1
 454 422 l 1
 434 372 405 327 367 288 c 1
 972 288 l 2
 990 288 1003 273 1003 256 c 0
 1003 253 1003 238 990 229 c 0
 986 226 981 224 977 223 c 0
 976 223 974 223 972 223 c 2
 367 223 l 1
 405 184 434 139 454 89 c 1
 460 75 l 1
 403 75 l 1
 401 81 l 1
 377 138 338 188 287 223 c 1
 173 223 l 1
 211 184 241 139 261 89 c 1
 267 75 l 1
 209 75 l 1
 207 81 l 1
 178 153 124 212 54 247 c 1
EndSplineSet
Validated: 1
EndChar

StartChar: northwestarrow
Encoding: 8598 8598 41
Width: 1027
VWidth: 1000
Flags: W
HStem: 630 50<165.559 291.469>
VStem: 71 50<459.886 585.441>
LayerCount: 2
Fore
SplineSet
120 586 m 1
 120 580 121 572 121 565 c 0
 121 524 107 436 81 421 c 0
 78 419 75 418 72 418 c 0
 57 418 45 433 45 445 c 0
 45 448 45 447 45 448 c 0
 46 452 49 459 53 469 c 0
 68 505 71 547 71 566 c 0
 71 568 71 617 53 663 c 0
 49 672 49 673 48 676 c 0
 48 678 47 680 47 681 c 0
 47 694 57 704 70 704 c 1
 70 704 74 703 75 703 c 0
 78 702 82 700 88 698 c 0
 134 680 183 680 185 680 c 0
 188 680 l 0
 201 680 242 681 288 700 c 0
 299 705 301 706 304 706 c 0
 305 706 304 706 305 706 c 2
 306 706 l 2
 321 706 333 691 333 679 c 0
 333 674 332 673 330 670 c 0
 316 648 236 630 186 630 c 0
 179 630 171 631 165 631 c 1
 964 -169 l 2
 970 -175 971 -176 973 -178 c 0
 980 -187 980 -193 980 -197 c 0
 980 -203 979 -207 976 -213 c 0
 973 -218 969 -222 964 -225 c 0
 960 -227 954 -229 948 -229 c 0
 944 -229 938 -229 929 -222 c 0
 926 -220 923 -216 920 -213 c 2
 120 586 l 1
EndSplineSet
Validated: 1
EndChar

StartChar: defines
Encoding: 8796 8796 42
Width: 818
Flags: W
HStem: 120 64<49.8121 768.399> 328 64<58.2805 761.717> 494 64<260 558>
LayerCount: 2
Fore
SplineSet
48 152 m 0
 48 154 48 163 56 172 c 0
 59 175 65 181 76 184 c 1
 78 184 l 1
 741 184 l 1
 743 184 l 1
 752 181 758 178 764 170 c 0
 766 167 770 161 770 152 c 1
 770 152 769 147 769 146 c 0
 769 145 769 143 768 141 c 0
 764 130 754 122 742 120 c 1
 741 120 l 1
 78 120 l 1
 77 120 l 1
 66 123 59 127 53 136 c 0
 50 141 48 146 48 152 c 0
48 359 m 0
 48 364 48 366 48 367 c 4
 49 369 50 371 51 372 c 0
 56 383 66 389 76 392 c 1
 78 392 l 1
 741 392 l 1
 743 392 l 1
 755 388 770 377 770 359 c 0
 770 357 771 347 762 338 c 0
 756 332 748 329 742 328 c 1
 741 328 l 1
 78 328 l 1
 77 328 l 1
 69 330 64 331 58 337 c 0
 48 346 48 357 48 359 c 0
172 525 m 0
 172 530 172 535 175 540 c 1
 175 540 175 539 177 542 c 2
 382 897 l 2
 388 906 399 912 410 912 c 0
 421 912 430 906 436 897 c 2
 641 542 l 2
 645 536 646 529 646 525 c 0
 646 523 646 515 638 506 c 0
 632 499 624 495 617 494 c 1
 616 494 l 1
 202 494 l 1
 201 494 l 1
 192 496 186 499 180 506 c 0
 175 511 172 517 172 525 c 0
260 558 m 1
 558 558 l 1
 410 817 l 1
 260 558 l 1
EndSplineSet
Validated: 1
EndChar

StartChar: subsetdbl
Encoding: 8912 8912 43
Width: 818
Flags: W
HStem: -63 64<303.686 732.856> 101 64<340.002 737.259> 346 64<340.002 402 403 737.206> 510 64<303.686 737.206>
VStem: 78 64<156.93 354.549> 242 64<198.753 312.766>
LayerCount: 2
Fore
SplineSet
407 574 m 2
 711 574 l 1
 712 574 l 1
 721 572 727 568 733 561 c 0
 735 558 739 552 739 543 c 0
 739 526 726 513 712 510 c 1
 711 510 l 1
 411 510 l 2
 268 510 142 402 142 256 c 0
 142 109 268 1 411 1 c 2
 711 1 l 1
 712 1 l 1
 726 -2 739 -15 739 -32 c 1
 739 -32 739 -41 733 -50 c 0
 730 -54 723 -61 712 -63 c 1
 711 -63 l 1
 407 -63 l 2
 231 -63 78 76 78 256 c 0
 78 435 231 574 407 574 c 2
242 256 m 0
 242 341 311 411 397 411 c 2
 404 411 l 2
 406 411 409 411 412 410 c 1
 413 410 l 1
 711 410 l 1
 712 410 l 1
 721 408 727 404 733 397 c 0
 735 394 739 388 739 379 c 0
 739 362 726 349 712 346 c 1
 711 346 l 1
 403 346 l 1
 402 347 l 1
 397 347 l 2
 348 347 306 304 306 256 c 0
 306 207 348 164 397 164 c 2
 402 164 l 1
 402 164 403 165 407 165 c 2
 711 165 l 1
 712 165 l 1
 730 161 739 146 739 133 c 0
 739 116 726 104 712 101 c 1
 711 101 l 1
 411 101 l 2
 410 101 407 100 404 100 c 2
 397 100 l 2
 311 100 242 171 242 256 c 0
EndSplineSet
Validated: 1
EndChar

StartChar: ggreater
Encoding: 8811 8811 44
Width: 1027
VWidth: 1000
Flags: W
LayerCount: 2
Fore
SplineSet
642 218 m 2
 88 -89 l 1
 85 -89 l 2
 78 -89 73 -89 68 -87 c 0
 57 -84 47 -75 47 -58 c 0
 47 -50 47 -42 59 -34 c 0
 61 -32 64 -30 72 -26 c 2
 570 251 l 1
 70 528 l 2
 69 529 63 532 59 535 c 0
 48 544 47 554 47 559 c 0
 47 562 48 567 51 573 c 0
 56 581 63 587 71 589 c 1
 71 589 72 590 73 590 c 2
 73 590 75 590 76 590 c 0
 77 590 77 590 78 590 c 0
 83 590 91 589 101 583 c 2
 645 282 l 2
 650 279 655 276 660 270 c 0
 666 263 667 255 667 251 c 0
 667 246 666 236 655 227 c 0
 651 224 646 220 642 218 c 2
955 218 m 2
 401 -89 l 1
 398 -89 l 2
 391 -89 386 -89 381 -87 c 0
 370 -84 360 -75 360 -58 c 0
 360 -50 360 -42 372 -34 c 0
 374 -32 377 -30 385 -26 c 2
 883 251 l 1
 383 528 l 2
 382 529 376 532 372 535 c 0
 361 544 360 554 360 559 c 0
 360 562 361 567 364 573 c 0
 369 581 376 587 384 589 c 1
 384 589 385 590 386 590 c 2
 386 590 388 590 389 590 c 0
 390 590 390 590 391 590 c 0
 396 590 404 589 414 583 c 2
 958 282 l 2
 963 279 968 276 973 270 c 0
 979 263 980 255 980 251 c 0
 980 246 979 236 968 227 c 0
 964 224 959 220 955 218 c 2
EndSplineSet
Validated: 1
EndChar

StartChar: circlering
Encoding: 8858 8858 45
Width: 818
Flags: W
HStem: -106 53<298.968 518.916> 101 64<351.753 465.974> 347 64<351.753 465.974> 564 53<298.968 518.916>
VStem: 48 53<146.038 365.64> 253 64<199.026 312.974> 500 64<199.026 312.974> 716 53<141.611 365.454>
LayerCount: 2
Fore
SplineSet
48 256 m 0
 48 455 209 617 409 617 c 0
 609 617 769 454 769 256 c 0
 769 57 609 -106 409 -106 c 0
 209 -106 48 57 48 256 c 0
409 -53 m 0
 578 -53 716 86 716 256 c 0
 716 424 578 564 409 564 c 0
 240 564 101 424 101 256 c 0
 101 87 240 -53 409 -53 c 0
409 411 m 0
 494 411 564 341 564 256 c 0
 564 171 494 101 409 101 c 0
 324 101 253 171 253 256 c 0
 253 341 324 411 409 411 c 0
317 256 m 0
 317 207 360 165 409 165 c 0
 458 165 500 207 500 256 c 0
 500 305 458 347 409 347 c 0
 360 347 317 305 317 256 c 0
EndSplineSet
Validated: 1
EndChar

StartChar: squaresmallsolid
Encoding: 9642 9642 46
Width: 291
Flags: W
HStem: -10 217<55.2366 231.765>
VStem: 48 194<-1.57814 194.626>
LayerCount: 2
Fore
SplineSet
48 177 m 2
 48 181 48 187 55 195 c 0
 60 200 68 205 77 207 c 1
 78 207 l 1
 213 207 l 1
 220 206 226 206 234 196 c 0
 238 191 241 185 242 179 c 1
 242 178 l 1
 242 20 l 2
 242 16 242 7 232 -2 c 0
 227 -6 221 -9 215 -10 c 1
 214 -10 l 1
 79 -10 l 2
 77 -10 69 -10 61 -3 c 0
 54 3 49 11 48 18 c 1
 48 19 l 1
 48 177 l 2
EndSplineSet
Validated: 1
EndChar

StartChar: Rightarrow
Encoding: 8658 8658 47
Width: 1027
VWidth: 1000
Flags: W
HStem: 117 63<48.3113 669> 228 45<899.101 962> 321 63<47.919 669> 521 20G<610 628.5>
LayerCount: 2
Fore
SplineSet
90 321 m 2
 86 321 77 321 69 323 c 0
 58 326 47 334 47 350 c 0
 47 351 47 351 47 352 c 0
 47 364 50 374 65 380 c 0
 75 384 89 384 94 384 c 2
 669 384 l 1
 623 436 588 498 584 514 c 0
 584 515 584 516 584 518 c 0
 585 524 584 525 586 529 c 0
 587 531 589 533 591 535 c 0
 598 541 605 541 615 541 c 0
 622 541 621 541 622 541 c 0
 635 540 639 534 643 529 c 0
 645 527 646 525 650 518 c 0
 733 366 851 303 962 273 c 1
 963 272 l 1
 972 268 981 263 980 250 c 0
 980 247 980 232 962 228 c 1
 961 228 l 1
 927 219 839 195 759 124 c 0
 723 92 688 53 650 -16 c 0
 646 -24 645 -26 643 -28 c 0
 635 -40 627 -40 620 -40 c 0
 619 -40 618 -40 615 -40 c 0
 605 -40 598 -40 591 -34 c 0
 589 -32 587 -30 586 -28 c 0
 584 -25 584 -21 584 -17 c 0
 584 -15 583 -15 584 -13 c 0
 587 1 622 64 669 117 c 1
 94 117 l 2
 82 117 73 118 65 121 c 0
 50 127 47 140 47 149 c 0
 47 152 47 172 69 178 c 0
 77 180 86 180 90 180 c 2
 721 180 l 2
 728 180 731 180 733 180 c 0
 734 180 736 181 737 182 c 0
 738 183 740 184 742 186 c 0
 779 215 817 236 848 251 c 1
 798 274 759 303 742 316 c 0
 739 319 738 319 737 320 c 0
 736 321 735 320 734 320 c 0
 731 321 727 321 721 321 c 2
 90 321 l 2
EndSplineSet
Validated: 1
EndChar

StartChar: squiggleright
Encoding: 8669 8669 48
Width: 1051
Flags: W
HStem: 223 65<678 878>
LayerCount: 2
Fore
SplineSet
48 256 m 0
 48 257 48 260 49 264 c 0
 51 270 54 274 58 278 c 2
 156 363 l 2
 158 365 163 369 170 371 c 0
 173 372 175 372 178 372 c 0
 187 372 195 368 200 364 c 2
 373 213 l 1
 546 364 l 2
 551 368 553 369 559 371 c 2
 559 371 561 372 562 372 c 2
 562 372 563 372 564 372 c 0
 565 372 566 372 567 372 c 0
 574 372 578 371 584 368 c 1
 584 368 585 367 586 366 c 2
 586 366 587 366 588 365 c 2
 588 365 589 364 590 363 c 2
 678 288 l 1
 878 288 l 1
 840 327 811 372 791 422 c 1
 785 436 l 1
 843 436 l 1
 845 430 l 1
 874 358 927 299 997 265 c 2
 1016 256 l 1
 997 247 l 1
 927 212 874 153 845 81 c 1
 843 75 l 1
 785 75 l 1
 791 89 l 1
 811 139 840 184 878 223 c 1
 664 223 l 2
 663 223 657 223 650 227 c 0
 646 230 643 233 641 235 c 2
 567 298 l 1
 395 148 l 2
 392 145 390 143 386 141 c 0
 381 139 377 138 373 138 c 0
 368 138 358 140 350 148 c 2
 178 298 l 1
 102 232 l 2
 99 230 97 228 93 226 c 0
 90 224 86 223 81 223 c 0
 65 223 48 238 48 256 c 0
EndSplineSet
Validated: 1
EndChar

StartChar: lessorsimilar
Encoding: 8818 8818 49
Width: 818
Flags: W
HStem: -257 82<506.297 653.759> -79 82<163.664 310.703> 715 61<720 737.514>
VStem: 48 51<-251.621 -145.273> 718 51<-109.619 -2.37935>
LayerCount: 2
Fore
SplineSet
48 -221 m 1
 48 -212 l 2
 48 -108 118 3 233 3 c 0
 380 3 451 -175 584 -175 c 0
 660 -175 718 -109 718 -34 c 2
 718 -33 l 1
 719 -24 721 -10 730 -2 c 0
 732 0 737 3 743 3 c 0
 749 2 750 2 753 0 c 0
 764 -6 768 -22 769 -33 c 1
 769 -42 l 2
 769 -145 700 -257 584 -257 c 0
 437 -257 366 -79 233 -79 c 0
 158 -79 99 -145 99 -220 c 2
 99 -221 l 1
 98 -230 96 -244 87 -252 c 0
 85 -254 80 -257 74 -257 c 1
 74 -257 69 -257 64 -254 c 0
 54 -247 49 -232 48 -221 c 1
78 458 m 0
 78 461 78 467 82 473 c 0
 86 480 93 484 98 487 c 2
 695 774 l 2
 697 775 699 776 708 776 c 1
 708 776 714 776 721 772 c 0
 731 767 738 758 739 747 c 1
 739 747 739 746 739 744 c 0
 739 730 730 719 720 715 c 2
 184 458 l 1
 723 198 l 2
 724 197 730 196 734 189 c 0
 738 183 739 176 739 171 c 0
 739 165 737 149 721 141 c 0
 717 139 713 138 708 138 c 0
 703 138 699 139 695 142 c 2
 695 142 694 142 693 143 c 2
 95 429 l 2
 94 430 88 432 83 440 c 0
 80 445 78 451 78 458 c 0
EndSplineSet
Validated: 1
EndChar

StartChar: equaldotleftright
Encoding: 8786 8786 50
Width: 818
Flags: W
HStem: -124 135<687.056 787.14> 120 64<49.8121 767.399> 328 64<58.2805 760.717> 500 135<32.139 130.243>
VStem: 14 134<517.406 616.79> 670 135<-106.14 -6.75665>
LayerCount: 2
Fore
SplineSet
737 11 m 0
 774 11 805 -19 805 -56 c 0
 805 -94 774 -124 737 -124 c 0
 699 -124 670 -93 670 -56 c 0
 670 -20 699 11 737 11 c 0
48 152 m 0
 48 154 48 163 56 172 c 0
 59 175 65 181 76 184 c 1
 78 184 l 1
 740 184 l 1
 742 184 l 1
 751 181 757 178 763 170 c 0
 765 167 769 161 769 152 c 1
 769 152 768 147 768 146 c 0
 768 145 768 143 767 141 c 0
 763 130 753 122 741 120 c 1
 740 120 l 1
 78 120 l 1
 77 120 l 1
 66 123 59 127 53 136 c 0
 50 141 48 146 48 152 c 0
48 359 m 0
 48 364 48 366 48 367 c 4
 49 369 50 371 51 372 c 0
 56 383 66 389 76 392 c 1
 78 392 l 1
 740 392 l 1
 742 392 l 1
 754 388 769 377 769 359 c 0
 769 357 770 347 761 338 c 0
 755 332 747 329 741 328 c 1
 740 328 l 1
 78 328 l 1
 77 328 l 1
 69 330 64 331 58 337 c 0
 48 346 48 357 48 359 c 0
81 635 m 0
 118 635 148 604 148 567 c 0
 148 529 117 500 81 500 c 0
 44 500 14 530 14 567 c 0
 14 603 43 635 81 635 c 0
EndSplineSet
Validated: 1
EndChar

StartChar: triangledownsld
Encoding: 9660 9660 51
Width: 743
Flags: W
LayerCount: 2
Fore
SplineSet
80 557 m 2
 79 560 78 560 78 565 c 0
 78 567 l 2
 78 569 l 2
 78 587 91 598 105 602 c 1
 107 602 l 1
 637 602 l 1
 639 602 l 1
 659 597 665 582 665 569 c 2
 665 569 665 566 665 565 c 2
 665 565 665 563 665 562 c 2
 665 562 664 561 664 560 c 2
 664 560 664 558 663 557 c 2
 401 -12 l 1
 397 -18 395 -23 389 -27 c 0
 384 -30 379 -33 372 -33 c 1
 372 -33 367 -33 361 -31 c 0
 352 -27 345 -19 342 -12 c 2
 80 557 l 2
EndSplineSet
Validated: 1
EndChar

StartChar: Yen
Encoding: 165 165 52
Width: 788
Flags: W
HStem: -10 56<236 339.84 450.459 554> 205 53<71.1399 340 449 733.889> 413 53<71.1399 220 383 469 569 733.889> 654 55<3 110.607 241.384 307 545 599.206 688.613 785>
VStem: 340 109<52.6172 66 67 205 258 277>
LayerCount: 2
Fore
SplineSet
55 228 m 1
 55 234 l 1
 56 239 58 250 71 256 c 0
 74 257 76 258 78 258 c 2
 340 258 l 1
 340 277 l 1
 254 413 l 1
 78 413 l 1
 72 414 58 417 55 432 c 1
 55 436 l 1
 55 442 l 1
 56 447 58 458 71 464 c 0
 74 465 76 466 78 466 c 2
 220 466 l 1
 118 624 l 1
 97 652 62 654 13 654 c 2
 3 654 l 1
 3 709 l 1
 13 709 l 2
 56 709 99 706 143 706 c 0
 194 706 246 709 297 709 c 2
 307 709 l 1
 307 654 l 1
 297 654 l 2
 269 654 249 651 241 645 c 0
 238 643 238 641 238 640 c 0
 238 638 l 1
 239 637 l 1
 239 636 l 1
 239 635 l 1
 348 466 l 1
 504 466 l 1
 594 606 l 2
 599 615 600 622 600 626 c 0
 600 646 577 654 555 654 c 2
 545 654 l 1
 545 709 l 1
 555 709 l 2
 595 709 636 706 677 706 c 0
 710 706 741 709 775 709 c 2
 785 709 l 1
 785 654 l 1
 775 654 l 2
 722 654 678 635 653 596 c 2
 569 466 l 1
 711 466 l 1
 711 466 717 464 718 464 c 0
 726 460 733 452 734 446 c 1
 734 446 734 444 734 442 c 2
 734 436 l 1
 733 431 731 417 715 413 c 1
 715 413 712 413 711 413 c 2
 535 413 l 1
 449 277 l 1
 449 258 l 1
 711 258 l 1
 711 258 717 256 718 256 c 0
 726 252 733 244 734 238 c 1
 734 238 734 236 734 234 c 2
 734 228 l 1
 733 223 731 209 715 205 c 1
 715 205 712 205 711 205 c 2
 449 205 l 1
 449 70 l 1
 449 67 l 1
 450 66 l 1
 450 65 l 1
 459 47 519 46 538 46 c 0
 544 46 l 2
 554 46 l 1
 554 -10 l 1
 544 -10 l 2
 494 -10 444 -7 394 -7 c 0
 345 -7 296 -10 246 -10 c 2
 236 -10 l 1
 236 46 l 1
 246 46 l 2
 316 46 340 56 340 70 c 2
 340 205 l 1
 78 205 l 1
 72 206 58 209 55 224 c 1
 55 228 l 1
426 345 m 1
 469 413 l 1
 383 413 l 1
 426 345 l 1
EndSplineSet
Validated: 1
EndChar

StartChar: uniondbl
Encoding: 8914 8914 53
Width: 701
Flags: W
HStem: -33 65<228.633 469.476> 131 64<294.224 405.776>
VStem: 48 64<127.581 617.856> 212 64<214.799 617.856> 424 64<214.799 617.856> 588 64<128.983 617.856>
LayerCount: 2
Fore
SplineSet
48 196 m 2
 48 596 l 1
 48 597 l 1
 51 611 64 624 81 624 c 1
 81 624 90 624 99 618 c 0
 103 615 110 608 112 597 c 1
 112 596 l 1
 112 200 l 2
 112 82 245 32 350 32 c 0
 454 32 588 82 588 199 c 2
 588 596 l 1
 588 597 l 1
 591 611 604 624 621 624 c 1
 621 624 630 624 639 618 c 0
 643 615 650 608 652 597 c 1
 652 596 l 1
 652 195 l 2
 652 42 487 -33 350 -33 c 0
 220 -33 48 36 48 196 c 2
212 254 m 2
 212 596 l 1
 212 597 l 1
 215 611 228 624 245 624 c 1
 245 624 254 624 263 618 c 0
 267 615 274 608 276 597 c 1
 276 596 l 1
 276 258 l 2
 276 220 312 195 350 195 c 0
 388 195 424 220 424 258 c 2
 424 596 l 1
 424 597 l 1
 427 611 440 624 457 624 c 1
 457 624 466 624 475 618 c 0
 479 615 486 608 488 597 c 1
 488 596 l 1
 488 254 l 2
 488 179 416 131 350 131 c 0
 284 131 212 179 212 254 c 2
EndSplineSet
Validated: 1
EndChar

StartChar: rightanglene
Encoding: 9488 9488 54
Width: 525
Flags: W
HStem: 657 64<49.8591 413>
VStem: 413 64<293.874 657>
LayerCount: 2
Fore
SplineSet
413 657 m 1
 78 657 l 1
 77 657 l 1
 66 660 59 664 53 673 c 0
 50 678 48 683 48 689 c 1
 48 689 47 695 51 702 c 0
 52 704 60 718 77 721 c 1
 78 721 l 1
 446 721 l 2
 448 721 456 721 464 714 c 0
 471 708 476 700 477 693 c 1
 477 692 l 1
 477 322 l 1
 477 321 l 1
 474 306 462 292 444 292 c 0
 442 292 434 292 425 300 c 0
 418 306 414 314 413 321 c 1
 413 322 l 1
 413 657 l 1
EndSplineSet
Validated: 1
EndChar

StartChar: ominus
Encoding: 8854 8854 55
Width: 799
VWidth: 1000
Flags: W
HStem: -102 48<288.144 510.032> 227 48<96 702> 555 48<287.335 510.278>
VStem: 47 49<139.054 227 275 360.997> 702 49<139.054 227 275 360.997>
LayerCount: 2
Fore
SplineSet
399 -102 m 0
 206 -102 47 54 47 251 c 0
 47 444 204 603 399 603 c 0
 592 603 751 447 751 250 c 0
 751 57 594 -102 399 -102 c 0
96 275 m 1
 702 275 l 1
 687 437 553 555 399 555 c 0
 245 555 111 437 96 275 c 1
702 227 m 1
 96 227 l 1
 111 60 247 -54 399 -54 c 0
 550 -54 687 60 702 227 c 1
EndSplineSet
Validated: 1
EndChar

StartChar: clockwise
Encoding: 8635 8635 56
Width: 818
Flags: W
HStem: -106 53<298.968 518.916> 534 49<528.308 561.769> 564 53<389.328 434.414>
VStem: 48 53<146.038 366.433> 716 53<141.611 367.381>
LayerCount: 2
Fore
SplineSet
48 256 m 0xd8
 48 400 137 533 269 589 c 1
 235 608 205 633 178 661 c 2
 166 673 l 1
 224 688 l 1
 228 684 l 1
 258 649 299 624 343 611 c 1
 363 615 385 617 408 617 c 0
 422 617 435 607 435 591 c 0
 435 581 427 564 411 564 c 0xb8
 403 564 396 564 389 563 c 1
 345 526 314 472 305 416 c 2
 304 410 l 1
 248 394 l 1
 250 410 l 1
 258 459 277 504 305 544 c 1
 304 546 l 1
 184 502 101 384 101 256 c 0
 101 87 240 -53 409 -53 c 0
 578 -53 716 86 716 256 c 0
 716 373 647 483 541 534 c 0
 533 538 528 548 528 557 c 0
 528 571 540 583 554 583 c 0
 556 583 557 584 562 582 c 2
 562 582 563 580 564 581 c 1
 565 580 l 1
 566 580 l 1
 690 521 769 392 769 256 c 0
 769 57 609 -106 409 -106 c 0
 209 -106 48 57 48 256 c 0xd8
EndSplineSet
Validated: 1
EndChar

StartChar: dblarrowdwn
Encoding: 8650 8650 57
Width: 876
Flags: W
VStem: 232 63<-82 708.58> 582 64<-82 708.765>
LayerCount: 2
Fore
SplineSet
65 -22 m 2
 65 -10 l 2
 65 -9 65 -3 70 3 c 0
 71 4 77 11 88 11 c 2
 94 11 l 1
 96 10 l 1
 147 -10 194 -42 232 -83 c 1
 232 691 l 2
 232 693 232 700 239 709 c 0
 248 720 261 721 263 721 c 0
 273 720 281 717 288 709 c 0
 292 704 295 698 295 691 c 2
 295 -82 l 1
 332 -41 379 -10 430 10 c 1
 432 11 l 1
 444 11 l 1
 446 10 l 1
 498 -10 545 -41 582 -82 c 1
 582 691 l 2
 582 693 581 699 587 707 c 0
 591 712 597 718 605 720 c 1
 605 720 606 720 607 720 c 2
 607 720 609 721 610 721 c 0
 611 721 612 721 613 721 c 0
 624 720 632 717 639 709 c 0
 643 704 646 698 646 691 c 2
 646 -82 l 1
 683 -41 729 -10 781 10 c 1
 783 11 l 1
 790 11 l 1
 794 10 803 10 809 1 c 0
 811 -3 812 -7 812 -10 c 2
 812 -22 l 1
 812 -22 811 -28 811 -29 c 0
 808 -37 800 -40 797 -41 c 0
 725 -68 666 -124 635 -194 c 0
 631 -202 624 -209 613 -209 c 1
 607 -208 607 -209 604 -207 c 0
 599 -204 595 -198 593 -194 c 0
 563 -126 507 -72 438 -45 c 1
 369 -72 313 -126 284 -194 c 0
 282 -198 276 -209 263 -209 c 0
 257 -209 247 -206 242 -194 c 0
 211 -123 152 -69 80 -42 c 0
 77 -41 70 -38 66 -29 c 0
 65 -26 65 -24 65 -22 c 2
EndSplineSet
Validated: 1
EndChar

StartChar: curlyleft
Encoding: 8619 8619 58
Width: 1051
Flags: W
HStem: 223 65<173 644 708 905.162> 537 65<754.031 923.908>
VStem: 644 64<-53.53 223 288 479.904> 961 65<338.534 499.358>
LayerCount: 2
Fore
SplineSet
54 247 m 1
 35 256 l 1
 54 265 l 2
 124 299 178 358 207 430 c 1
 209 436 l 1
 267 436 l 1
 261 422 l 1
 241 372 211 327 173 288 c 1
 644 288 l 1
 644 428 650 602 835 602 c 0
 963 602 1026 537 1026 413 c 0
 1026 229 876 223 742 223 c 2
 708 223 l 1
 708 -26 l 1
 708 -28 l 1
 705 -37 703 -42 696 -48 c 0
 691 -52 684 -55 676 -55 c 0
 657 -55 646 -40 644 -27 c 1
 644 -26 l 1
 644 223 l 1
 173 223 l 1
 211 184 241 139 261 89 c 1
 267 75 l 1
 209 75 l 1
 207 81 l 1
 178 153 124 212 54 247 c 1
708 288 m 1
 741 288 l 2
 856 288 961 289 961 413 c 0
 961 505 922 537 835 537 c 0
 769 537 732 515 718 445 c 0
 709 403 708 350 708 288 c 1
EndSplineSet
Validated: 1
EndChar

StartChar: geqq
Encoding: 8807 8807 59
Width: 818
Flags: W
HStem: -207 64<83.2827 737.259> 1 64<83.2827 737.259> 165 62<80.0241 98>
LayerCount: 2
Fore
SplineSet
78 -175 m 0
 78 -172 79 -166 83 -159 c 0
 89 -150 97 -145 107 -143 c 1
 108 -143 l 1
 711 -143 l 1
 712 -143 l 1
 726 -146 739 -158 739 -175 c 0
 739 -188 730 -203 712 -207 c 1
 711 -207 l 1
 108 -207 l 1
 107 -207 l 1
 95 -204 86 -198 81 -188 c 0
 79 -183 78 -179 78 -175 c 0
78 33 m 0
 78 36 79 42 83 49 c 0
 89 58 97 63 107 65 c 1
 108 65 l 1
 711 65 l 1
 712 65 l 1
 726 62 739 50 739 33 c 0
 739 20 730 5 712 1 c 1
 711 1 l 1
 108 1 l 1
 107 1 l 1
 95 4 86 10 81 20 c 0
 79 25 78 29 78 33 c 0
98 227 m 2
 633 484 l 1
 95 743 l 2
 93 744 84 747 80 758 c 0
 78 762 78 767 78 771 c 0
 78 776 78 776 79 779 c 0
 83 792 96 803 111 803 c 0
 114 803 118 802 122 801 c 1
 123 801 l 1
 723 512 l 2
 724 511 729 510 733 503 c 0
 737 497 739 490 739 484 c 0
 739 470 730 459 720 455 c 2
 124 168 l 2
 119 165 113 165 111 165 c 0
 95 165 78 180 78 198 c 0
 78 201 78 207 82 213 c 0
 86 220 93 224 98 227 c 2
EndSplineSet
Validated: 1
EndChar

StartChar: arrowtripleleft
Encoding: 8666 8666 60
Width: 1051
Flags: W
HStem: 16 64<404 1001.26> 223 65<216 989.812> 431 64<404 1001.21>
CounterMasks: 1 e0
LayerCount: 2
Fore
SplineSet
76 247 m 1
 60 256 l 1
 76 265 l 1
 224 345 339 478 395 637 c 1
 397 644 l 1
 472 644 l 1
 467 631 l 1
 451 584 429 538 404 495 c 1
 975 495 l 1
 976 495 l 1
 985 493 991 489 997 482 c 0
 999 479 1003 473 1003 464 c 0
 1003 447 990 434 976 431 c 1
 975 431 l 1
 360 431 l 1
 319 377 270 329 216 288 c 1
 972 288 l 2
 990 288 1003 273 1003 256 c 0
 1003 253 1003 238 990 229 c 0
 986 226 981 224 977 223 c 0
 976 223 974 223 972 223 c 2
 216 223 l 1
 270 182 319 134 360 80 c 1
 975 80 l 1
 976 80 l 1
 994 76 1003 61 1003 48 c 0
 1003 31 990 19 976 16 c 1
 975 16 l 1
 404 16 l 1
 429 -27 451 -73 467 -120 c 1
 472 -133 l 1
 397 -133 l 1
 395 -126 l 1
 339 33 224 166 76 247 c 1
EndSplineSet
Validated: 1
EndChar

StartChar: uprise
Encoding: 8911 8911 61
Width: 806
Flags: W
HStem: -33 65<80.1912 184.953 621.047 726.124>
VStem: 371 64<343.422 599.711>
LayerCount: 2
Fore
SplineSet
107 32 m 1
 339 56 371 377 371 572 c 2
 371 573 l 1
 371 574 l 1
 372 577 376 594 392 600 c 0
 394 601 396 601 397 601 c 0
 398 601 401 602 403 602 c 0
 404 602 409 603 416 599 c 0
 418 598 432 591 435 574 c 1
 435 573 l 1
 435 572 l 2
 435 377 467 56 699 32 c 1
 714 29 728 16 728 -1 c 1
 728 -1 727 -6 727 -7 c 2
 727 -7 727 -9 727 -10 c 0
 723 -25 708 -33 694 -33 c 1
 524 -16 441 128 403 275 c 1
 365 128 282 -16 112 -33 c 1
 93 -31 84 -23 80 -14 c 0
 80 -13 79 -11 78 -7 c 0
 78 -6 78 -4 78 -1 c 0
 78 16 92 29 107 32 c 1
EndSplineSet
Validated: 1
EndChar

StartChar: circleS
Encoding: 9416 9416 62
Width: 937
Flags: W
HStem: -191 64<339.535 598.465> -24 51<396.964 550.23> 514 49<385.113 525.14> 688 64<339.535 598.465>
VStem: -3 64<151.341 410.373> 277 76<372.023 479.017> 277 52<90.0642 186.952> 585 76<63.5414 184.688> 586 53<362.051 446.214> 877 64<151.341 410.373>
LayerCount: 2
Fore
SplineSet
469 752 m 0xf840
 729 752 941 541 941 281 c 0
 941 21 729 -191 469 -191 c 0
 209 -191 -3 21 -3 281 c 0
 -3 541 209 752 469 752 c 0xf840
61 281 m 0
 61 57 246 -127 469 -127 c 0
 692 -127 877 57 877 281 c 0
 877 504 692 688 469 688 c 0
 246 688 61 504 61 281 c 0
277 169 m 1xfb40
 278 171 277 174 281 179 c 0
 284 183 287 186 290 187 c 0
 293 188 295 188 297 188 c 2
 309 188 l 1
 309 188 315 187 316 187 c 0
 319 186 322 183 325 179 c 0
 327 177 329 173 329 169 c 0
 329 72 402 27 492 27 c 0
 544 27 585 73 585 124 c 0xfb40
 585 168 554 208 512 218 c 2
 405 243 l 2
 333 260 277 325 277 400 c 0
 277 492 357 563 446 563 c 0
 491 563 537 550 572 519 c 1
 598 555 l 2
 600 557 601 560 608 562 c 0
 611 563 614 563 616 563 c 0
 622 562 626 562 631 558 c 0
 636 555 639 550 639 544 c 2
 639 370 l 1
 639 370 638 363 637 362 c 0
 634 356 627 352 622 351 c 0
 621 351 619 350 618 350 c 2
 606 350 l 1
 606 350 600 351 599 352 c 0
 595 354 591 358 588 363 c 0
 587 366 586 368 586 370 c 0
 586 403 568 451 541 479 c 1
 515 504 481 514 446 514 c 0
 397 514 353 476 353 427 c 0xfcc0
 353 386 384 352 424 343 c 2
 530 317 l 1
 608 300 661 226 661 148 c 0
 661 56 587 -24 492 -24 c 0
 441 -24 387 -12 344 21 c 1
 317 -16 l 2
 315 -18 314 -21 307 -23 c 0
 304 -24 301 -24 299 -24 c 0
 296 -24 291 -23 285 -19 c 0
 280 -16 277 -11 277 -5 c 2
 277 169 l 1xfb40
EndSplineSet
Validated: 1
EndChar

StartChar: harpoonleftright
Encoding: 8651 8651 63
Width: 1051
Flags: W
HStem: 120 64<49.5029 872> 328 64<181 989.58> 520 20G<207 265>
LayerCount: 2
Fore
SplineSet
48 152 m 0
 48 170 63 184 81 184 c 2
 1003 184 l 1
 1003 146 l 1
 997 143 l 2
 927 109 874 50 845 -23 c 1
 843 -29 l 1
 787 -29 l 1
 790 -16 l 1
 805 35 834 82 872 120 c 1
 81 120 l 2
 63 120 48 134 48 152 c 0
48 328 m 1
 48 365 l 1
 54 368 l 2
 124 402 178 461 207 534 c 1
 209 540 l 1
 265 540 l 1
 262 527 l 1
 247 476 219 430 181 392 c 1
 972 392 l 2
 974 392 981 392 990 386 c 0
 998 380 1003 370 1003 359 c 0
 1003 352 1001 347 997 341 c 0
 995 338 993 336 990 334 c 0
 985 330 979 328 972 328 c 2
 48 328 l 1
EndSplineSet
Validated: 1
EndChar

StartChar: harpoondownright
Encoding: 8642 8642 64
Width: 438
Flags: W
VStem: 187 64<-77 719.351>
LayerCount: 2
Fore
SplineSet
187 689 m 2
 187 706 201 721 219 721 c 0
 237 721 251 707 251 689 c 2
 251 -77 l 1
 289 -39 335 -10 386 5 c 1
 399 8 l 1
 399 -48 l 1
 393 -50 l 1
 321 -79 261 -133 228 -203 c 1
 225 -209 l 1
 187 -209 l 1
 187 689 l 2
EndSplineSet
Validated: 1
EndChar

StartChar: greaterorless
Encoding: 8823 8823 65
Width: 818
Flags: W
HStem: 154 62<79.6406 98>
LayerCount: 2
Fore
SplineSet
78 -0 m 0
 78 4 78 4 79 7 c 1
 79 9 l 1
 79 9 80 9 80 10 c 0
 83 18 89 25 98 29 c 2
 695 284 l 2
 697 285 699 286 708 286 c 0
 713 286 713 286 716 285 c 0
 726 282 735 273 738 263 c 0
 739 260 739 258 739 255 c 0
 739 246 737 241 732 234 c 0
 729 230 725 227 720 225 c 2
 192 0 l 1
 720 -225 l 2
 731 -230 739 -243 739 -255 c 0
 739 -261 737 -277 721 -285 c 0
 717 -287 713 -288 708 -288 c 0
 703 -288 699 -287 695 -284 c 1
 695 -284 695 -285 694 -284 c 2
 98 -29 l 1
 98 -29 95 -28 94 -27 c 0
 89 -24 84 -20 81 -15 c 0
 79 -10 78 -5 78 -0 c 0
98 216 m 2
 626 441 l 1
 98 667 l 1
 98 667 95 668 94 669 c 0
 89 672 84 676 81 681 c 0
 79 686 78 691 78 696 c 0
 78 701 78 701 79 704 c 0
 83 717 96 728 111 728 c 0
 114 728 119 727 123 726 c 2
 720 471 l 2
 731 466 739 453 739 441 c 0
 739 434 738 429 734 423 c 0
 731 418 726 414 720 412 c 2
 124 157 l 2
 119 154 113 154 111 154 c 0
 83 156 79 177 78 183 c 1
 78 186 l 2
 78 198 85 210 98 216 c 2
EndSplineSet
Validated: 1
EndChar

StartChar: leftarrow
Encoding: 8592 8592 66
Width: 1027
VWidth: 1000
Flags: W
HStem: 219 63<175 978.84>
VStem: 216 50<61.1862 119.469>
LayerCount: 2
Fore
SplineSet
175 219 m 1
 239 163 264 100 266 86 c 0
 266 85 266 85 266 84 c 0
 266 68 251 61 241 61 c 0
 226 61 220 69 216 78 c 0
 202 108 169 184 76 224 c 0
 63 230 58 231 54 234 c 0
 49 238 48 243 47 247 c 0
 47 248 47 249 47 251 c 0
 47 253 46 259 52 265 c 0
 55 268 58 270 72 276 c 0
 144 307 187 362 211 412 c 0
 221 433 223 434 228 437 c 2
 228 437 229 438 230 438 c 0
 234 440 237 440 241 440 c 0
 249 440 266 435 266 417 c 0
 266 415 266 416 266 415 c 0
 264 399 236 335 175 282 c 1
 935 282 l 2
 947 282 953 281 960 279 c 0
 971 275 980 268 980 250 c 0
 980 247 980 227 958 221 c 0
 950 219 939 219 935 219 c 2
 175 219 l 1
EndSplineSet
Validated: 1
EndChar

StartChar: xor
Encoding: 8891 8891 67
Width: 643
Flags: W
HStem: -10 64<49.8737 591.921>
LayerCount: 2
Fore
SplineSet
48 23 m 0
 48 25 48 34 56 42 c 0
 62 49 70 53 77 54 c 1
 78 54 l 1
 565 54 l 1
 566 54 l 1
 575 51 581 48 587 41 c 0
 591 36 594 30 594 23 c 0
 594 10 584 -6 566 -10 c 1
 565 -10 l 1
 78 -10 l 1
 77 -10 l 1
 62 -7 48 5 48 23 c 0
51 699 m 2
 50 701 49 703 49 704 c 0
 49 706 48 707 48 712 c 1
 48 712 47 718 51 725 c 0
 57 736 68 743 81 743 c 0
 88 743 93 742 99 738 c 0
 104 735 106 731 108 727 c 2
 322 302 l 1
 534 727 l 2
 535 728 538 736 547 740 c 0
 552 742 557 743 562 743 c 0
 568 743 582 740 590 725 c 0
 592 721 594 717 594 712 c 0
 594 705 593 704 593 702 c 0
 593 701 593 700 592 699 c 2
 350 214 l 2
 345 204 333 198 322 198 c 0
 315 198 311 200 305 203 c 0
 300 206 296 209 294 215 c 2
 51 699 l 2
EndSplineSet
Validated: 1
EndChar

StartChar: multiopenleft
Encoding: 8907 8907 68
Width: 818
Flags: W
LayerCount: 2
Fore
SplineSet
48 -1 m 0
 48 4 48 4 49 7 c 0
 51 13 54 18 57 22 c 2
 364 344 l 1
 58 667 l 2
 55 670 53 672 51 676 c 0
 49 681 48 685 48 689 c 0
 48 694 48 694 49 697 c 0
 53 710 66 721 81 721 c 0
 89 721 95 719 101 714 c 2
 101 714 102 713 103 712 c 2
 761 22 l 1
 769 11 769 1 769 -1 c 0
 769 -6 769 -6 768 -9 c 0
 764 -22 751 -33 736 -33 c 1
 736 -33 732 -33 728 -32 c 0
 722 -30 718 -27 714 -23 c 2
 409 298 l 1
 103 -23 l 2
 98 -27 95 -30 89 -32 c 0
 87 -33 84 -33 81 -33 c 0
 61 -31 52 -19 49 -9 c 0
 48 -6 48 -4 48 -1 c 0
EndSplineSet
Validated: 1
EndChar

StartChar: revsimilar
Encoding: 8765 8765 69
Width: 818
Flags: W
HStem: 121 82<162.944 308.751> 309 82<508.249 654.056>
VStem: 48 51<272.262 385.81> 718 51<126.19 239.738>
LayerCount: 2
Fore
SplineSet
48 346 m 2
 48 355 l 1
 50 366 54 381 64 388 c 0
 67 390 71 391 74 391 c 0
 75 391 81 391 87 386 c 0
 91 382 97 374 99 355 c 1
 99 354 l 2
 99 276 153 203 233 203 c 0
 367 203 433 391 584 391 c 0
 704 391 769 269 769 166 c 2
 769 157 l 1
 767 146 763 131 753 124 c 0
 750 122 746 121 743 121 c 0
 742 121 736 121 730 126 c 0
 726 130 720 138 718 157 c 1
 718 158 l 2
 718 236 664 309 584 309 c 0
 450 309 384 121 233 121 c 0
 113 121 48 243 48 346 c 2
EndSplineSet
Validated: 1
EndChar

StartChar: squareminus
Encoding: 8863 8863 70
Width: 818
Flags: W
HStem: -10 64<112 705> 330 64<112 705> 669 64<112 705>
VStem: 48 64<54 330 394 669> 705 64<54 330 394 669>
LayerCount: 2
Fore
SplineSet
48 703 m 2
 48 707 48 713 55 721 c 0
 60 726 68 731 77 733 c 1
 78 733 l 1
 739 733 l 2
 743 733 749 733 757 726 c 0
 764 720 768 712 769 705 c 1
 769 704 l 1
 769 20 l 2
 769 16 769 8 760 -0 c 0
 756 -4 749 -8 741 -10 c 1
 740 -10 l 1
 79 -10 l 2
 77 -10 69 -10 61 -3 c 0
 54 3 49 11 48 18 c 1
 48 19 l 1
 48 703 l 2
112 54 m 1
 705 54 l 1
 705 330 l 1
 112 330 l 1
 112 54 l 1
112 394 m 1
 705 394 l 1
 705 669 l 1
 112 669 l 1
 112 394 l 1
EndSplineSet
Validated: 1
EndChar

StartChar: harpoondownleft
Encoding: 8643 8643 71
Width: 438
Flags: W
VStem: 188 64<-77 719.351>
LayerCount: 2
Fore
SplineSet
39 -48 m 1
 39 8 l 1
 52 5 l 1
 103 -10 150 -39 188 -77 c 1
 188 689 l 2
 188 706 202 721 220 721 c 0
 238 721 252 707 252 689 c 2
 252 -209 l 1
 214 -209 l 1
 211 -203 l 2
 177 -133 117 -79 45 -50 c 1
 39 -48 l 1
EndSplineSet
Validated: 1
EndChar

StartChar: greaterorsimilar
Encoding: 8819 8819 72
Width: 818
Flags: W
HStem: -262 82<508.249 654.056> -75 82<163.366 308.751> 143 62<79.6406 98>
VStem: 48 51<-256.621 -143.401> 718 51<-111.599 1.62065>
LayerCount: 2
Fore
SplineSet
48 -226 m 1
 48 -217 l 2
 48 -114 114 7 233 7 c 0
 384 7 450 -180 584 -180 c 0
 664 -180 718 -108 718 -30 c 2
 718 -29 l 1
 719 -20 721 -6 730 2 c 0
 732 4 737 7 743 7 c 0
 749 6 750 6 753 4 c 0
 764 -2 768 -18 769 -29 c 1
 769 -38 l 2
 769 -141 704 -262 584 -262 c 0
 433 -262 367 -75 233 -75 c 0
 154 -75 99 -147 99 -225 c 2
 99 -226 l 1
 98 -235 96 -249 87 -257 c 0
 85 -259 80 -262 74 -262 c 1
 74 -262 69 -262 64 -259 c 0
 54 -252 49 -237 48 -226 c 1
98 205 m 2
 633 462 l 1
 95 720 l 2
 94 721 88 723 83 731 c 0
 80 736 78 742 78 749 c 1
 78 749 77 755 81 762 c 0
 87 773 98 780 111 780 c 0
 114 780 118 779 122 778 c 1
 123 778 l 1
 723 489 l 2
 724 488 730 487 734 480 c 0
 738 474 739 467 739 462 c 0
 739 459 739 445 726 435 c 1
 726 435 725 434 724 434 c 2
 724 434 723 433 722 433 c 2
 722 433 721 432 720 432 c 2
 124 146 l 2
 119 143 113 143 111 143 c 0
 83 145 79 166 78 172 c 1
 78 175 l 2
 78 189 87 200 98 205 c 2
EndSplineSet
Validated: 1
EndChar

StartChar: squareoriginal
Encoding: 8848 8848 73
Width: 818
Flags: W
HStem: -63 64<58.6072 698> 510 64<58.1646 698>
VStem: 698 64<1 510>
LayerCount: 2
Fore
SplineSet
57 -32 m 0
 57 -12 71 -1 84 1 c 1
 85 1 l 1
 698 1 l 1
 698 510 l 1
 85 510 l 1
 84 510 l 1
 71 512 57 522 57 541 c 0
 57 542 57 542 57 543 c 1
 57 548 l 1
 58 552 60 558 64 563 c 0
 69 569 76 573 84 574 c 1
 85 574 l 1
 731 574 l 2
 733 574 741 574 749 567 c 0
 754 563 758 556 761 548 c 1
 762 547 l 1
 762 -34 l 1
 761 -40 761 -46 752 -54 c 0
 746 -59 739 -62 733 -63 c 1
 732 -63 l 1
 85 -63 l 1
 84 -63 l 1
 75 -61 70 -59 64 -52 c 0
 60 -47 58 -41 57 -37 c 0
 57 -35 57 -34 57 -32 c 0
EndSplineSet
Validated: 1
EndChar

StartChar: trianglesolid
Encoding: 9650 9650 74
Width: 743
Flags: W
LayerCount: 2
Fore
SplineSet
78 -0 m 0
 78 2 78 3 78 4 c 0
 78 6 78 5 78 7 c 0
 78 8 78 7 79 9 c 2
 79 9 79 10 80 12 c 2
 342 582 l 2
 347 593 358 602 372 602 c 0
 375 602 381 602 387 598 c 0
 394 594 398 587 401 582 c 2
 663 12 l 2
 664 9 665 9 665 4 c 2
 665 4 665 3 665 2 c 2
 665 -0 l 2
 665 -17 653 -29 639 -33 c 1
 637 -33 l 1
 107 -33 l 1
 105 -33 l 1
 91 -29 78 -18 78 -0 c 0
EndSplineSet
Validated: 1
EndChar

StartChar: subseteq
Encoding: 8838 8838 75
Width: 799
VWidth: 1000
Flags: W
HStem: -164 63<99.2888 721.159> 39 63<297.638 721.159> 599 63<296.864 721.159>
VStem: 76 63<252.104 446.276>
LayerCount: 2
Fore
SplineSet
401 599 m 2
 253 599 139 488 139 350 c 0
 139 216 251 102 401 102 c 2
 677 102 l 2
 689 102 695 101 702 99 c 0
 712 95 722 88 722 72 c 0
 722 71 722 71 722 70 c 0
 722 59 719 48 702 42 c 0
 693 39 681 39 677 39 c 2
 397 39 l 2
 229 39 76 170 76 351 c 0
 76 528 227 662 397 662 c 2
 677 662 l 2
 689 662 695 661 702 659 c 0
 712 655 722 648 722 632 c 0
 722 631 722 631 722 630 c 0
 722 619 719 608 702 602 c 0
 693 599 681 599 677 599 c 2
 401 599 l 2
677 -101 m 2
 689 -101 695 -102 702 -104 c 0
 712 -108 722 -115 722 -131 c 0
 722 -132 722 -132 722 -133 c 0
 722 -144 719 -155 702 -161 c 0
 693 -164 681 -164 677 -164 c 2
 142 -164 l 2
 137 -164 126 -164 117 -161 c 0
 104 -156 98 -147 98 -132 c 1
 99 -119 102 -110 118 -104 c 0
 127 -101 137 -101 142 -101 c 2
 677 -101 l 2
EndSplineSet
Validated: 1
EndChar

StartChar: rightanglesw
Encoding: 9492 9492 76
Width: 525
Flags: W
HStem: -33 65<112 475.126>
VStem: 48 64<32 389.763>
LayerCount: 2
Fore
SplineSet
48 -5 m 1
 48 -4 l 1
 48 367 l 1
 48 368 l 1
 51 383 64 396 81 396 c 1
 81 396 91 397 99 390 c 0
 106 385 110 377 112 368 c 1
 112 367 l 1
 112 32 l 1
 447 32 l 1
 448 32 l 1
 463 29 477 17 477 -1 c 1
 477 -1 478 -7 474 -14 c 0
 473 -16 465 -30 448 -33 c 1
 447 -33 l 1
 79 -33 l 2
 77 -33 69 -33 61 -26 c 0
 54 -20 49 -12 48 -5 c 1
EndSplineSet
Validated: 1
EndChar

StartChar: squaredot
Encoding: 8865 8865 77
Width: 818
Flags: W
HStem: -10 64<112 705> 295 135<359.86 459.243> 669 64<112 705>
VStem: 48 64<54 669> 342 135<312.056 412.14> 705 64<54 669>
LayerCount: 2
Fore
SplineSet
48 703 m 2
 48 707 48 713 55 721 c 0
 60 726 68 731 77 733 c 1
 78 733 l 1
 739 733 l 2
 743 733 749 733 757 726 c 0
 764 720 768 712 769 705 c 1
 769 704 l 1
 769 20 l 2
 769 16 769 8 760 -0 c 0
 756 -4 749 -8 741 -10 c 1
 740 -10 l 1
 79 -10 l 2
 77 -10 69 -10 61 -3 c 0
 54 3 49 11 48 18 c 1
 48 19 l 1
 48 703 l 2
112 54 m 1
 705 54 l 1
 705 669 l 1
 112 669 l 1
 112 54 l 1
410 430 m 0
 447 430 477 399 477 362 c 0
 477 324 446 295 410 295 c 0
 373 295 342 324 342 362 c 0
 342 399 372 430 410 430 c 0
EndSplineSet
Validated: 1
EndChar

StartChar: forcesbar
Encoding: 8874 8874 78
Width: 934
Flags: W
HStem: -10 21G<72.5 83 265.5 284 461.5 479> 324 64<502 885.45>
VStem: 48 64<-8.18023 718.877> 243 64<-8.53003 718.711> 437 65<-8.21798 324 388 718.921>
LayerCount: 2
Fore
SplineSet
48 19 m 1
 48 692 l 1
 48 693 l 1
 52 711 68 721 81 721 c 0
 83 721 91 721 99 714 c 0
 106 708 111 700 112 693 c 1
 112 692 l 1
 112 19 l 1
 112 18 l 1
 110 8 106 2 99 -4 c 0
 92 -10 85 -10 81 -10 c 0
 64 -10 51 3 48 18 c 1
 48 19 l 1
243 19 m 1
 243 692 l 1
 243 693 l 1
 244 696 248 713 264 719 c 0
 266 720 268 720 269 720 c 0
 270 720 273 721 275 721 c 0
 276 721 281 722 288 718 c 0
 290 717 304 710 307 693 c 1
 307 692 l 1
 307 19 l 1
 307 18 l 1
 302 -2 290 -9 278 -10 c 0
 277 -10 276 -10 275 -10 c 0
 256 -10 245 5 243 18 c 1
 243 19 l 1
437 19 m 1
 437 692 l 1
 437 693 l 1
 441 711 457 721 470 721 c 1
 470 721 476 722 483 718 c 0
 485 717 499 710 502 693 c 1
 502 692 l 1
 502 388 l 1
 858 388 l 1
 859 388 l 1
 870 385 879 379 884 369 c 0
 886 365 887 361 887 356 c 2
 887 356 886 351 886 350 c 0
 886 349 886 347 885 345 c 0
 881 334 871 326 859 324 c 1
 858 324 l 1
 502 324 l 1
 502 19 l 1
 502 18 l 1
 497 -2 485 -9 473 -10 c 0
 472 -10 471 -10 470 -10 c 0
 453 -10 440 3 437 18 c 1
 437 19 l 1
EndSplineSet
Validated: 1
EndChar

StartChar: arrowtailleft
Encoding: 8610 8610 79
Width: 1169
Flags: W
HStem: 223 65<173 962.024>
LayerCount: 2
Fore
SplineSet
54 247 m 1
 35 256 l 1
 54 265 l 2
 124 299 178 358 207 430 c 1
 209 436 l 1
 267 436 l 1
 261 422 l 1
 241 372 211 327 173 288 c 1
 935 288 l 1
 985 323 1025 373 1048 430 c 1
 1050 436 l 1
 1108 436 l 1
 1102 422 l 2
 1079 366 1045 316 999 274 c 1
 999 237 l 1
 1045 195 1079 145 1102 89 c 2
 1108 75 l 1
 1050 75 l 1
 1048 81 l 1
 1025 138 985 188 935 223 c 1
 173 223 l 1
 211 184 241 139 261 89 c 1
 267 75 l 1
 209 75 l 1
 207 81 l 1
 178 153 124 212 54 247 c 1
EndSplineSet
Validated: 1
EndChar

StartChar: multimap
Encoding: 8888 8888 80
Width: 1169
Flags: W
HStem: 77 64<876.479 1006.93> 223 65<49.8737 770.79> 370 64<876.479 1006.93>
VStem: 1056 64<190.403 320.935>
CounterMasks: 1 e0
LayerCount: 2
Fore
SplineSet
48 256 m 0
 48 257 47 262 51 269 c 0
 52 271 60 285 77 288 c 1
 78 288 l 1
 766 288 l 1
 782 372 856 434 942 434 c 0
 1039 434 1120 353 1120 256 c 0
 1120 158 1039 77 942 77 c 0
 856 77 782 139 766 223 c 1
 78 223 l 1
 77 223 l 1
 62 226 48 238 48 256 c 0
942 141 m 0
 1003 141 1056 194 1056 256 c 0
 1056 317 1003 370 942 370 c 0
 880 370 827 317 827 256 c 0
 827 194 880 141 942 141 c 0
EndSplineSet
Validated: 1
EndChar

StartChar: leq
Encoding: 8804 8804 81
Width: 799
VWidth: 1000
Flags: W
HStem: -164 63<77.702 721.159> 642 20G<690 698>
LayerCount: 2
Fore
SplineSet
180 351 m 1
 698 101 l 2
 700 100 706 98 710 95 c 0
 722 87 722 75 722 70 c 0
 722 56 711 39 690 39 c 0
 686 39 684 40 680 41 c 0
 677 42 674 43 667 47 c 2
 100 320 l 2
 99 321 93 323 89 326 c 0
 85 329 76 336 76 350 c 2
 76 354 l 2
 76 356 76 364 84 372 c 0
 88 376 95 379 102 383 c 2
 669 655 l 2
 670 656 676 658 680 660 c 0
 685 662 689 662 691 662 c 0
 705 662 722 651 722 630 c 0
 722 628 723 617 713 608 c 0
 708 603 699 600 696 598 c 2
 180 351 l 1
121 -164 m 2
 110 -164 103 -163 96 -161 c 0
 83 -157 76 -151 76 -136 c 5
 76 -133 l 0
 76 -130 77 -110 97 -104 c 0
 106 -101 116 -101 121 -101 c 2
 677 -101 l 2
 688 -101 694 -102 701 -104 c 0
 712 -108 722 -115 722 -131 c 0
 722 -132 722 -132 722 -133 c 0
 722 -144 719 -155 702 -161 c 0
 693 -164 681 -164 677 -164 c 2
 121 -164 l 2
EndSplineSet
Validated: 1
EndChar

StartChar: triangleleft
Encoding: 8883 8883 82
Width: 818
Flags: W
VStem: 675 64<20 491>
LayerCount: 2
Fore
SplineSet
79 256 m 0
 79 261 79 260 80 263 c 0
 82 270 86 279 95 283 c 2
 695 572 l 2
 697 573 699 574 708 574 c 0
 710 574 717 574 726 568 c 0
 730 565 737 558 739 547 c 1
 739 546 l 1
 739 -35 l 1
 739 -36 l 1
 737 -45 733 -51 726 -57 c 0
 723 -59 717 -63 708 -63 c 0
 701 -63 700 -62 698 -62 c 0
 697 -62 697 -62 695 -61 c 2
 98 227 l 2
 93 229 83 234 80 248 c 0
 79 251 79 253 79 256 c 0
185 256 m 1
 675 20 l 1
 675 491 l 1
 185 256 l 1
EndSplineSet
Validated: 1
EndChar

StartChar: ringinequal
Encoding: 8790 8790 83
Width: 818
Flags: W
HStem: 120 64<49.8121 305 344.789 473.695 513 767.399> 328 64<58.2805 305 344.789 472.872 513 760.717>
VStem: 282 45<200.435 310.707> 490 45<199.308 311.471>
LayerCount: 2
Fore
SplineSet
48 152 m 0
 48 154 48 163 56 172 c 0
 59 175 65 181 76 184 c 1
 78 184 l 1
 305 184 l 1
 290 205 282 230 282 256 c 0
 282 282 290 307 305 328 c 1
 78 328 l 1
 77 328 l 1
 69 330 64 331 58 337 c 0
 48 346 48 357 48 359 c 0
 48 364 48 366 48 367 c 4
 49 369 50 371 51 372 c 0
 56 383 66 389 76 392 c 1
 78 392 l 1
 740 392 l 1
 742 392 l 1
 754 388 769 377 769 359 c 0
 769 357 770 347 761 338 c 0
 755 332 747 329 741 328 c 1
 740 328 l 1
 513 328 l 1
 528 306 535 281 535 256 c 0
 535 230 527 205 513 184 c 1
 740 184 l 1
 742 184 l 1
 751 181 757 178 763 170 c 0
 765 167 769 161 769 152 c 1
 769 152 768 147 768 146 c 0
 768 145 768 143 767 141 c 0
 763 130 753 122 741 120 c 1
 740 120 l 1
 78 120 l 1
 77 120 l 1
 66 123 59 127 53 136 c 0
 50 141 48 146 48 152 c 0
371 184 m 1
 447 184 l 1
 473 197 490 225 490 256 c 0
 490 285 473 314 447 328 c 1
 371 328 l 1
 345 314 327 285 327 256 c 0
 327 226 345 197 371 184 c 1
EndSplineSet
Validated: 1
EndChar

StartChar: sphericalangle
Encoding: 8738 8738 84
Width: 759
Flags: W
VStem: 545 64<112.584 398.395>
LayerCount: 2
Fore
SplineSet
48 256 m 0
 48 261 48 261 49 264 c 0
 50 269 54 275 59 279 c 0
 61 281 63 282 66 283 c 2
 667 573 l 2
 670 574 670 575 675 575 c 2
 675 575 676 575 677 575 c 0
 678 575 678 575 679 575 c 0
 695 575 710 562 710 544 c 0
 710 536 708 532 704 525 c 0
 702 522 699 517 694 515 c 2
 570 456 l 1
 596 392 609 324 609 256 c 0
 609 187 596 119 570 55 c 1
 692 -3 l 2
 703 -9 710 -21 710 -33 c 0
 710 -38 710 -38 709 -41 c 0
 706 -51 697 -60 687 -63 c 0
 684 -64 682 -64 679 -64 c 2
 679 -64 676 -64 675 -64 c 2
 675 -64 673 -64 672 -64 c 0
 671 -64 671 -63 670 -63 c 2
 670 -63 669 -63 667 -62 c 2
 69 227 l 2
 62 230 58 232 54 238 c 0
 49 245 48 252 48 256 c 0
154 256 m 1
 512 84 l 1
 535 138 545 196 545 256 c 0
 545 314 535 373 512 427 c 1
 154 256 l 1
EndSplineSet
Validated: 1
EndChar

StartChar: sim
Encoding: 8764 8764 85
Width: 799
VWidth: 1000
Flags: W
HStem: 118 100<492.05 641.166> 282 100<156.834 305.95>
VStem: 47 54<121.384 226.557> 697 54<273.705 378.617>
LayerCount: 2
Fore
SplineSet
47 162 m 2
 47 175 l 2
 47 276 116 382 228 382 c 0
 370 382 443 218 570 218 c 0
 635 218 696 272 697 339 c 0
 697 352 702 371 714 379 c 0
 716 380 719 382 724 382 c 2
 724 382 730 381 731 381 c 0
 747 375 751 349 751 339 c 2
 751 326 l 2
 751 224 682 118 570 118 c 0
 428 118 355 282 228 282 c 0
 163 282 102 228 101 162 c 0
 101 149 96 129 84 121 c 0
 82 120 79 118 74 118 c 2
 74 118 68 119 67 119 c 0
 51 125 47 151 47 162 c 2
EndSplineSet
Validated: 1
EndChar

StartChar: squaremultiply
Encoding: 8864 8864 86
Width: 818
Flags: W
HStem: -10 64<156 661> 669 64<156 661>
VStem: 48 64<102 621> 705 64<102 621>
LayerCount: 2
Fore
SplineSet
48 703 m 2
 48 707 48 713 55 721 c 0
 60 726 68 731 77 733 c 1
 78 733 l 1
 739 733 l 2
 743 733 749 733 757 726 c 0
 764 720 768 712 769 705 c 1
 769 704 l 1
 769 20 l 2
 769 16 769 8 760 -0 c 0
 756 -4 749 -8 741 -10 c 1
 740 -10 l 1
 79 -10 l 2
 77 -10 69 -10 61 -3 c 0
 54 3 49 11 48 18 c 1
 48 19 l 1
 48 703 l 2
156 54 m 1
 661 54 l 1
 409 316 l 1
 156 54 l 1
112 102 m 1
 364 361 l 1
 112 621 l 1
 112 102 l 1
705 102 m 1
 705 621 l 1
 453 361 l 1
 705 102 l 1
409 407 m 1
 661 669 l 1
 156 669 l 1
 409 407 l 1
EndSplineSet
Validated: 1
EndChar

StartChar: dblarrowheadright
Encoding: 8608 8608 87
Width: 1051
Flags: W
HStem: 223 65<49.7561 685 737.969 878>
LayerCount: 2
Fore
SplineSet
48 256 m 0
 48 274 63 288 81 288 c 2
 685 288 l 1
 647 327 617 372 597 422 c 1
 591 436 l 1
 649 436 l 1
 651 430 l 1
 675 373 715 323 765 288 c 1
 878 288 l 1
 840 327 811 372 791 422 c 1
 785 436 l 1
 843 436 l 1
 845 430 l 1
 874 358 927 299 997 265 c 2
 1016 256 l 1
 997 247 l 1
 927 212 874 153 845 81 c 1
 843 75 l 1
 785 75 l 1
 791 89 l 1
 811 139 840 184 878 223 c 1
 765 223 l 1
 715 188 675 138 651 81 c 1
 649 75 l 1
 591 75 l 1
 597 89 l 1
 617 139 647 184 685 223 c 1
 81 223 l 2
 63 223 48 238 48 256 c 0
EndSplineSet
Validated: 1
EndChar

StartChar: arrowparrrightleft
Encoding: 8644 8644 88
Width: 1051
Flags: W
HStem: -11 21G<207 267> 138 65<173 989.58> 479 65<50.0277 878>
LayerCount: 2
Fore
SplineSet
54 161 m 2
 35 170 l 1
 54 179 l 2
 124 213 178 272 207 345 c 1
 209 351 l 1
 267 351 l 1
 261 337 l 1
 241 287 211 241 173 203 c 1
 972 203 l 2
 974 203 981 203 990 197 c 0
 998 191 1003 181 1003 170 c 0
 1003 153 990 138 972 138 c 2
 173 138 l 1
 211 99 241 54 261 3 c 1
 267 -11 l 1
 209 -11 l 1
 207 -5 l 1
 178 68 124 127 54 161 c 2
48 512 m 0
 48 530 63 544 81 544 c 2
 878 544 l 1
 840 583 811 628 791 678 c 1
 785 692 l 1
 843 692 l 1
 845 686 l 1
 874 614 927 555 997 521 c 2
 1016 512 l 1
 997 503 l 2
 927 469 874 410 845 337 c 1
 843 331 l 1
 785 331 l 1
 791 345 l 1
 811 395 841 441 878 479 c 1
 81 479 l 2
 62 479 48 495 48 512 c 0
EndSplineSet
Validated: 1
EndChar

StartChar: equalsdots
Encoding: 8785 8785 89
Width: 818
Flags: W
HStem: -129 145<357.5 460> 120 64<49.8121 767.399> 328 64<58.2805 760.717> 495 145<357.5 460>
VStem: 336 145<-107.5 -5 516 618.5>
LayerCount: 2
Fore
SplineSet
409 16 m 0
 449 16 481 -16 481 -56 c 0
 481 -96 449 -129 409 -129 c 0
 369 -129 336 -96 336 -56 c 0
 336 -16 369 16 409 16 c 0
48 152 m 0
 48 154 48 163 56 172 c 0
 59 175 65 181 76 184 c 1
 78 184 l 1
 740 184 l 1
 742 184 l 1
 751 181 757 178 763 170 c 0
 765 167 769 161 769 152 c 1
 769 152 768 147 768 146 c 0
 768 145 768 143 767 141 c 0
 763 130 753 122 741 120 c 1
 740 120 l 1
 78 120 l 1
 77 120 l 1
 66 123 59 127 53 136 c 0
 50 141 48 146 48 152 c 0
48 359 m 0
 48 364 48 366 48 367 c 0
 49 369 50 371 51 372 c 0
 56 383 66 389 76 392 c 1
 78 392 l 1
 740 392 l 1
 742 392 l 1
 754 388 769 377 769 359 c 0
 769 357 770 347 761 338 c 0
 755 332 747 329 741 328 c 1
 740 328 l 1
 78 328 l 1
 77 328 l 1
 69 330 64 331 58 337 c 0
 48 346 48 357 48 359 c 0
409 640 m 0
 449 640 481 607 481 567 c 0
 481 527 449 495 409 495 c 0
 369 495 336 527 336 567 c 0
 336 607 369 640 409 640 c 0
EndSplineSet
Validated: 1
EndChar

StartChar: primereverse
Encoding: 8245 8245 90
Width: 285
Flags: W
VStem: 2 262
LayerCount: 2
Fore
SplineSet
8 489 m 2
 5 497 2 506 2 517 c 0
 2 556 37 582 73 582 c 0
 105 582 129 560 137 532 c 2
 264 68 l 1
 264 67 l 1
 263 58 261 51 255 46 c 1
 255 46 252 45 251 44 c 2
 219 33 l 1
 219 33 215 33 214 33 c 0
 207 33 200 36 196 42 c 1
 195 43 l 1
 8 489 l 2
EndSplineSet
Validated: 1
EndChar

StartChar: triangleleftequal
Encoding: 8884 8884 91
Width: 818
Flags: W
HStem: -168 64<80.47 737.259>
VStem: 675 64<124 594>
LayerCount: 2
Fore
SplineSet
79 -136 m 2
 79 -117 94 -106 107 -104 c 1
 108 -104 l 1
 711 -104 l 1
 712 -104 l 1
 726 -107 739 -119 739 -136 c 0
 739 -149 730 -164 712 -168 c 1
 711 -168 l 1
 108 -168 l 1
 107 -168 l 1
 87 -163 80 -151 79 -139 c 1
 79 -136 l 2
79 359 m 0
 79 365 80 368 82 373 c 0
 84 378 88 384 95 387 c 2
 695 676 l 2
 697 677 699 678 708 678 c 0
 710 678 718 678 726 671 c 0
 733 665 738 657 739 650 c 1
 739 649 l 1
 739 69 l 1
 739 68 l 1
 736 59 733 53 726 47 c 0
 721 43 715 40 708 40 c 0
 701 40 700 41 698 41 c 0
 697 41 697 41 695 42 c 2
 98 330 l 2
 93 332 83 337 80 351 c 0
 79 354 79 356 79 359 c 0
185 359 m 1
 675 124 l 1
 675 594 l 1
 185 359 l 1
EndSplineSet
Validated: 1
EndChar

StartChar: greaterlessequal
Encoding: 8923 8923 92
Width: 818
Flags: W
HStem: -435 62<697 715.683> 18 61<697 716.366> 222 64<79.8737 716.126>
LayerCount: 2
Fore
SplineSet
78 -178 m 0
 78 -172 78 -168 81 -163 c 0
 84 -158 89 -154 94 -151 c 0
 95 -150 97 -150 99 -149 c 2
 675 77 l 2
 677 77 678 79 683 79 c 2
 683 79 684 79 685 79 c 0
 705 77 714 65 717 55 c 0
 718 52 718 50 718 47 c 0
 718 46 719 41 715 34 c 0
 713 30 708 22 697 18 c 2
 198 -178 l 1
 697 -373 l 1
 705 -378 711 -381 715 -389 c 0
 717 -393 718 -397 718 -402 c 0
 718 -418 703 -435 685 -435 c 0
 682 -435 681 -435 678 -434 c 0
 677 -434 675 -434 674 -433 c 2
 674 -433 673 -433 672 -432 c 2
 99 -208 l 2
 98 -207 91 -206 85 -199 c 0
 80 -193 78 -186 78 -178 c 0
78 255 m 0
 78 257 78 266 86 274 c 0
 92 281 100 285 107 286 c 1
 108 286 l 1
 688 286 l 1
 689 286 l 1
 698 284 704 281 710 274 c 0
 715 269 718 263 718 255 c 0
 718 237 704 225 689 222 c 1
 688 222 l 1
 108 222 l 1
 107 222 l 1
 92 225 78 237 78 255 c 0
99 492 m 2
 598 688 l 1
 99 884 l 1
 99 884 95 885 94 886 c 0
 89 889 84 893 81 898 c 0
 79 903 78 908 78 913 c 0
 78 918 78 918 79 921 c 0
 83 934 96 945 111 945 c 0
 114 945 118 944 122 943 c 2
 697 718 l 2
 703 715 716 709 718 691 c 1
 718 691 718 690 718 688 c 0
 718 687 719 682 715 675 c 0
 713 671 708 663 697 659 c 2
 121 433 l 2
 119 433 118 431 113 431 c 2
 113 431 112 431 111 431 c 0
 91 433 82 445 79 455 c 0
 78 458 78 460 78 463 c 0
 78 469 78 473 81 478 c 0
 84 483 89 487 94 490 c 0
 95 491 97 491 99 492 c 2
EndSplineSet
Validated: 1
EndChar

StartChar: frown
Encoding: 8994 8994 93
Width: 818
Flags: W
HStem: 334 64<298.07 519.746>
VStem: 48 61<127.235 166.719> 708 61<131.281 166.719>
LayerCount: 2
Fore
SplineSet
53 162 m 0
 120 296 254 398 409 398 c 0
 564 398 697 296 764 162 c 0
 766 158 768 154 769 148 c 1
 769 148 769 146 769 145 c 0
 769 142 769 137 766 131 c 0
 760 120 749 114 737 114 c 0
 731 114 716 115 708 130 c 0
 651 245 539 334 409 334 c 0
 279 334 166 245 109 130 c 0
 101 116 87 114 81 114 c 0
 70 115 60 118 54 127 c 0
 50 132 48 138 48 145 c 0
 48 152 51 157 53 162 c 0
EndSplineSet
Validated: 1
EndChar

StartChar: lless
Encoding: 8810 8810 94
Width: 1027
VWidth: 1000
Flags: W
LayerCount: 2
Fore
SplineSet
144 250 m 1
 644 -27 l 2
 645 -28 651 -31 655 -34 c 0
 666 -43 667 -53 667 -58 c 0
 667 -64 666 -67 664 -72 c 0
 660 -81 652 -86 643 -88 c 0
 642 -88 639 -89 636 -89 c 0
 626 -89 616 -85 612 -82 c 2
 69 219 l 2
 64 222 59 225 54 231 c 0
 48 238 47 246 47 250 c 0
 47 255 48 265 59 274 c 0
 63 277 68 281 72 283 c 2
 613 583 l 2
 623 589 631 590 636 590 c 0
 641 590 640 590 643 589 c 2
 643 589 645 588 646 588 c 0
 656 584 661 577 663 573 c 0
 666 568 667 563 667 559 c 0
 667 551 667 543 655 535 c 0
 653 533 650 531 642 527 c 2
 144 250 l 1
457 250 m 1
 957 -27 l 2
 958 -28 964 -31 968 -34 c 0
 979 -43 980 -53 980 -58 c 0
 980 -64 979 -67 977 -72 c 0
 973 -81 965 -86 956 -88 c 0
 955 -88 952 -89 949 -89 c 0
 939 -89 929 -85 925 -82 c 2
 382 219 l 2
 377 222 372 225 367 231 c 0
 361 238 360 246 360 250 c 0
 360 255 361 265 372 274 c 0
 376 277 381 281 385 283 c 2
 926 583 l 2
 936 589 944 590 949 590 c 0
 954 590 953 590 956 589 c 2
 956 589 958 588 959 588 c 0
 969 584 974 577 976 573 c 0
 979 568 980 563 980 559 c 0
 980 551 980 543 968 535 c 0
 966 533 963 531 955 527 c 2
 457 250 l 1
EndSplineSet
Validated: 1
EndChar

StartChar: intercal
Encoding: 8890 8890 95
Width: 584
Flags: W
HStem: 343 108<59.6055 238 346 523.395>
VStem: 238 108<-217.321 343>
LayerCount: 2
Fore
SplineSet
238 343 m 1
 99 343 l 1
 73 346 52 364 48 394 c 1
 48 401 l 1
 52 428 70 447 99 451 c 1
 484 451 l 1
 513 447 531 428 535 401 c 1
 535 394 l 1
 532 368 514 347 484 343 c 1
 346 343 l 1
 346 -178 l 1
 342 -206 322 -226 295 -228 c 1
 290 -228 l 1
 257 -225 241 -203 238 -178 c 1
 238 343 l 1
EndSplineSet
Validated: 1
EndChar

StartChar: squaresolid
Encoding: 9632 9632 96
Width: 818
Flags: W
HStem: -10 743<55.2366 767.568>
VStem: 48 721<-8.15625 720.626>
LayerCount: 2
Fore
SplineSet
48 703 m 2
 48 707 48 713 55 721 c 0
 60 726 68 731 77 733 c 1
 78 733 l 1
 739 733 l 2
 743 733 749 733 757 726 c 0
 764 720 768 712 769 705 c 1
 769 704 l 1
 769 20 l 2
 769 16 769 8 760 -0 c 0
 756 -4 749 -8 741 -10 c 1
 740 -10 l 1
 79 -10 l 2
 77 -10 69 -10 61 -3 c 0
 54 3 49 11 48 18 c 1
 48 19 l 1
 48 703 l 2
EndSplineSet
Validated: 1
EndChar

StartChar: Leftrightarrow
Encoding: 8660 8660 97
Width: 1027
VWidth: 1000
Flags: W
HStem: 117 63<290 737> 321 63<290 737> 521 20G<319 353 692 705>
LayerCount: 2
Fore
SplineSet
737 384 m 1
 693 441 665 500 663 515 c 0
 663 516 663 517 663 518 c 0
 663 523 663 524 665 528 c 0
 666 530 668 535 674 538 c 0
 681 541 690 541 694 541 c 2
 694 541 698 541 699 541 c 0
 711 541 717 538 723 527 c 0
 725 524 727 519 729 514 c 0
 782 396 872 318 983 273 c 0
 990 270 995 268 999 262 c 2
 999 262 999 261 1000 260 c 0
 1001 257 1002 254 1002 250 c 0
 1002 244 999 235 987 229 c 1
 850 174 776 91 724 -26 c 1
 719 -34 715 -39 701 -40 c 0
 700 -40 698 -40 694 -40 c 2
 694 -40 681 -40 674 -37 c 0
 668 -34 666 -29 665 -27 c 0
 664 -24 663 -21 663 -17 c 0
 663 -15 663 -15 663 -14 c 0
 665 2 694 61 737 117 c 1
 290 117 l 1
 334 60 362 1 364 -14 c 0
 364 -15 364 -16 364 -17 c 0
 364 -22 364 -23 362 -27 c 0
 361 -29 359 -34 353 -37 c 0
 346 -40 337 -40 333 -40 c 2
 333 -40 329 -40 328 -40 c 0
 316 -40 310 -37 304 -26 c 0
 302 -23 300 -18 298 -13 c 0
 245 105 155 183 44 228 c 0
 37 231 32 233 28 239 c 0
 27 241 l 2
 26 244 25 247 25 251 c 0
 25 257 28 266 40 272 c 1
 177 327 251 410 303 527 c 1
 308 535 312 540 326 541 c 0
 327 541 329 541 333 541 c 2
 333 541 346 541 353 538 c 0
 359 535 361 530 362 528 c 0
 363 525 364 522 364 518 c 0
 364 516 364 516 364 515 c 0
 362 499 333 440 290 384 c 1
 737 384 l 1
232 180 m 1
 795 180 l 1
 815 198 845 224 890 251 c 1
 849 275 817 300 795 321 c 1
 232 321 l 1
 212 303 182 277 137 250 c 1
 178 226 210 201 232 180 c 1
EndSplineSet
Validated: 1
EndChar

StartChar: northeastarrow
Encoding: 8599 8599 98
Width: 1027
VWidth: 1000
Flags: W
HStem: 630 50<735.886 861.441>
VStem: 906 50<459.531 585.441>
LayerCount: 2
Fore
SplineSet
107 -213 m 2
 101 -219 100 -220 98 -222 c 0
 89 -229 83 -229 79 -229 c 0
 73 -229 69 -228 63 -225 c 0
 58 -222 54 -218 51 -213 c 0
 49 -209 47 -203 47 -197 c 0
 47 -193 47 -187 54 -178 c 0
 56 -175 60 -172 63 -169 c 2
 862 631 l 1
 856 631 848 630 841 630 c 0
 800 630 712 644 697 670 c 0
 695 673 694 676 694 679 c 0
 694 694 709 706 721 706 c 0
 724 706 723 706 724 706 c 0
 728 705 735 702 745 698 c 0
 781 683 823 680 842 680 c 0
 844 680 893 680 939 698 c 0
 948 702 949 702 952 703 c 0
 954 703 956 704 957 704 c 0
 970 704 980 694 980 681 c 1
 980 681 979 677 979 676 c 0
 978 673 976 669 974 663 c 0
 956 617 956 568 956 566 c 0
 956 563 l 0
 956 550 957 509 976 463 c 0
 981 452 982 450 982 447 c 2
 982 446 l 1
 982 445 l 2
 982 430 967 418 955 418 c 0
 950 418 949 419 946 421 c 0
 924 435 906 515 906 565 c 0
 906 572 907 580 907 586 c 1
 107 -213 l 2
EndSplineSet
Validated: 1
EndChar

StartChar: precedesim
Encoding: 8830 8830 99
Width: 818
Flags: W
HStem: -257 82<506.297 653.759> -79 82<163.664 310.703> 425 64<79.8737 334.384>
VStem: 48 51<-251.621 -145.273> 675 64<148.329 238.756 675.95 765.671> 718 51<-109.619 -2.37935>
LayerCount: 2
Fore
SplineSet
48 -221 m 1xf4
 48 -212 l 2
 48 -108 118 3 233 3 c 0
 380 3 451 -175 584 -175 c 0
 660 -175 718 -109 718 -34 c 2
 718 -33 l 1
 719 -24 721 -10 730 -2 c 0
 732 0 737 3 743 3 c 0
 749 2 750 2 753 0 c 0
 764 -6 768 -22 769 -33 c 1
 769 -42 l 2
 769 -145 700 -257 584 -257 c 0
 437 -257 366 -79 233 -79 c 0
 158 -79 99 -145 99 -220 c 2
 99 -221 l 1
 98 -230 96 -244 87 -252 c 0
 85 -254 80 -257 74 -257 c 1
 74 -257 69 -257 64 -254 c 0
 54 -247 49 -232 48 -221 c 1xf4
78 458 m 0
 78 460 78 469 86 477 c 0
 92 484 100 488 107 489 c 1
 108 489 l 1
 109 489 l 2
 308 489 650 507 675 747 c 1
 679 765 695 776 708 776 c 0
 710 776 721 776 730 766 c 0
 736 759 740 751 739 742 c 0
 722 567 576 492 437 458 c 1
 573 424 722 348 739 173 c 1
 738 163 736 155 730 148 c 0
 721 138 710 138 708 138 c 0
 690 138 678 153 675 168 c 1xf8
 650 407 307 425 109 425 c 2
 108 425 l 1
 107 425 l 1
 92 428 78 440 78 458 c 0
EndSplineSet
Validated: 1
EndChar

StartChar: equaldotrightleft
Encoding: 8787 8787 100
Width: 818
Flags: W
HStem: -124 135<31.0563 130.594> 120 64<49.8121 767.399> 328 64<58.2805 760.717> 500 135<688.139 786.79>
VStem: 14 134<-106.14 -6.75665> 670 135<518.139 616.79>
LayerCount: 2
Fore
SplineSet
81 11 m 0
 118 11 148 -19 148 -56 c 0
 148 -93 118 -124 81 -124 c 0
 43 -124 14 -93 14 -56 c 0
 14 -20 43 11 81 11 c 0
48 152 m 0
 48 154 48 163 56 172 c 0
 59 175 65 181 76 184 c 1
 78 184 l 1
 740 184 l 1
 742 184 l 1
 751 181 757 178 763 170 c 0
 765 167 769 161 769 152 c 1
 769 152 768 147 768 146 c 0
 768 145 768 143 767 141 c 0
 763 130 753 122 741 120 c 1
 740 120 l 1
 78 120 l 1
 77 120 l 1
 66 123 59 127 53 136 c 0
 50 141 48 146 48 152 c 0
48 359 m 0
 48 364 48 366 48 367 c 0
 49 369 50 371 51 372 c 0
 56 383 66 389 76 392 c 1
 78 392 l 1
 740 392 l 1
 742 392 l 1
 754 388 769 377 769 359 c 0
 769 357 770 347 761 338 c 0
 755 332 747 329 741 328 c 1
 740 328 l 1
 78 328 l 1
 77 328 l 1
 69 330 64 331 58 337 c 0
 48 346 48 357 48 359 c 0
737 635 m 0
 774 635 805 604 805 567 c 0
 805 529 773 500 737 500 c 0
 700 500 670 530 670 567 c 0
 670 603 699 635 737 635 c 0
EndSplineSet
Validated: 1
EndChar

StartChar: between
Encoding: 8812 8812 101
Width: 525
Flags: W
VStem: 67 73<105.506 406.494> 385 74<105.506 406.494>
LayerCount: 2
Fore
SplineSet
107 -216 m 0
 148 -193 188 -165 224 -131 c 1
 126 -26 67 112 67 256 c 0
 67 400 126 538 224 643 c 1
 189 676 149 704 107 728 c 0
 99 733 93 743 93 752 c 0
 93 767 106 778 121 778 c 2
 122 778 l 1
 123 778 l 1
 152 773 233 708 263 682 c 1
 290 705 374 773 402 778 c 0
 403 778 405 778 406 778 c 0
 420 778 432 766 432 752 c 0
 432 743 427 733 419 728 c 0
 378 705 338 677 303 643 c 1
 400 538 459 400 459 256 c 0
 459 112 400 -26 303 -131 c 1
 338 -165 377 -192 419 -216 c 0
 427 -221 432 -231 432 -240 c 0
 432 -255 419 -266 404 -266 c 2
 403 -266 l 1
 402 -266 l 1
 373 -261 293 -197 263 -170 c 1
 236 -193 154 -259 125 -265 c 0
 123 -265 122 -266 120 -266 c 0
 106 -266 93 -255 93 -240 c 0
 93 -231 99 -221 107 -216 c 0
263 -87 m 1
 342 9 385 131 385 256 c 0
 385 381 342 503 263 599 c 1
 183 503 140 381 140 256 c 0
 140 131 183 9 263 -87 c 1
EndSplineSet
Validated: 1
EndChar

StartChar: supersetdbl
Encoding: 8913 8913 102
Width: 818
Flags: W
HStem: -63 64<79.8737 514.207> 101 64<79.8591 416 416 476.998> 346 64<79.8737 413 415 476.998> 510 64<79.8737 514.207>
VStem: 511 64<197.902 313.61> 675 64<156.93 354.549>
LayerCount: 2
Fore
SplineSet
78 -32 m 0
 78 -14 92 -2 107 1 c 1
 108 1 l 1
 407 1 l 2
 550 1 675 109 675 256 c 0
 675 402 550 510 407 510 c 2
 108 510 l 1
 107 510 l 1
 92 513 78 525 78 543 c 0
 78 545 78 553 86 562 c 0
 92 569 100 573 107 574 c 1
 108 574 l 1
 411 574 l 2
 587 574 739 435 739 256 c 0
 739 76 587 -63 411 -63 c 2
 108 -63 l 1
 107 -63 l 1
 98 -61 92 -58 86 -51 c 0
 81 -46 78 -40 78 -32 c 0
78 133 m 1
 78 133 77 139 81 146 c 0
 82 148 90 162 107 165 c 1
 108 165 l 1
 411 165 l 2
 416 165 416 164 416 164 c 1
 421 164 l 2
 469 164 511 207 511 256 c 0
 511 304 469 347 421 347 c 2
 416 347 l 1
 415 347 l 1
 413 346 l 1
 108 346 l 1
 107 346 l 1
 92 349 78 361 78 379 c 0
 78 381 78 389 86 398 c 0
 92 405 100 409 107 410 c 1
 108 410 l 1
 406 410 l 1
 407 411 409 411 412 411 c 0
 413 411 413 411 414 411 c 0
 416 411 418 411 420 411 c 0
 506 411 575 341 575 256 c 0
 575 171 506 100 420 100 c 0
 418 100 416 100 414 100 c 0
 409 100 408 101 407 101 c 2
 108 101 l 1
 107 101 l 1
 96 104 89 108 83 117 c 0
 80 122 78 127 78 133 c 1
EndSplineSet
Validated: 1
EndChar

StartChar: rightanglenw
Encoding: 9484 9484 103
Width: 525
Flags: W
HStem: 657 64<112 471.717>
VStem: 48 64<293.755 657>
LayerCount: 2
Fore
SplineSet
48 691 m 2
 48 695 48 701 55 709 c 0
 60 714 68 719 77 721 c 1
 78 721 l 1
 447 721 l 1
 448 721 l 1
 460 718 469 712 474 702 c 0
 476 697 477 693 477 689 c 0
 477 686 476 680 472 673 c 0
 466 664 458 659 448 657 c 1
 447 657 l 1
 112 657 l 1
 112 322 l 1
 112 321 l 1
 110 312 107 306 100 300 c 0
 95 295 89 292 81 292 c 2
 81 292 77 292 76 292 c 0
 73 292 70 294 68 295 c 0
 57 300 51 310 48 320 c 1
 48 322 l 1
 48 691 l 2
EndSplineSet
Validated: 1
EndChar

StartChar: circleasterisk
Encoding: 8859 8859 104
Width: 818
Flags: W
HStem: -105 53<294.611 519.032> 119 77<210.085 224 593 607.126> 315 77<209.874 224 593 606.915> 563 53<294.611 519.032>
VStem: 47 53<145.762 365.73> 368 81<29.3807 143.745 367.255 481.587> 717 53<145.762 365.73>
CounterMasks: 1 0e
LayerCount: 2
Fore
SplineSet
409 616 m 0
 609 616 770 455 770 256 c 0
 770 56 609 -105 409 -105 c 0
 210 -105 47 56 47 256 c 0
 47 455 210 616 409 616 c 0
100 256 m 0
 100 86 239 -52 409 -52 c 0
 578 -52 717 86 717 256 c 0
 717 425 578 563 409 563 c 0
 239 563 100 425 100 256 c 0
204 162 m 0
 204 175 212 189 224 196 c 1
 353 256 l 1
 224 315 l 1
 212 322 204 336 204 349 c 0
 204 368 220 392 245 392 c 0
 249 392 258 391 266 385 c 2
 381 304 l 1
 368 445 l 1
 368 447 l 2
 368 470 388 486 409 486 c 0
 430 486 449 470 449 447 c 2
 449 445 l 1
 436 304 l 1
 551 385 l 2
 559 391 568 392 572 392 c 0
 594 392 613 370 613 349 c 0
 613 336 605 322 593 315 c 1
 464 256 l 1
 593 196 l 1
 605 189 613 175 613 162 c 0
 613 143 597 119 572 119 c 0
 568 119 559 120 551 126 c 2
 436 207 l 1
 449 66 l 1
 449 63 l 2
 449 40 429 25 409 25 c 0
 389 25 368 39 368 63 c 2
 368 66 l 1
 381 207 l 1
 266 126 l 2
 258 120 249 119 245 119 c 0
 223 119 204 141 204 162 c 0
EndSplineSet
Validated: 1
EndChar

StartChar: dblarrowup
Encoding: 8648 8648 105
Width: 876
Flags: W
VStem: 232 63<-196.765 594> 582 64<-196.625 594>
LayerCount: 2
Fore
SplineSet
232 595 m 1
 194 554 147 522 96 502 c 1
 94 501 l 1
 88 501 l 2
 86 501 77 501 70 509 c 0
 68 511 65 516 65 522 c 2
 65 534 l 1
 66 538 66 540 66 541 c 0
 69 549 77 552 80 553 c 0
 152 580 211 636 242 706 c 0
 246 716 254 721 263 721 c 1
 263 721 269 720 270 720 c 0
 277 718 281 712 284 707 c 1
 284 706 l 1
 313 638 369 584 438 557 c 1
 507 584 562 638 593 706 c 0
 596 712 599 716 604 719 c 0
 607 721 610 721 613 721 c 0
 624 721 631 714 635 706 c 0
 666 635 725 581 797 554 c 0
 800 553 807 550 811 541 c 0
 812 538 812 536 812 534 c 2
 812 522 l 2
 812 521 813 516 809 511 c 0
 808 509 801 501 790 501 c 2
 783 501 l 1
 781 502 l 1
 729 522 683 553 646 594 c 1
 646 -179 l 2
 646 -181 646 -189 639 -197 c 0
 629 -209 616 -209 613 -209 c 0
 608 -209 608 -209 605 -208 c 2
 605 -208 603 -207 602 -207 c 0
 595 -204 590 -199 587 -195 c 0
 584 -191 582 -185 582 -179 c 2
 582 594 l 1
 545 553 498 522 446 502 c 1
 444 501 l 1
 432 501 l 1
 430 502 l 1
 379 522 332 553 295 594 c 1
 295 -179 l 2
 295 -181 295 -189 288 -197 c 0
 285 -201 278 -208 266 -209 c 0
 265 -209 264 -209 263 -209 c 0
 260 -209 248 -208 239 -197 c 0
 235 -192 232 -186 232 -179 c 2
 232 595 l 1
EndSplineSet
Validated: 1
EndChar

StartChar: squiggleleftright
Encoding: 8621 8621 106
Width: 1461
Flags: W
HStem: 223 65<173 287 1173 1287>
LayerCount: 2
Fore
SplineSet
54 247 m 1
 35 256 l 1
 54 265 l 2
 124 299 178 358 207 430 c 1
 209 436 l 1
 267 436 l 1
 261 422 l 1
 241 372 211 327 173 288 c 1
 287 288 l 1
 364 363 l 2
 366 365 371 369 378 371 c 0
 381 372 383 372 386 372 c 0
 394 371 400 370 406 365 c 2
 406 365 407 364 408 363 c 2
 558 216 l 1
 708 363 l 2
 711 366 719 372 730 372 c 0
 738 372 744 370 750 365 c 2
 750 365 751 364 752 363 c 2
 902 216 l 1
 1052 363 l 2
 1055 366 1063 372 1074 372 c 0
 1081 372 1085 371 1091 368 c 1
 1091 368 1092 367 1093 366 c 2
 1093 366 1094 366 1095 365 c 2
 1095 365 1096 364 1097 363 c 2
 1173 288 l 1
 1287 288 l 1
 1249 327 1219 372 1199 422 c 1
 1193 436 l 1
 1251 436 l 1
 1253 430 l 1
 1282 358 1336 299 1406 265 c 2
 1425 256 l 1
 1406 247 l 1
 1336 212 1282 153 1253 81 c 1
 1251 75 l 1
 1193 75 l 1
 1199 89 l 1
 1219 139 1249 184 1287 223 c 1
 1159 223 l 2
 1155 223 1149 223 1141 230 c 0
 1140 231 1139 233 1136 236 c 2
 1074 295 l 1
 925 148 l 2
 917 140 907 138 902 138 c 2
 902 138 898 138 894 139 c 0
 888 141 884 144 880 148 c 2
 730 295 l 1
 580 148 l 2
 575 144 572 141 566 139 c 0
 564 138 561 138 558 138 c 0
 557 138 552 138 545 141 c 0
 541 143 539 145 536 148 c 2
 386 295 l 1
 324 236 l 2
 322 234 321 232 319 230 c 0
 315 226 310 223 302 223 c 2
 173 223 l 1
 211 184 241 139 261 89 c 1
 267 75 l 1
 209 75 l 1
 207 81 l 1
 178 153 124 212 54 247 c 1
EndSplineSet
Validated: 1
EndChar

StartChar: followsorcurly
Encoding: 8829 8829 107
Width: 818
Flags: W
HStem: -10 21G<101 113> 113 64<525.168 737.411> 277 64<483.667 737.259>
VStem: 78 64<-3.71801 89.5291 528.211 620.856> 195 64<-170.762 -74.1348>
LayerCount: 2
Fore
SplineSet
195 -140 m 2
 195 -139 l 1
 221 108 507 177 706 177 c 0
 723 177 739 164 739 145 c 0
 739 128 726 116 712 113 c 1
 711 113 l 1
 710 113 l 2
 534 113 280 58 259 -145 c 1
 256 -156 250 -166 240 -171 c 0
 236 -173 232 -174 227 -174 c 0
 206 -174 195 -156 195 -140 c 2
78 25 m 1
 95 200 243 275 381 309 c 1
 243 343 95 418 78 594 c 1
 78 611 91 627 111 627 c 1
 111 627 120 627 129 621 c 0
 133 618 140 610 142 599 c 0
 167 360 511 341 710 341 c 2
 711 341 l 1
 712 341 l 1
 730 337 739 322 739 309 c 0
 739 292 726 280 712 277 c 1
 711 277 l 1
 710 277 l 2
 511 277 167 257 142 19 c 0
 140 9 136 2 129 -4 c 0
 122 -10 115 -10 111 -10 c 0
 91 -10 78 8 78 25 c 1
EndSplineSet
Validated: 1
EndChar

StartChar: arrowtripleright
Encoding: 8667 8667 108
Width: 1051
Flags: W
HStem: 16 64<49.8591 648> 223 65<49.7561 835> 431 64<49.8737 648>
CounterMasks: 1 e0
LayerCount: 2
Fore
SplineSet
48 48 m 0
 48 49 47 54 51 61 c 0
 52 63 60 77 77 80 c 1
 78 80 l 1
 691 80 l 1
 732 134 781 182 835 223 c 1
 81 223 l 2
 63 223 48 238 48 256 c 0
 48 274 63 288 81 288 c 2
 835 288 l 1
 781 329 732 377 691 431 c 1
 78 431 l 1
 77 431 l 1
 62 434 48 446 48 464 c 0
 48 466 48 474 56 483 c 0
 62 490 70 494 77 495 c 1
 78 495 l 1
 648 495 l 1
 623 538 601 584 585 631 c 1
 580 644 l 1
 654 644 l 1
 656 637 l 1
 712 478 828 345 977 265 c 1
 993 256 l 1
 977 247 l 1
 828 166 712 33 656 -126 c 1
 654 -133 l 1
 580 -133 l 1
 585 -120 l 1
 601 -73 623 -27 648 16 c 1
 78 16 l 1
 77 16 l 1
 66 19 59 23 53 32 c 0
 50 37 48 42 48 48 c 0
EndSplineSet
Validated: 1
EndChar

StartChar: intersectiondbl
Encoding: 8915 8915 109
Width: 701
Flags: W
HStem: 397 64<294.224 405.776> 560 64<229.073 471.367>
VStem: 48 64<-30.9208 464.443> 212 64<-30.9208 377.201> 424 64<-30.9208 377.201> 588 64<-30.9208 464.954>
LayerCount: 2
Fore
SplineSet
48 397 m 2
 48 556 221 624 350 624 c 0
 480 624 652 556 652 397 c 2
 652 -4 l 1
 652 -5 l 1
 649 -14 646 -20 639 -26 c 0
 634 -30 628 -33 621 -33 c 0
 608 -33 592 -23 588 -5 c 1
 588 -4 l 1
 588 393 l 2
 588 510 455 560 350 560 c 0
 246 560 112 510 112 393 c 2
 112 -4 l 1
 112 -5 l 1
 109 -14 106 -20 99 -26 c 0
 94 -30 88 -33 81 -33 c 0
 68 -33 52 -23 48 -5 c 1
 48 -4 l 1
 48 397 l 2
212 338 m 2
 212 413 284 461 350 461 c 0
 416 461 488 413 488 338 c 2
 488 -4 l 1
 488 -5 l 1
 485 -14 482 -20 475 -26 c 0
 470 -30 464 -33 457 -33 c 0
 444 -33 428 -23 424 -5 c 1
 424 -4 l 1
 424 334 l 2
 424 372 388 397 350 397 c 0
 312 397 276 372 276 334 c 2
 276 -4 l 1
 276 -5 l 1
 273 -14 270 -20 263 -26 c 0
 258 -30 252 -33 245 -33 c 0
 232 -33 216 -23 212 -5 c 1
 212 -4 l 1
 212 338 l 2
EndSplineSet
Validated: 1
EndChar

StartChar: circleR
Encoding: 174 174 110
Width: 984
Flags: W
HStem: -191 64<362.535 621.373> -24 49<678.93 736.729> -10 52<211 283.59 380.386 452> 245 50<380 524.789> 497 52<211 283.59 380.099 551.986> 688 64<362.535 621.373>
VStem: 20 64<151.341 410.373> 284 96<44.7949 245 295 494.205> 583 112<330.524 463.288> 744 52<29.4364 94.9487> 899 64<151.341 410.373>
LayerCount: 2
Fore
SplineSet
492 752 m 0x9fe0
 752 752 963 541 963 281 c 0
 963 21 752 -191 492 -191 c 0
 232 -191 20 21 20 281 c 0
 20 541 232 752 492 752 c 0x9fe0
84 281 m 0
 84 57 269 -127 492 -127 c 0
 715 -127 899 57 899 281 c 0
 899 504 715 688 492 688 c 0
 269 688 84 504 84 281 c 0
211 -10 m 1xbfe0
 211 42 l 1
 221 42 l 2xbfe0
 269 42 284 47 284 70 c 2
 284 469 l 2
 284 492 269 497 221 497 c 2
 211 497 l 1
 211 549 l 1
 469 549 l 2
 550 549 695 507 695 396 c 0
 695 329 637 286 583 265 c 1
 616 245 643 214 650 173 c 1
 666 93 l 2
 672 58 679 25 708 25 c 0
 731 25 744 52 744 78 c 0
 744 88 753 100 766 100 c 2
 775 100 l 2
 776 100 782 100 788 95 c 0
 789 94 796 87 796 76 c 0
 796 28 762 -24 708 -24 c 0xdfe0
 634 -24 552 7 552 97 c 2
 552 166 l 2
 552 211 512 245 468 245 c 2
 380 245 l 1
 380 70 l 2
 380 47 394 42 442 42 c 2
 452 42 l 1
 452 -10 l 1
 442 -10 l 2
 404 -10 368 -7 332 -7 c 0
 296 -7 259 -10 221 -10 c 2
 211 -10 l 1xbfe0
380 295 m 1
 457 295 l 2
 538 295 583 315 583 396 c 0
 583 477 537 497 457 497 c 2
 406 497 l 2
 397 497 391 496 388 495 c 0
 385 494 383 494 382 489 c 0
 381 485 380 480 380 469 c 2
 380 295 l 1
EndSplineSet
Validated: 1
EndChar

StartChar: fork
Encoding: 8916 8916 111
Width: 701
Flags: W
HStem: 487 65<214.393 319 383 486.535>
VStem: 48 64<-30.9208 407.252> 319 64<-31.4502 487 552 764.141> 588 64<-30.9208 407.19>
LayerCount: 2
Fore
SplineSet
48 348 m 2
 48 486 206 549 319 552 c 1
 319 736 l 1
 319 737 l 1
 322 748 326 755 335 761 c 0
 340 764 345 766 351 766 c 1
 351 766 357 767 364 763 c 0
 366 762 380 754 383 737 c 1
 383 736 l 1
 383 552 l 1
 495 548 652 486 652 348 c 2
 652 -4 l 1
 652 -5 l 1
 649 -14 646 -20 639 -26 c 0
 634 -30 628 -33 621 -33 c 0
 608 -33 592 -23 588 -5 c 1
 588 -4 l 1
 588 344 l 2
 588 440 471 484 383 487 c 1
 383 -4 l 1
 383 -5 l 1
 380 -16 374 -25 364 -30 c 0
 360 -32 356 -33 351 -33 c 2
 351 -33 346 -32 345 -32 c 0
 344 -32 342 -32 340 -31 c 0
 329 -27 321 -17 319 -5 c 1
 319 -4 l 1
 319 487 l 1
 230 484 112 441 112 344 c 2
 112 -4 l 1
 112 -5 l 1
 109 -14 106 -20 99 -26 c 0
 94 -30 88 -33 81 -33 c 0
 68 -33 52 -23 48 -5 c 1
 48 -4 l 1
 48 348 l 2
EndSplineSet
Validated: 1
EndChar

StartChar: doublebarwedge
Encoding: 8966 8966 112
Width: 643
Flags: W
HStem: 576 64<49.8591 592.45> 784 64<49.8591 592.45>
LayerCount: 2
Fore
SplineSet
52 -67 m 2
 294 415 l 2
 295 416 296 421 303 425 c 0
 309 429 316 431 322 431 c 0
 327 431 327 431 330 430 c 0
 332 429 344 426 351 413 c 2
 592 -70 l 1
 592 -71 l 1
 593 -75 594 -79 594 -82 c 0
 592 -110 570 -114 565 -114 c 0
 564 -114 563 -114 562 -114 c 0
 557 -114 555 -113 551 -112 c 0
 548 -111 545 -109 542 -107 c 0
 538 -103 535 -99 533 -94 c 2
 322 328 l 1
 108 -97 l 2
 106 -101 103 -108 91 -112 c 0
 88 -113 84 -114 81 -114 c 0
 53 -112 49 -91 48 -85 c 1
 48 -82 l 2
 48 -78 48 -78 49 -75 c 0
 50 -72 51 -70 52 -67 c 2
48 608 m 0
 48 609 47 614 51 621 c 0
 52 623 60 637 77 640 c 1
 78 640 l 1
 565 640 l 1
 566 640 l 1
 577 637 586 631 591 621 c 0
 593 617 594 613 594 608 c 2
 594 608 593 603 593 602 c 0
 593 601 593 599 592 597 c 0
 588 586 578 578 566 576 c 1
 565 576 l 1
 78 576 l 1
 77 576 l 1
 66 579 59 583 53 592 c 0
 50 597 48 602 48 608 c 0
48 816 m 0
 48 817 47 822 51 829 c 0
 52 831 60 845 77 848 c 1
 78 848 l 1
 565 848 l 1
 566 848 l 1
 577 845 586 839 591 829 c 0
 593 825 594 821 594 816 c 2
 594 816 593 811 593 810 c 0
 593 809 593 807 592 805 c 0
 588 794 578 786 566 784 c 1
 565 784 l 1
 78 784 l 1
 77 784 l 1
 66 787 59 791 53 800 c 0
 50 805 48 810 48 816 c 0
EndSplineSet
Validated: 1
EndChar

StartChar: curlyprecede
Encoding: 8926 8926 113
Width: 818
Flags: W
HStem: -10 21G<699.5 709> 277 64<79.8591 334.384> 441 64<79.3627 293.01>
VStem: 558 64<692.135 789.156> 675 64<0.328861 89.5291 528.211 616.717>
LayerCount: 2
Fore
SplineSet
78 309 m 0
 78 310 77 315 81 322 c 0
 82 324 90 338 107 341 c 1
 108 341 l 1
 109 341 l 2
 307 341 650 360 675 599 c 1
 678 613 691 627 708 627 c 0
 710 627 721 627 730 617 c 0
 736 611 740 603 739 594 c 0
 722 418 574 343 436 309 c 1
 574 275 722 200 739 25 c 1
 738 15 736 7 730 0 c 0
 721 -10 710 -10 708 -10 c 0
 691 -10 678 4 675 19 c 1
 650 257 307 277 109 277 c 2
 108 277 l 1
 107 277 l 1
 96 280 89 284 83 293 c 0
 80 298 78 303 78 309 c 0
107 505 m 1
 108 505 l 1
 109 505 l 2
 283 505 537 560 558 763 c 1
 562 781 577 791 590 791 c 0
 609 791 622 776 622 758 c 2
 622 757 l 1
 596 510 311 441 113 441 c 0
 101 441 91 446 84 455 c 0
 82 458 80 460 79 464 c 0
 78 467 78 470 78 473 c 0
 78 474 77 479 81 486 c 0
 82 488 90 502 107 505 c 1
EndSplineSet
Validated: 1
EndChar

StartChar: curlyfollow
Encoding: 8927 8927 114
Width: 818
Flags: W
HStem: -10 21G<101 113> 277 64<483.667 737.259> 441 64<525.168 737.244>
VStem: 78 64<-3.71801 89.5291 528.211 620.856> 195 64<692.135 789.244>
LayerCount: 2
Fore
SplineSet
78 25 m 1
 95 200 243 275 381 309 c 1
 243 343 95 418 78 594 c 1
 78 611 91 627 111 627 c 1
 111 627 120 627 129 621 c 0
 133 618 140 610 142 599 c 0
 167 360 511 341 710 341 c 2
 711 341 l 1
 712 341 l 1
 730 337 739 322 739 309 c 0
 739 292 726 280 712 277 c 1
 711 277 l 1
 710 277 l 2
 511 277 167 257 142 19 c 0
 140 9 136 2 129 -4 c 0
 122 -10 115 -10 111 -10 c 0
 91 -10 78 8 78 25 c 1
227 791 m 0
 244 791 256 777 259 763 c 1
 280 560 534 505 710 505 c 2
 711 505 l 1
 712 505 l 1
 730 501 739 486 739 473 c 0
 739 454 724 441 706 441 c 0
 507 441 221 510 195 757 c 1
 195 758 l 2
 195 776 208 791 227 791 c 0
EndSplineSet
Validated: 1
EndChar

StartChar: precedecurly
Encoding: 8828 8828 115
Width: 818
Flags: W
HStem: -10 21G<699.5 709> 113 64<81.2863 293.01> 277 64<79.8591 334.384>
VStem: 558 64<-172.506 -74.1348> 675 64<0.328861 89.5291 528.211 616.717>
LayerCount: 2
Fore
SplineSet
78 145 m 0
 78 148 78 152 81 158 c 0
 87 170 100 177 113 177 c 0
 311 177 596 108 622 -139 c 1
 622 -140 l 2
 622 -156 610 -174 590 -174 c 1
 590 -174 585 -173 584 -173 c 0
 583 -173 581 -173 579 -172 c 0
 568 -168 560 -157 558 -145 c 0
 537 58 283 113 109 113 c 2
 108 113 l 1
 107 113 l 1
 96 116 89 120 83 129 c 0
 80 134 78 139 78 145 c 0
78 309 m 0
 78 310 77 315 81 322 c 0
 82 324 90 338 107 341 c 1
 108 341 l 1
 109 341 l 2
 307 341 650 360 675 599 c 1
 678 613 691 627 708 627 c 0
 710 627 721 627 730 617 c 0
 736 611 740 603 739 594 c 0
 722 418 574 343 436 309 c 1
 574 275 722 200 739 25 c 1
 738 15 736 7 730 0 c 0
 721 -10 710 -10 708 -10 c 0
 691 -10 678 4 675 19 c 1
 650 257 307 277 109 277 c 2
 108 277 l 1
 107 277 l 1
 96 280 89 284 83 293 c 0
 80 298 78 303 78 309 c 0
EndSplineSet
Validated: 1
EndChar

StartChar: eqless
Encoding: 8924 8924 116
Width: 799
VWidth: 1000
Flags: W
HStem: -164 64<696 720.175> 602 57<76.3471 721.142>
LayerCount: 2
Fore
SplineSet
722 -132 m 0
 720 -159 700 -163 693 -164 c 0
 692 -164 692 -164 691 -164 c 0
 687 -164 684 -164 680 -162 c 0
 678 -161 674 -160 669 -157 c 2
 102 115 l 2
 98 117 90 120 84 126 c 0
 76 134 76 142 76 144 c 0
 76 145 76 146 76 148 c 0
 76 155 77 164 89 172 c 0
 93 174 98 177 100 178 c 2
 667 451 l 2
 668 452 675 455 680 457 c 0
 685 459 689 459 690 459 c 0
 717 457 721 437 722 430 c 1
 722 428 l 2
 722 423 722 411 710 403 c 0
 706 400 702 399 698 397 c 2
 180 147 l 1
 696 -100 l 2
 699 -102 708 -105 713 -110 c 0
 719 -116 723 -123 722 -132 c 0
722 631 m 1
 722 628 721 608 701 602 c 0
 692 599 682 599 677 599 c 2
 121 599 l 2
 110 599 104 600 97 602 c 0
 86 606 76 613 76 629 c 0
 76 630 76 630 76 631 c 0
 76 642 79 653 96 659 c 0
 105 662 117 662 121 662 c 2
 677 662 l 2
 688 662 695 661 702 659 c 0
 715 655 722 646 722 631 c 1
EndSplineSet
Validated: 1
EndChar

StartChar: staroperator
Encoding: 8902 8902 117
Width: 625
VWidth: 1000
Flags: W
HStem: 523 20G<308 316>
LayerCount: 2
Fore
SplineSet
143 58 m 2
 143 61 l 1
 198 229 l 1
 56 333 l 2
 51 336 49 341 49 347 c 0
 49 355 56 364 66 364 c 2
 242 364 l 1
 297 530 l 2
 299 536 303 543 313 543 c 0
 319 543 325 538 328 533 c 1
 383 364 l 1
 559 364 l 2
 567 364 576 357 576 347 c 0
 576 339 572 335 569 333 c 2
 427 229 l 1
 482 61 l 1
 482 58 l 2
 482 50 476 40 465 40 c 0
 459 40 457 42 455 43 c 2
 313 146 l 1
 170 43 l 1
 169 43 l 1
 169 43 168 42 167 42 c 0
 165 41 163 40 160 40 c 0
 150 40 143 47 143 58 c 2
EndSplineSet
Validated: 1
EndChar

StartChar: maltesecross
Encoding: 10016 10016 118
Width: 876
Flags: W
HStem: 334 43<299.265 416 460 576.928>
VStem: 416 44<210.924 334 377 500.076>
LayerCount: 2
Fore
SplineSet
50 133 m 2
 50 578 l 2
 50 579 50 585 55 591 c 0
 59 596 65 598 70 599 c 1
 71 599 l 1
 72 599 l 1
 72 599 78 598 79 598 c 0
 83 596 87 592 88 591 c 2
 89 590 l 1
 90 589 l 1
 160 456 265 380 416 377 c 1
 413 529 338 633 205 704 c 1
 204 705 l 1
 203 706 l 2
 199 710 196 714 195 720 c 1
 195 721 l 1
 195 722 l 1
 196 727 196 728 196 729 c 0
 197 732 201 739 209 742 c 0
 212 743 214 743 216 743 c 2
 659 743 l 2
 672 743 680 733 681 724 c 1
 681 723 l 1
 681 722 l 1
 681 722 680 716 680 715 c 0
 678 711 674 707 673 706 c 2
 672 705 l 1
 671 704 l 1
 538 633 463 529 460 377 c 1
 612 380 716 456 787 589 c 1
 788 590 l 1
 789 591 l 2
 793 595 793 594 794 595 c 0
 795 596 795 595 796 596 c 0
 798 597 800 598 803 599 c 1
 804 599 l 1
 805 599 l 1
 805 599 811 598 812 598 c 0
 815 597 822 593 825 585 c 0
 826 582 826 580 826 578 c 2
 826 133 l 2
 826 132 826 128 823 123 c 0
 822 122 817 114 807 112 c 1
 806 112 l 1
 805 112 l 2
 803 112 797 112 791 118 c 0
 789 120 788 120 787 122 c 0
 717 255 611 331 460 334 c 1
 463 182 538 78 671 7 c 1
 672 6 l 1
 673 5 l 2
 677 1 680 -3 681 -9 c 1
 681 -10 l 1
 681 -11 l 1
 681 -11 680 -17 680 -18 c 0
 677 -25 671 -30 666 -32 c 0
 664 -33 661 -33 659 -33 c 2
 216 -33 l 1
 213 -32 206 -32 200 -25 c 0
 198 -22 196 -18 195 -13 c 1
 195 -12 l 1
 195 -11 l 1
 196 -8 196 -5 196 -4 c 0
 198 0 202 4 203 5 c 2
 204 6 l 1
 205 7 l 1
 338 78 413 182 416 334 c 1
 264 331 160 256 90 122 c 1
 89 120 l 1
 87 119 l 2
 84 117 84 117 83 116 c 0
 80 114 77 113 74 112 c 1
 73 112 l 1
 72 112 l 1
 65 113 56 114 51 126 c 0
 50 129 50 131 50 133 c 2
EndSplineSet
Validated: 1
EndChar

StartChar: lessdot
Encoding: 8918 8918 119
Width: 799
VWidth: 1000
Flags: W
HStem: 173 153<490.75 597.446>
VStem: 468 153<196.691 302.446>
LayerCount: 2
Fore
SplineSet
76 250 m 0
 76 253 76 259 80 265 c 0
 84 272 91 276 96 279 c 2
 679 559 l 2
 682 560 682 561 687 561 c 2
 687 561 688 561 689 561 c 0
 690 561 690 561 691 561 c 0
 696 561 696 561 699 560 c 0
 709 557 718 548 721 538 c 0
 722 535 722 533 722 530 c 0
 722 516 713 505 703 501 c 2
 180 250 l 1
 706 -3 l 2
 707 -4 713 -5 717 -12 c 0
 721 -18 722 -25 722 -30 c 0
 722 -39 719 -53 702 -60 c 0
 699 -61 695 -62 691 -62 c 2
 691 -62 687 -62 686 -62 c 0
 682 -62 679 -59 677 -58 c 2
 93 222 l 2
 91 223 82 226 78 237 c 0
 76 241 76 246 76 250 c 0
545 326 m 0
 587 326 621 292 621 250 c 0
 621 208 587 173 545 173 c 0
 503 173 468 207 468 250 c 0
 468 292 503 326 545 326 c 0
EndSplineSet
Validated: 1
EndChar

StartChar: greaterdot
Encoding: 8919 8919 120
Width: 799
VWidth: 1000
Flags: W
HStem: -63 61<77.4106 96> 173 153<199.75 306.446>
VStem: 177 153<196.691 302.446>
LayerCount: 2
Fore
SplineSet
96 -2 m 2
 618 249 l 1
 93 501 l 2
 91 502 82 505 78 516 c 0
 76 520 76 525 76 529 c 0
 76 531 76 535 78 540 c 0
 83 552 94 560 108 560 c 0
 111 560 115 559 119 558 c 1
 120 558 l 1
 706 276 l 2
 707 275 713 274 717 267 c 0
 721 261 722 254 722 249 c 0
 722 235 713 224 703 220 c 2
 121 -60 l 2
 116 -63 110 -63 108 -63 c 0
 90 -63 76 -49 76 -31 c 0
 76 -28 76 -22 80 -16 c 0
 84 -9 91 -5 96 -2 c 2
254 326 m 0
 296 326 330 292 330 250 c 0
 330 208 296 173 254 173 c 0
 212 173 177 207 177 250 c 0
 177 292 212 326 254 326 c 0
EndSplineSet
Validated: 1
EndChar

StartChar: dividemultiply
Encoding: 8903 8903 121
Width: 799
VWidth: 1000
Flags: W
HStem: -63 176<342.085 456.345> -10 21G<164 176.5 616 628> 218 63<53.2366 323 475 749.491> 386 176<342.085 456.345>
VStem: 312 175<-32.3451 82.3451 416.655 531.345>
LayerCount: 2
Fore
SplineSet
399 113 m 0xb8
 447 113 487 73 487 25 c 0
 487 -23 447 -63 399 -63 c 0
 351 -63 312 -23 312 25 c 0
 312 73 351 113 399 113 c 0xb8
150 44 m 2
 323 218 l 1
 76 218 l 1
 75 218 l 1
 62 220 47 231 47 250 c 1
 47 250 46 260 53 268 c 0
 58 275 66 279 75 281 c 1
 76 281 l 1
 323 281 l 1
 150 455 l 2
 147 458 143 462 141 473 c 0
 141 474 141 476 141 478 c 0
 141 480 141 484 143 489 c 0
 148 501 159 509 173 509 c 0
 181 509 187 507 193 502 c 2
 193 502 194 501 195 500 c 2
 399 294 l 1
 603 500 l 2
 607 503 606 503 609 505 c 2
 609 505 610 505 611 506 c 0
 616 508 621 509 626 509 c 0
 631 509 631 509 634 508 c 0
 644 505 653 496 656 486 c 0
 657 483 657 481 657 478 c 2
 657 478 657 474 657 473 c 0
 656 463 650 458 648 456 c 2
 475 281 l 1
 723 281 l 1
 724 281 l 1
 733 279 739 275 745 268 c 0
 747 265 751 259 751 250 c 0
 751 233 738 221 724 218 c 1
 723 218 l 1
 475 218 l 1
 648 44 l 2
 651 41 657 33 657 22 c 0
 657 13 654 -1 637 -8 c 0
 634 -9 630 -10 626 -10 c 2
 626 -10 622 -10 621 -10 c 0
 611 -9 606 -3 604 -1 c 2
 399 205 l 1
 195 0 l 1
 189 -8 180 -10 173 -10 c 0x78
 155 -10 141 4 141 22 c 0
 141 30 143 36 148 42 c 2
 148 42 149 43 150 44 c 2
399 562 m 0
 447 562 487 522 487 474 c 0
 487 426 447 386 399 386 c 0
 351 386 312 426 312 474 c 0
 312 522 351 562 399 562 c 0
EndSplineSet
Validated: 1
EndChar

StartChar: lessdbleqlgreater
Encoding: 10891 10891 122
Width: 818
Flags: W
HStem: -22 20G<102 113> 142 64<79.8737 732.856> 349 64<83.2827 737.259>
LayerCount: 2
Fore
SplineSet
99 -455 m 2
 616 -259 l 1
 98 -64 l 2
 95 -63 83 -58 79 -43 c 1
 79 -43 78 -40 78 -39 c 0
 78 -38 78 -40 78 -37 c 2
 78 -35 l 2
 78 -19 93 -2 111 -2 c 0
 115 -2 119 -4 122 -5 c 2
 720 -230 l 2
 722 -231 728 -232 734 -241 c 0
 737 -246 739 -253 739 -259 c 0
 739 -268 737 -273 732 -280 c 0
 729 -284 725 -287 720 -289 c 2
 121 -514 l 2
 119 -514 118 -516 113 -516 c 2
 113 -516 112 -516 111 -516 c 0
 91 -514 82 -502 79 -492 c 0
 78 -489 78 -487 78 -484 c 0
 78 -478 78 -474 81 -469 c 0
 84 -464 89 -460 94 -457 c 0
 95 -456 97 -456 99 -455 c 2
78 173 m 0
 78 191 92 203 107 206 c 1
 108 206 l 1
 711 206 l 1
 712 206 l 1
 726 203 739 190 739 173 c 1
 739 173 739 164 733 155 c 0
 730 151 723 144 712 142 c 1
 711 142 l 1
 108 142 l 1
 107 142 l 1
 98 144 92 147 86 154 c 0
 81 159 78 165 78 173 c 0
78 381 m 0
 78 384 79 390 83 397 c 0
 89 406 97 411 107 413 c 1
 108 413 l 1
 711 413 l 1
 712 413 l 1
 726 410 739 398 739 381 c 0
 739 368 730 353 712 349 c 1
 711 349 l 1
 108 349 l 1
 107 349 l 1
 95 352 86 358 81 368 c 0
 79 373 78 377 78 381 c 0
78 814 m 0
 78 823 80 828 85 835 c 0
 88 839 94 842 99 844 c 2
 696 1069 l 2
 699 1070 699 1071 704 1071 c 2
 704 1071 705 1071 706 1071 c 0
 707 1071 707 1071 708 1071 c 0
 709 1071 714 1071 721 1067 c 0
 731 1062 738 1053 739 1042 c 1
 739 1042 739 1041 739 1039 c 0
 739 1032 738 1027 734 1021 c 0
 731 1016 726 1012 720 1010 c 2
 201 814 l 1
 720 619 l 1
 731 613 739 602 739 590 c 0
 739 584 737 568 721 560 c 0
 717 558 713 557 708 557 c 0
 705 557 700 558 695 560 c 2
 99 785 l 1
 99 785 95 786 94 787 c 0
 89 790 84 794 81 799 c 0
 79 804 78 809 78 814 c 0
EndSplineSet
Validated: 1
EndChar

StartChar: greaterdbleqlless
Encoding: 10892 10892 123
Width: 818
Flags: W
HStem: -22 20G<701.5 708.5> 142 64<79.8737 732.856> 349 64<83.2827 737.259> 1010 62<80.3174 98>
LayerCount: 2
Fore
SplineSet
78 -259 m 0
 78 -253 78 -249 81 -244 c 0
 84 -239 89 -235 94 -232 c 0
 95 -231 97 -231 99 -230 c 2
 696 -4 l 2
 699 -3 699 -2 704 -2 c 2
 704 -2 705 -2 706 -2 c 0
 707 -2 707 -2 708 -2 c 0
 709 -2 714 -2 721 -6 c 0
 731 -11 738 -20 739 -31 c 1
 739 -31 739 -32 739 -34 c 0
 739 -41 738 -46 734 -52 c 0
 731 -57 726 -61 720 -63 c 2
 201 -259 l 1
 720 -454 l 1
 731 -460 739 -471 739 -483 c 0
 739 -489 737 -505 721 -513 c 0
 717 -515 713 -516 708 -516 c 0
 705 -516 700 -515 695 -513 c 2
 99 -289 l 2
 98 -288 91 -287 85 -280 c 0
 80 -274 78 -267 78 -259 c 0
78 173 m 0
 78 191 92 203 107 206 c 1
 108 206 l 1
 711 206 l 1
 712 206 l 1
 726 203 739 190 739 173 c 1
 739 173 739 164 733 155 c 0
 730 151 723 144 712 142 c 1
 711 142 l 1
 108 142 l 1
 107 142 l 1
 98 144 92 147 86 154 c 0
 81 159 78 165 78 173 c 0
78 381 m 0
 78 384 79 390 83 397 c 0
 89 406 97 411 107 413 c 1
 108 413 l 1
 711 413 l 1
 712 413 l 1
 726 410 739 398 739 381 c 0
 739 368 730 353 712 349 c 1
 711 349 l 1
 108 349 l 1
 107 349 l 1
 95 352 86 358 81 368 c 0
 79 373 78 377 78 381 c 0
78 1032 m 5
 78 1033 78 1034 78 1037 c 2
 78 1039 l 2
 78 1055 93 1072 111 1072 c 0
 115 1072 119 1070 122 1069 c 2
 720 845 l 2
 721 844 727 843 732 836 c 0
 737 830 739 823 739 815 c 0
 739 808 738 803 734 797 c 0
 731 792 726 788 720 786 c 2
 121 560 l 2
 119 560 118 558 113 558 c 2
 113 558 112 558 111 558 c 0
 91 560 82 572 79 582 c 0
 78 585 78 587 78 590 c 0
 78 596 78 600 81 605 c 0
 84 610 89 614 94 617 c 0
 95 618 97 618 99 619 c 2
 616 815 l 1
 98 1010 l 6
 95 1011 78 1016 78 1032 c 5
EndSplineSet
Validated: 1
EndChar

StartChar: lessorapproxeql
Encoding: 10885 10885 124
Width: 818
Flags: W
HStem: -329 81<499.521 663.096> -183 81<153.904 317.479> -81 82<499.521 663.096> 66 81<153.904 317.479>
VStem: 48 51<-325.711 -233.865 -75.6207 15.1352> 718 51<-196.782 -105.286 51.2184 143.714>
LayerCount: 2
Fore
SplineSet
48 -294 m 1
 48 -285 l 2
 48 -181 132 -102 233 -102 c 0
 373 -102 455 -248 584 -248 c 0
 648 -248 718 -205 718 -138 c 2
 718 -137 l 1
 720 -124 723 -111 733 -105 c 0
 737 -103 740 -102 743 -102 c 2
 743 -102 749 -103 750 -103 c 0
 756 -105 766 -113 769 -137 c 1
 769 -146 l 2
 769 -249 685 -329 584 -329 c 0
 444 -329 362 -183 233 -183 c 0
 169 -183 99 -226 99 -293 c 2
 99 -294 l 1
 98 -304 95 -320 85 -326 c 0
 81 -328 77 -329 74 -329 c 0
 68 -328 67 -328 64 -326 c 0
 54 -320 49 -304 48 -294 c 1
48 -45 m 1
 48 -36 l 2
 48 68 132 147 233 147 c 0
 373 147 455 1 584 1 c 0
 648 1 718 44 718 111 c 2
 718 112 l 1
 720 125 723 138 733 144 c 0
 737 146 740 147 743 147 c 2
 743 147 749 146 750 146 c 0
 756 144 766 136 769 112 c 1
 769 102 l 2
 769 -1 685 -81 584 -81 c 0
 444 -81 362 66 233 66 c 0
 169 66 99 23 99 -44 c 2
 99 -45 l 1
 98 -54 96 -68 87 -76 c 0
 85 -78 80 -81 74 -81 c 1
 74 -81 69 -81 64 -78 c 0
 54 -71 49 -56 48 -45 c 1
78 526 m 0
 78 538 85 550 98 556 c 2
 695 811 l 2
 697 812 699 813 708 813 c 1
 708 813 714 813 721 809 c 0
 731 804 738 795 739 784 c 1
 739 784 739 783 739 781 c 0
 739 774 738 769 734 763 c 0
 731 758 726 754 720 752 c 2
 191 526 l 1
 720 301 l 2
 731 296 739 283 739 271 c 0
 739 262 736 248 719 241 c 0
 716 240 712 239 708 239 c 0
 706 239 703 239 700 240 c 0
 698 240 696 241 694 242 c 2
 98 497 l 1
 98 497 95 498 94 499 c 0
 89 502 84 506 81 511 c 0
 79 516 78 521 78 526 c 0
EndSplineSet
Validated: 1
EndChar

StartChar: greaterorapproxeql
Encoding: 10886 10886 125
Width: 818
Flags: W
HStem: -329 81<499.521 663.096> -183 81<153.904 317.479> -81 82<499.521 663.096> 66 81<153.904 317.479> 239 62<79.6406 98>
VStem: 48 51<-325.711 -233.865 -75.6207 15.1352> 718 51<-196.782 -105.286 51.2184 143.714>
LayerCount: 2
Fore
SplineSet
48 -294 m 1
 48 -285 l 2
 48 -181 132 -102 233 -102 c 0
 373 -102 455 -248 584 -248 c 0
 648 -248 718 -205 718 -138 c 2
 718 -137 l 1
 720 -124 723 -111 733 -105 c 0
 737 -103 740 -102 743 -102 c 2
 743 -102 749 -103 750 -103 c 0
 756 -105 766 -113 769 -137 c 1
 769 -146 l 2
 769 -249 685 -329 584 -329 c 0
 444 -329 362 -183 233 -183 c 0
 169 -183 99 -226 99 -293 c 2
 99 -294 l 1
 98 -304 95 -320 85 -326 c 0
 81 -328 77 -329 74 -329 c 0
 68 -328 67 -328 64 -326 c 0
 54 -320 49 -304 48 -294 c 1
48 -45 m 1
 48 -36 l 2
 48 68 132 147 233 147 c 0
 373 147 455 1 584 1 c 0
 648 1 718 44 718 111 c 2
 718 112 l 1
 720 125 723 138 733 144 c 0
 737 146 740 147 743 147 c 2
 743 147 749 146 750 146 c 0
 756 144 766 136 769 112 c 1
 769 102 l 2
 769 -1 685 -81 584 -81 c 0
 444 -81 362 66 233 66 c 0
 169 66 99 23 99 -44 c 2
 99 -45 l 1
 98 -54 96 -68 87 -76 c 0
 85 -78 80 -81 74 -81 c 1
 74 -81 69 -81 64 -78 c 0
 54 -71 49 -56 48 -45 c 1
98 301 m 2
 626 526 l 1
 98 752 l 1
 98 752 95 753 94 754 c 0
 89 757 84 761 81 766 c 0
 79 771 78 776 78 781 c 0
 78 786 78 786 79 789 c 0
 83 802 96 813 111 813 c 0
 114 813 119 812 123 811 c 2
 720 556 l 2
 731 551 739 538 739 526 c 0
 739 519 738 514 734 508 c 0
 731 503 726 499 720 497 c 2
 124 242 l 2
 119 239 113 239 111 239 c 0
 83 241 79 262 78 268 c 1
 78 271 l 2
 78 283 85 295 98 301 c 2
EndSplineSet
Validated: 1
EndChar

StartChar: slteqlless
Encoding: 10901 10901 126
Width: 818
Flags: W
HStem: 327 21G<97 112> 409 61<720 737.514>
LayerCount: 2
Fore
SplineSet
78 152 m 0
 78 155 78 161 82 167 c 0
 86 174 93 178 98 181 c 2
 695 468 l 2
 697 469 699 470 708 470 c 1
 708 470 714 470 721 466 c 0
 731 461 738 452 739 441 c 1
 739 441 739 440 739 438 c 0
 739 424 730 413 720 409 c 2
 184 152 l 1
 723 -108 l 2
 724 -109 730 -110 734 -117 c 0
 738 -123 739 -130 739 -135 c 0
 739 -141 737 -157 721 -165 c 0
 717 -167 713 -168 708 -168 c 0
 706 -168 703 -168 700 -167 c 0
 698 -167 696 -166 694 -164 c 2
 95 123 l 2
 94 124 88 126 83 134 c 0
 80 139 78 145 78 152 c 0
95 387 m 2
 695 676 l 2
 697 677 699 678 708 678 c 1
 708 678 714 678 721 674 c 0
 731 669 738 660 739 649 c 1
 739 649 739 648 739 646 c 0
 739 640 739 636 736 631 c 0
 734 626 729 621 723 618 c 2
 124 330 l 2
 119 327 113 327 111 327 c 0
 83 329 79 350 78 356 c 1
 78 359 l 2
 78 366 80 370 83 376 c 0
 86 381 89 385 95 387 c 2
EndSplineSet
Validated: 1
EndChar

StartChar: slteqlgreater
Encoding: 10902 10902 127
Width: 818
Flags: W
HStem: -169 62<80.0241 98> 327 21G<707 710>
LayerCount: 2
Fore
SplineSet
98 -107 m 2
 633 151 l 1
 95 409 l 2
 93 410 84 413 80 424 c 0
 78 428 78 433 78 437 c 0
 78 442 78 442 79 445 c 0
 83 458 96 469 111 469 c 0
 114 469 118 468 122 467 c 1
 123 467 l 1
 723 178 l 2
 724 177 730 176 734 169 c 0
 738 163 739 156 739 151 c 0
 739 148 739 134 726 124 c 1
 726 124 725 123 724 123 c 2
 724 123 723 122 722 122 c 2
 722 122 721 121 720 121 c 2
 124 -166 l 2
 119 -169 113 -169 111 -169 c 0
 95 -169 78 -154 78 -136 c 0
 78 -133 78 -127 82 -121 c 0
 86 -114 93 -110 98 -107 c 2
78 646 m 0
 78 651 78 651 79 654 c 0
 83 667 96 678 111 678 c 0
 114 678 118 677 122 676 c 1
 123 676 l 1
 721 389 l 2
 732 383 739 371 739 359 c 0
 739 350 736 336 719 329 c 0
 716 328 712 327 708 327 c 0
 706 327 703 327 700 328 c 0
 698 328 696 329 694 331 c 2
 98 617 l 2
 92 620 89 621 85 626 c 0
 83 629 81 632 80 635 c 0
 79 638 78 642 78 646 c 0
EndSplineSet
Validated: 1
EndChar

StartChar: notexistential
Encoding: 8708 8708 128
Width: 571
VWidth: 1000
Flags: W
HStem: -10 63<53.2366 171 250 460> 316 63<68.282 245 325 460> 641 63<53.2366 320 399 460>
VStem: 140 62<-179.682 -126.798> 368 62<820.798 873.682> 460 63<53 316 379 641>
LayerCount: 2
Fore
SplineSet
140 -150 m 2
 140 -144 l 1
 171 -10 l 1
 76 -10 l 1
 75 -10 l 1
 62 -8 47 3 47 22 c 1
 47 22 46 32 53 40 c 0
 58 47 66 51 75 53 c 1
 76 53 l 1
 185 53 l 1
 245 316 l 1
 90 316 l 1
 89 316 l 1
 82 318 78 319 73 323 c 0
 65 329 61 337 61 347 c 1
 61 347 61 358 68 367 c 0
 74 374 81 377 88 379 c 1
 90 379 l 1
 260 379 l 1
 320 641 l 1
 76 641 l 1
 75 641 l 1
 62 643 47 654 47 673 c 1
 47 673 46 683 53 691 c 0
 58 698 66 702 75 704 c 1
 76 704 l 1
 334 704 l 1
 368 852 l 2
 369 854 370 861 379 868 c 0
 384 872 391 875 399 875 c 0
 415 875 430 862 430 844 c 2
 430 838 l 1
 399 704 l 1
 495 704 l 1
 496 704 l 1
 502 702 507 701 512 697 c 0
 519 692 523 684 523 675 c 2
 523 19 l 1
 523 18 l 1
 521 11 520 7 515 1 c 0
 510 -6 502 -10 494 -10 c 2
 236 -10 l 1
 202 -158 l 2
 201 -160 200 -167 191 -174 c 0
 186 -178 179 -181 171 -181 c 0
 155 -181 140 -168 140 -150 c 2
250 53 m 1
 460 53 l 1
 460 316 l 1
 310 316 l 1
 250 53 l 1
325 379 m 1
 460 379 l 1
 460 641 l 1
 385 641 l 1
 325 379 l 1
EndSplineSet
Validated: 1
EndChar

StartChar: emptyset
Encoding: 8709 8709 129
Width: 799
VWidth: 1000
Flags: W
HStem: -11 63<298.865 498.164> 541 63<300.083 499.135>
VStem: 92 63<195.709 395.955> 643 64<197.496 397.347>
LayerCount: 2
Fore
SplineSet
47 21 m 0
 47 29 49 35 54 41 c 2
 54 41 55 42 56 43 c 2
 147 121 l 1
 111 172 92 234 92 297 c 0
 92 466 230 604 400 604 c 0
 448 604 494 593 534 572 c 1
 570 555 584 541 610 520 c 1
 698 596 l 2
 703 600 705 601 711 603 c 2
 711 603 713 604 714 604 c 2
 714 604 715 604 716 604 c 0
 717 604 718 604 719 604 c 0
 728 603 742 601 749 584 c 0
 750 581 751 577 751 573 c 2
 751 573 751 569 751 568 c 0
 749 557 742 551 741 550 c 2
 651 472 l 1
 687 421 707 359 707 297 c 0
 707 127 569 -11 398 -11 c 0
 350 -11 304 0 264 21 c 1
 228 38 214 52 188 73 c 1
 100 -3 l 2
 95 -7 93 -8 87 -10 c 2
 87 -10 85 -11 84 -11 c 2
 84 -11 83 -11 82 -11 c 0
 81 -11 80 -11 79 -11 c 0
 61 -11 47 3 47 21 c 0
236 115 m 1
 280 75 339 52 399 52 c 0
 533 52 643 163 643 297 c 0
 643 344 629 391 603 431 c 1
 236 115 l 1
195 162 m 1
 562 478 l 1
 518 518 459 541 399 541 c 0
 265 541 155 430 155 297 c 0
 155 249 169 202 195 162 c 1
EndSplineSet
Validated: 1
EndChar

StartChar: hslash
Encoding: 8463 8463 130
Width: 556
VWidth: 1000
Flags: W
HStem: -21 49<419.235 474.796> 403 49<287.462 395.933> 460 51<60.3082 103.69> 582 51<478.568 521.692>
VStem: 329 89<28.2049 127.221> 403 92<236.557 398.192> 523 52<88.6875 157.765>
LayerCount: 2
Fore
SplineSet
45 32 m 2xf6
 157 479 l 1
 91 460 l 1
 86 460 l 2
 72 460 60 472 60 486 c 0
 60 496 64 507 79 511 c 2
 172 538 l 1
 190 609 l 1
 190 614 191 619 191 621 c 0
 191 625 189 627 188 628 c 0
 180 635 162 638 127 638 c 2
 114 638 l 1
 127 692 l 1
 310 705 l 1
 276 570 l 1
 491 633 l 1
 496 633 l 2
 510 633 522 621 522 607 c 0
 522 597 518 586 503 582 c 2
 261 511 l 1
 234 401 l 1
 289 449 342 452 364 452 c 0
 440 452 495 411 495 332 c 0xf6
 495 264 449 152 430 102 c 0
 423 83 418 63 418 48 c 0
 418 45 418 38 421 33 c 0
 422 31 424 28 429 28 c 0
 486 28 515 115 523 148 c 0
 523 150 525 157 533 162 c 0
 536 164 539 165 543 165 c 2
 555 165 l 1
 558 164 563 164 569 158 c 0
 573 153 575 147 575 142 c 2
 575 141 l 1
 575 140 l 1
 560 78 513 -21 428 -21 c 0
 374 -21 329 17 329 73 c 0xfa
 329 87 332 101 337 114 c 0
 365 187 403 285 403 347 c 0
 403 377 394 403 362 403 c 0
 288 403 238 348 204 282 c 1
 139 20 l 1
 132 -2 112 -21 86 -21 c 0
 63 -21 44 -5 44 19 c 0
 44 23 44 27 45 32 c 2xf6
EndSplineSet
Validated: 1
EndChar

StartChar: Omegainv
Encoding: 8487 8487 131
Width: 742
VWidth: 1000
Flags: W
HStem: -32 49<279.473 461.965> 606 87<101.855 224 517 639.145>
VStem: 34 52<509 543.708> 47 123<133.037 331.339> 571 123<133.037 332.344> 653 54<509 543.708>
LayerCount: 2
Fore
SplineSet
129 439 m 2xd8
 160 485 l 2
 185 523 210 563 224 606 c 1
 175 606 l 2
 91 606 106 602 88 517 c 1
 86 509 l 1
 34 509 l 1xe0
 72 693 l 1
 262 693 l 2
 263 693 269 693 275 688 c 0
 276 687 283 681 283 670 c 0
 283 510 170 381 170 228 c 0
 170 110 250 17 371 17 c 0
 491 17 571 110 571 228 c 0xd8
 571 381 458 510 458 670 c 0
 458 682 467 693 480 693 c 2
 669 693 l 1
 707 509 l 1
 655 509 l 1
 653 517 l 1xc4
 635 602 650 606 566 606 c 2
 517 606 l 1
 531 563 556 523 581 485 c 2
 613 437 l 2
 654 375 694 307 694 228 c 0
 694 59 517 -32 371 -32 c 0
 224 -32 47 59 47 228 c 0
 47 308 88 377 129 439 c 2xd8
EndSplineSet
Validated: 1
EndChar

StartChar: beth
Encoding: 8502 8502 132
Width: 685
VWidth: 1000
Flags: W
HStem: -32 151<65.7656 574> 582 144<113.667 573.453>
VStem: 574 63<119 580.711>
LayerCount: 2
Fore
SplineSet
-18 -0 m 0
 -17 8 -16 14 -11 20 c 2
 -11 20 -10 21 -9 22 c 2
 78 110 l 2
 80 112 82 116 91 118 c 0
 92 118 94 118 97 119 c 1
 98 119 l 1
 574 119 l 1
 574 563 l 2
 574 576 555 582 539 582 c 2
 141 582 l 2
 48 582 47 664 47 727 c 2
 47 745 l 1
 47 746 l 1
 49 759 60 773 79 773 c 0
 84 773 92 773 101 763 c 0
 114 748 114 726 145 726 c 2
 543 726 l 2
 635 726 637 644 637 580 c 2
 637 119 l 1
 674 119 l 1
 675 119 l 1
 689 116 702 104 702 87 c 0
 702 79 700 73 695 67 c 2
 695 67 694 66 693 65 c 2
 605 -23 l 2
 601 -26 602 -26 599 -27 c 0
 596 -28 592 -30 589 -31 c 2
 587 -32 l 1
 10 -32 l 1
 8 -32 l 1
 -1 -29 -7 -25 -12 -18 c 0
 -15 -14 -16 -10 -17 -6 c 0
 -17 -4 -18 -2 -18 -0 c 0
EndSplineSet
Validated: 1
EndChar

StartChar: daleth
Encoding: 8504 8504 133
Width: 685
VWidth: 1000
Flags: W
HStem: 582 144<110.52 538>
VStem: 538 101<-26.9844 360.198> 538 64<352.597 582>
LayerCount: 2
Fore
SplineSet
538 101 m 2xc0
 538 582 l 1
 141 582 l 2
 48 582 47 664 47 727 c 2
 47 745 l 1
 47 747 l 1
 49 754 52 759 57 764 c 0
 60 767 65 770 71 772 c 0
 74 773 76 773 79 773 c 0
 84 773 92 773 101 763 c 0
 114 748 113 726 145 726 c 2
 572 726 l 2
 611 726 652 698 652 654 c 0
 652 620 629 597 602 587 c 1xa0
 603 508 612 426 621 345 c 0
 630 261 639 177 639 91 c 0
 639 12 628 -54 585 -54 c 0
 567 -54 556 -38 554 -29 c 0
 544 14 538 57 538 101 c 2xc0
EndSplineSet
Validated: 1
EndChar

StartChar: gimel
Encoding: 8503 8503 134
Width: 456
VWidth: 1000
Flags: W
HStem: -32 151<66.625 289.797> 582 144<110.52 310>
VStem: 310 101<119 360.198> 310 64<352.597 582>
LayerCount: 2
Fore
SplineSet
-18 -0 m 0xe0
 -18 8 -15 16 -10 22 c 2
 -9 23 l 1
 79 110 l 2
 82 113 83 114 86 116 c 0
 91 118 95 119 99 119 c 2
 310 119 l 1xe0
 310 582 l 1
 141 582 l 2
 48 582 47 664 47 727 c 2
 47 745 l 1
 47 747 l 1
 49 754 52 759 57 764 c 0
 60 767 65 770 71 772 c 0
 74 773 76 773 79 773 c 0
 84 773 92 773 101 763 c 0
 114 748 113 726 145 726 c 2
 344 726 l 2
 383 726 424 698 424 654 c 0
 424 620 401 597 374 587 c 1xd0
 375 508 384 426 393 345 c 0
 402 261 411 177 411 91 c 0
 411 12 400 -54 357 -54 c 0
 354 -54 345 -54 337 -45 c 0
 325 -32 319 -3 316 17 c 1
 277 -23 l 2
 275 -25 272 -29 265 -31 c 1
 265 -31 263 -31 262 -31 c 2
 262 -31 261 -32 260 -32 c 2
 260 -32 258 -32 257 -32 c 2
 10 -32 l 1
 8 -32 l 1
 -1 -29 -7 -25 -12 -18 c 0
 -15 -14 -16 -10 -17 -6 c 0
 -17 -4 -18 -2 -18 -0 c 0xe0
EndSplineSet
Validated: 1
EndChar

StartChar: Finv
Encoding: 8498 8498 135
Width: 571
VWidth: 1000
Flags: W
HStem: -10 63<53.2366 460> 316 63<203.007 460>
VStem: 460 63<53 316 379 697.856>
LayerCount: 2
Fore
SplineSet
47 22 m 0
 47 24 46 31 53 40 c 0
 58 47 66 51 75 53 c 1
 76 53 l 1
 460 53 l 1
 460 316 l 1
 229 316 l 1
 228 316 l 1
 221 318 216 320 211 325 c 0
 209 326 200 334 201 347 c 0
 201 359 202 353 202 353 c 2
 203 357 204 361 207 365 c 0
 212 372 220 377 227 379 c 1
 229 379 l 1
 460 379 l 1
 460 676 l 1
 460 677 l 1
 463 691 475 704 492 704 c 1
 492 704 501 704 510 698 c 0
 514 695 521 688 523 677 c 1
 523 676 l 1
 523 20 l 2
 523 16 523 7 513 -2 c 0
 508 -6 502 -9 496 -10 c 1
 495 -10 l 1
 76 -10 l 1
 75 -10 l 1
 62 -8 47 3 47 22 c 0
EndSplineSet
Validated: 1
EndChar

StartChar: Gmir
Encoding: 8513 8513 136
Width: 656
VWidth: 1000
Flags: W
HStem: -32 63<93.2418 355.409> 256 63<93 264.491> 652 63<134.694 355.685>
VStem: 30 63<43.1273 256> 539 63<226.195 457.058>
LayerCount: 2
Fore
SplineSet
30 46 m 2
 30 291 l 1
 30 292 l 1
 32 299 33 304 38 309 c 0
 43 315 51 319 60 319 c 2
 238 319 l 1
 239 319 l 1
 248 317 254 313 260 306 c 0
 262 303 266 297 266 288 c 0
 266 271 253 259 239 256 c 1
 238 256 l 1
 93 256 l 1
 93 51 l 1
 101 39 169 31 254 31 c 0
 422 31 539 181 539 342 c 0
 539 501 421 652 256 652 c 0
 197 652 138 636 86 608 c 0
 79 604 73 604 70 604 c 0
 52 604 38 618 38 636 c 0
 38 638 39 643 41 648 c 0
 44 654 48 660 54 663 c 0
 115 697 185 715 256 715 c 0
 458 715 602 535 602 342 c 0
 602 148 458 -32 256 -32 c 0
 133 -32 30 -16 30 46 c 2
EndSplineSet
Validated: 1
EndChar

StartChar: A
Encoding: 65 65 137
Width: 722
VWidth: 1000
Flags: W
HStem: -10 55<7.58214 76.631 128 147 197.841 254.221 365.582 444.34 496 600 650.828 712.418> 187 55<220 390> 694 20G<339.5 352>
VStem: 7 187<10 113.5> 445 55<51.6871 150.624>
LayerCount: 2
Fore
SplineSet
7 18 m 0
 7 31 17 45 33 45 c 0
 57 45 77 61 86 83 c 2
 322 697 l 2
 324 704 332 714 347 714 c 0
 357 714 368 707 372 698 c 2
 631 104 l 2
 649 63 665 45 687 45 c 2
 688 45 l 1
 689 45 l 1
 689 45 693 43 694 43 c 0
 701 40 713 33 713 18 c 0
 713 4 703 -10 687 -10 c 2
 390 -10 l 1
 389 -10 l 1
 389 -10 385 -8 384 -8 c 0
 376 -5 365 2 365 18 c 0
 365 31 375 45 391 45 c 0
 412 45 431 53 445 66 c 1
 445 95 427 144 411 187 c 1
 206 187 l 1
 200 158 194 128 194 99 c 0
 194 58 206 45 229 45 c 2
 230 45 l 1
 231 45 l 1
 235 44 235 43 238 42 c 0
 246 38 255 30 255 18 c 0
 255 6 244 -10 229 -10 c 2
 32 -10 l 1
 31 -10 l 1
 31 -10 27 -8 26 -8 c 0
 18 -5 7 2 7 18 c 0
128 45 m 1
 147 45 l 1
 144 54 142 62 141 71 c 1
 137 62 l 2
 134 56 131 51 128 45 c 1
496 45 m 1
 600 45 l 1
 592 57 586 70 581 82 c 2
 349 614 l 1
 322 544 l 1
 365 456 500 137 500 66 c 0
 500 58 499 51 496 45 c 1
220 242 m 1
 390 242 l 1
 361 316 329 389 297 463 c 1
 269 387 240 310 220 242 c 1
EndSplineSet
Validated: 1
EndChar

StartChar: B
Encoding: 66 66 138
Width: 666
VWidth: 1000
Flags: W
HStem: -10 55<-0.346619 92.8757 146 223 273.402 389.271> 327 55<272 364.65> 640 55<-0.346619 92.5847 145 223 273.402 372.705>
VStem: 95 55<47.5955 637.011> 217 55<49.2226 327 382 635.777> 408 55<423.112 601.227> 439 55<91.8736 287.135> 538 55<456.413 587.137> 576 55<122.036 259.241>
LayerCount: 2
Fore
SplineSet
-1 18 m 1xf880
 0 29 3 37 18 43 c 0
 19 43 21 44 23 45 c 1
 24 45 l 1
 24 45 27 45 28 45 c 0
 85 45 95 45 95 94 c 2
 95 591 l 2
 95 640 83 640 25 640 c 0
 9 640 -1 654 -1 668 c 1
 0 679 3 687 18 693 c 0
 19 693 21 694 23 695 c 1
 24 695 l 1
 338 695 l 2
 463 695 593 668 593 511 c 0xf9
 593 448 545 398 496 369 c 1
 575 339 631 276 631 186 c 0
 631 33 452 -10 338 -10 c 2
 25 -10 l 2
 9 -10 -1 4 -1 18 c 1xf880
146 45 m 1
 223 45 l 1
 219 54 217 63 217 73 c 2
 217 612 l 2
 217 622 219 631 223 640 c 1
 145 640 l 1
 149 624 150 609 150 593 c 2
 150 92 l 2
 150 88 150 83 150 79 c 0
 150 68 150 56 146 45 c 1
272 75 m 2
 272 51 304 45 318 45 c 0
 408 45 439 105 439 186 c 0xfa
 439 279 415 327 317 327 c 2
 272 327 l 1
 272 75 l 2
465 64 m 1
 524 84 576 121 576 186 c 0xfa80
 576 260 524 305 459 324 c 1
 488 284 494 230 494 186 c 0
 494 147 488 101 465 64 c 1
272 382 m 1
 370 384 408 419 408 511 c 0xfc
 408 561 390 640 318 640 c 0
 304 640 272 634 272 610 c 2
 272 382 l 1
439 403 m 1xfa
 489 423 538 462 538 511 c 0
 538 588 497 619 432 632 c 1
 447 609 463 571 463 511 c 0xfd
 463 458 452 425 439 403 c 1xfa
EndSplineSet
Validated: 1
EndChar

StartChar: C
Encoding: 67 67 139
Width: 722
VWidth: 1000
Flags: W
HStem: -29 68<323.94 519.016> 659 55<324.304 474.348>
VStem: 27 55<214.611 469.147> 168 55<172.389 506.979> 612 55<461.636 533.447 597 615 668.006 713.418>
LayerCount: 2
Fore
SplineSet
612 615 m 1
 607 614 603 613 597 613 c 1
 602 608 607 603 612 597 c 1
 612 615 l 1
27 343 m 0
 27 562 171 714 392 714 c 0
 431 714 472 706 508 689 c 0
 535 676 564 668 593 668 c 0
 603 668 612 676 612 688 c 0
 612 704 626 714 640 714 c 0
 653 714 667 704 667 688 c 2
 667 488 l 2
 667 472 653 461 640 461 c 0
 629 461 615 468 613 482 c 1
 593 566 480 659 392 659 c 0
 257 659 223 455 223 342 c 0
 223 215 250 39 405 39 c 0
 496 39 584 79 642 149 c 1
 643 150 l 1
 644 151 l 2
 647 154 648 154 649 155 c 0
 654 158 658 160 664 160 c 0
 669 160 670 160 673 159 c 2
 673 159 674 158 675 158 c 0
 682 155 687 149 691 143 c 0
 694 138 695 134 695 130 c 0
 695 126 695 126 694 123 c 0
 693 120 692 116 690 113 c 0
 617 23 507 -29 392 -29 c 0
 171 -29 27 123 27 343 c 0
242 58 m 1
 178 135 168 255 168 343 c 0
 168 421 178 539 236 624 c 1
 131 570 82 464 82 343 c 0
 82 217 133 110 242 58 c 1
EndSplineSet
Validated: 1
EndChar

StartChar: D
Encoding: 68 68 140
Width: 722
VWidth: 1000
Flags: W
HStem: -10 56<30 88.6224 142 224 275.922 400.924> 638 56<30 88.6224 142 224 275.986 398.152>
VStem: 90 56<47.4034 636.597> 218 56<50.6799 632.388> 502 56<181.289 503.68> 642 56<226.534 472.487>
LayerCount: 2
Fore
SplineSet
6 18 m 2
 6 24 6 23 7 26 c 0
 8 28 8 29 8 29 c 2
 9 31 10 32 11 34 c 2
 12 37 l 1
 15 38 l 2
 18 40 21 42 22 43 c 0
 23 43 22 43 23 43 c 0
 24 43 25 44 28 45 c 2
 30 46 l 1
 32 46 l 2
 85 46 90 46 90 94 c 2
 90 590 l 2
 90 638 85 638 32 638 c 2
 30 638 l 1
 28 639 l 2
 24 641 23 640 22 641 c 0
 21 642 21 641 20 642 c 0
 19 643 18 644 15 646 c 2
 12 647 l 1
 11 650 l 2
 10 652 8 655 7 658 c 0
 6 660 8 657 7 660 c 0
 7 661 6 660 6 663 c 2
 6 666 l 2
 6 672 6 671 7 674 c 0
 8 676 8 677 8 677 c 2
 9 679 10 680 11 682 c 2
 12 685 l 1
 15 686 l 2
 18 688 21 690 22 691 c 0
 23 691 22 691 23 691 c 0
 24 691 25 692 28 693 c 2
 30 694 l 1
 342 694 l 2
 547 694 698 565 698 356 c 0
 698 141 559 -10 342 -10 c 2
 30 -10 l 1
 28 -9 l 2
 24 -7 23 -8 22 -7 c 0
 21 -6 21 -7 20 -6 c 0
 19 -5 18 -4 15 -2 c 2
 12 -1 l 1
 11 2 l 2
 10 4 8 7 7 10 c 0
 6 12 8 9 7 12 c 0
 7 13 6 12 6 15 c 2
 6 18 l 2
142 46 m 1
 224 46 l 1
 220 56 218 66 218 74 c 2
 218 610 l 2
 218 618 220 628 224 638 c 1
 142 638 l 1
 146 623 146 609 146 594 c 2
 146 90 l 2
 146 75 146 61 142 46 c 1
274 78 m 2
 274 58 297 46 320 46 c 0
 393 46 502 83 502 355 c 0
 502 462 467 638 328 638 c 0
 310 638 274 632 274 606 c 2
 274 78 l 2
498 84 m 1
 597 138 642 239 642 356 c 0
 642 468 591 559 492 606 c 1
 543 536 558 433 558 356 c 0
 558 274 549 162 498 84 c 1
EndSplineSet
Validated: 1
EndChar

StartChar: E
Encoding: 69 69 141
Width: 666
VWidth: 1000
Flags: W
HStem: -10 56<26 88.4447 142 217 268.308 450.414 521 569> 324 56<266 353.041> 520 20G<435 437.5> 638 56<26 88.494 142 217 268.308 461.597>
VStem: 90 56<48.103 635.897> 210 56<46.6101 324 380 637.39> 409 56<193.047 200 202 207.969 208 280.742 433.673 516 516.031 522> 546 56<490 494 496 568.168>
LayerCount: 2
Fore
SplineSet
521 46 m 1
 569 46 l 1
 575 92 l 1
 559 75 540 60 521 46 c 1
2 18 m 2
 2 24 2 23 3 26 c 0
 4 28 4 29 4 29 c 2
 5 31 6 32 7 34 c 2
 8 37 l 1
 11 38 l 2
 14 40 17 42 18 43 c 0
 19 43 18 43 19 43 c 0
 20 43 21 44 24 45 c 2
 26 46 l 1
 28 46 l 2
 84 46 90 46 90 94 c 2
 90 594 l 2
 90 638 80 638 28 638 c 2
 26 638 l 1
 24 639 l 2
 20 641 19 640 18 641 c 0
 17 642 17 641 16 642 c 0
 15 643 14 644 11 646 c 2
 8 647 l 1
 7 650 l 2
 6 652 4 655 3 658 c 0
 2 660 4 657 3 660 c 0
 3 661 2 660 2 663 c 2
 2 666 l 2
 2 672 2 671 3 674 c 0
 4 676 4 677 4 677 c 2
 5 679 6 680 7 682 c 2
 8 685 l 1
 11 686 l 2
 14 688 17 690 18 691 c 0
 19 691 18 691 19 691 c 0
 20 691 21 692 24 693 c 2
 26 694 l 1
 578 694 l 1
 580 693 l 2
 584 691 585 692 586 691 c 2
 588 690 l 2
 589 689 590 688 593 686 c 2
 596 685 l 1
 597 682 l 1
 599 678 l 1
 600 676 l 2
 600 675 601 675 602 671 c 1
 602 669 l 1
 602 503 l 1
 602 501 l 1
 601 497 600 497 600 496 c 2
 599 494 l 2
 599 493 598 492 597 490 c 2
 596 487 l 1
 593 485 l 2
 588 482 588 482 587 482 c 0
 585 481 581 478 574 478 c 1
 574 478 568 478 561 482 c 0
 559 483 557 484 555 485 c 2
 552 487 l 1
 551 490 l 2
 551 491 549 494 549 494 c 2
 549 495 548 495 548 496 c 0
 548 497 547 497 546 501 c 1
 546 503 l 1
 546 504 l 2
 546 599 436 638 350 638 c 2
 286 638 l 2
 270 638 266 612 266 590 c 2
 266 380 l 1
 351 383 409 420 409 514 c 2
 409 516 l 1
 410 518 l 2
 412 524 411 520 412 523 c 0
 412 524 l 2
 412 525 413 526 414 528 c 2
 415 531 l 1
 418 533 l 2
 424 537 425 537 427 538 c 0
 430 539 433 540 437 540 c 0
 438 540 443 541 450 537 c 0
 453 535 456 533 457 532 c 2
 459 531 l 1
 460 528 l 1
 462 524 l 1
 463 522 l 2
 463 521 464 521 465 517 c 1
 465 515 l 1
 465 209 l 1
 465 207 l 1
 464 203 463 203 463 202 c 2
 462 200 l 2
 462 199 461 198 460 196 c 2
 459 193 l 1
 457 192 l 2
 455 191 453 189 450 187 c 0
 446 185 442 184 437 184 c 0
 436 184 433 183 427 186 c 0
 424 187 421 189 418 191 c 2
 415 193 l 1
 414 196 l 2
 412 199 412 199 412 200 c 2
 412 200 412 200 412 201 c 0
 412 202 411 203 410 206 c 2
 409 208 l 1
 409 210 l 2
 409 276 374 321 266 324 c 1
 266 94 l 2
 266 72 270 46 286 46 c 2
 360 46 l 2
 415 46 466 71 508 107 c 1
 536 133 561 159 578 192 c 0
 589 214 591 242 599 258 c 1
 600 261 l 1
 603 263 l 2
 608 266 608 266 609 266 c 0
 611 267 615 270 622 270 c 1
 622 270 628 270 635 266 c 0
 637 265 639 264 641 263 c 2
 644 261 l 1
 645 258 l 2
 647 254 649 250 650 244 c 1
 650 244 650 242 650 241 c 2
 650 240 l 1
 622 14 l 1
 622 13 l 1
 621 9 620 9 620 8 c 2
 619 6 l 2
 619 5 618 4 617 2 c 2
 616 -1 l 1
 613 -2 l 2
 610 -4 607 -6 606 -7 c 1
 605 -7 l 2
 604 -7 603 -8 600 -9 c 2
 598 -10 l 1
 26 -10 l 1
 24 -9 l 2
 20 -7 19 -8 18 -7 c 0
 17 -6 17 -7 16 -6 c 0
 15 -5 14 -4 11 -2 c 2
 8 -1 l 1
 7 2 l 2
 6 4 4 7 3 10 c 0
 2 12 4 9 3 12 c 0
 3 13 2 12 2 15 c 2
 2 18 l 2
210 90 m 2
 210 594 l 2
 210 611 213 625 217 638 c 1
 142 638 l 1
 146 623 146 609 146 594 c 2
 146 90 l 2
 146 75 146 61 142 46 c 1
 217 46 l 1
 213 59 210 73 210 90 c 2
EndSplineSet
Validated: 1
EndChar

StartChar: F
Encoding: 70 70 142
Width: 611
VWidth: 1000
Flags: W
HStem: -10 55<4.65338 90.6095 142 219 270.69 379.418> 326 56<269 346.937> 523 20G<419 431.5> 640 55<4.58214 90.4538 142 221 271.736 455.032 525 538>
VStem: 92 55<46.5 637.756> 214 55<48.7495 326 382 639.296> 398 55<187.582 284.262 341 373 433.612 542.313> 538 55<479.636 571.502 629 640>
LayerCount: 2
Fore
SplineSet
4 18 m 1
 5 29 8 37 23 43 c 0
 24 43 26 44 28 45 c 1
 29 45 l 1
 29 45 32 45 33 45 c 0
 87 45 92 45 92 94 c 2
 92 593 l 2
 92 640 84 640 30 640 c 2
 29 640 l 1
 28 640 l 1
 28 640 24 642 23 642 c 0
 15 645 4 652 4 668 c 0
 4 681 14 695 30 695 c 2
 568 695 l 1
 569 695 l 1
 573 694 573 693 576 692 c 0
 588 687 593 678 593 669 c 2
 593 506 l 2
 593 490 579 479 566 479 c 0
 552 479 538 490 538 506 c 0
 538 597 436 640 351 640 c 2
 289 640 l 2
 273 640 269 611 269 591 c 2
 269 382 l 1
 350 385 398 429 398 516 c 0
 398 531 412 543 426 543 c 0
 437 543 453 532 453 516 c 2
 453 213 l 2
 453 197 439 187 426 187 c 0
 412 187 398 197 398 213 c 0
 398 295 342 324 269 326 c 1
 269 94 l 2
 269 64 271 53 288 49 c 0
 306 45 333 45 354 45 c 2
 355 45 l 1
 356 45 l 1
 356 45 360 43 361 43 c 0
 368 40 380 33 380 18 c 0
 380 4 370 -10 354 -10 c 2
 29 -10 l 1
 28 -10 l 1
 28 -10 24 -8 23 -8 c 0
 15 -5 4 2 4 18 c 1
142 45 m 1
 219 45 l 1
 214 61 214 77 214 92 c 2
 214 593 l 2
 214 609 216 625 221 640 c 1
 142 640 l 1
 146 624 147 609 147 593 c 2
 147 92 l 2
 147 77 146 61 142 45 c 1
376 356 m 1
 384 351 391 347 398 341 c 1
 398 373 l 1
 391 367 384 361 376 356 c 1
525 640 m 1
 529 636 534 633 538 629 c 1
 538 640 l 1
 525 640 l 1
EndSplineSet
Validated: 1
EndChar

StartChar: G
Encoding: 71 71 143
Width: 777
VWidth: 1000
Flags: W
HStem: -29 55<322.335 492.686> 245 55<400.866 482.466 535 638 690.462 758.265> 659 55<324.304 473.941>
VStem: 27 55<214.415 469.147> 168 55<160.128 504.424> 502 55<53.7698 224.997> 611 55<461.547 533.834 597 615 668.006 713.418> 621 55<68.3559 231.598>
LayerCount: 2
Fore
SplineSet
611 615 m 1xfe
 606 614 601 613 596 613 c 1
 601 608 606 603 611 597 c 1
 611 615 l 1xfe
27 343 m 0
 27 562 171 714 392 714 c 0
 431 714 471 706 507 689 c 0
 534 676 563 668 592 668 c 0
 602 668 611 676 611 688 c 0
 611 704 625 714 639 714 c 0
 652 714 666 704 666 688 c 2
 666 488 l 2xfe
 666 472 652 461 639 461 c 0
 628 461 614 467 612 482 c 1
 593 567 480 659 392 659 c 0
 257 659 223 454 223 342 c 0
 223 186 257 26 392 26 c 0
 393 26 394 26 396 26 c 0
 427 26 502 27 502 63 c 2
 502 178 l 2
 502 217 465 245 426 245 c 0
 410 245 400 259 400 272 c 1
 401 283 404 292 419 298 c 0
 421 299 423 300 424 300 c 2
 425 300 l 1
 733 300 l 2
 746 300 759 286 759 272 c 0
 759 256 746 246 734 245 c 1
 733 245 l 2
 698 245 676 212 676 178 c 2
 676 61 l 2xfd
 676 47 665 40 661 38 c 0
 578 -4 487 -29 392 -29 c 0
 171 -29 27 123 27 343 c 0
556 53 m 1
 578 60 600 68 621 78 c 1
 621 180 l 2xfd
 621 203 627 225 638 245 c 1
 535 245 l 1
 548 226 557 204 557 180 c 2
 557 61 l 2
 557 58 556 56 556 53 c 1
224 68 m 1
 175 148 168 260 168 343 c 0
 168 421 178 539 236 624 c 1
 131 570 82 464 82 343 c 0
 82 228 126 124 224 68 c 1
EndSplineSet
Validated: 1
EndChar

StartChar: H
Encoding: 72 72 144
Width: 777
VWidth: 1000
Flags: W
HStem: -10 55<7.65338 93.6095 145 228 279.546 365.418 412.653 498.61 550 633 684.546 770.418> 314 66<278 500> 640 55<7.58214 93.4538 145 228 279.39 365.186 412.582 498.454 550 633 684.39 770.186>
VStem: 95 55<46.5 637.756> 223 55<47.2499 314 380 638.503> 500 55<46.5 314 380 637.756> 628 55<47.2499 638.503>
LayerCount: 2
Fore
SplineSet
7 18 m 1
 8 29 11 37 26 43 c 0
 27 43 29 44 31 45 c 1
 32 45 l 1
 32 45 35 45 36 45 c 0
 90 45 95 45 95 94 c 2
 95 593 l 2
 95 640 87 640 33 640 c 2
 32 640 l 1
 31 640 l 1
 31 640 27 642 26 642 c 0
 18 645 7 652 7 668 c 0
 7 681 17 695 33 695 c 2
 341 695 l 1
 342 695 l 1
 342 695 346 693 347 693 c 0
 354 690 366 683 366 668 c 1
 365 657 362 648 347 642 c 0
 345 641 343 640 342 640 c 2
 341 640 l 1
 341 640 338 640 337 640 c 0
 283 640 278 640 278 591 c 2
 278 380 l 1
 500 380 l 1
 500 593 l 2
 500 640 492 640 438 640 c 2
 437 640 l 1
 436 640 l 1
 436 640 432 642 431 642 c 0
 423 645 412 652 412 668 c 0
 412 681 422 695 438 695 c 2
 746 695 l 1
 747 695 l 1
 747 695 751 693 752 693 c 0
 759 690 771 683 771 668 c 1
 770 657 767 648 752 642 c 0
 750 641 748 640 747 640 c 2
 746 640 l 1
 746 640 743 640 742 640 c 0
 688 640 683 640 683 591 c 2
 683 92 l 2
 683 45 691 45 745 45 c 2
 746 45 l 1
 747 45 l 1
 747 45 751 43 752 43 c 0
 759 40 771 33 771 18 c 0
 771 4 761 -10 745 -10 c 2
 437 -10 l 1
 436 -10 l 1
 436 -10 432 -8 431 -8 c 0
 423 -5 412 2 412 18 c 1
 413 29 416 37 431 43 c 0
 432 43 434 44 436 45 c 1
 437 45 l 1
 437 45 440 45 441 45 c 0
 495 45 500 45 500 94 c 2
 500 314 l 1
 278 314 l 1
 278 92 l 2
 278 45 286 45 340 45 c 2
 341 45 l 1
 342 45 l 1
 342 45 346 43 347 43 c 0
 354 40 366 33 366 18 c 0
 366 4 356 -10 340 -10 c 2
 32 -10 l 1
 31 -10 l 1
 31 -10 27 -8 26 -8 c 0
 18 -5 7 2 7 18 c 1
145 45 m 1
 228 45 l 1
 224 61 223 77 223 92 c 2
 223 593 l 2
 223 609 224 624 228 640 c 1
 145 640 l 1
 149 624 150 609 150 593 c 2
 150 92 l 2
 150 77 149 61 145 45 c 1
550 45 m 1
 633 45 l 1
 629 61 628 77 628 92 c 2
 628 593 l 2
 628 609 629 624 633 640 c 1
 550 640 l 1
 554 624 555 609 555 593 c 2
 555 92 l 2
 555 77 554 61 550 45 c 1
EndSplineSet
Validated: 1
EndChar

StartChar: I
Encoding: 73 73 145
Width: 388
VWidth: 1000
Flags: W
HStem: -10 55<10.5821 101.002 153 235 287.935 378.418> 640 55<10.5821 101.065 154 236 287.998 378.418>
VStem: 103 55<47.2743 637.405> 231 55<47.5955 637.726>
LayerCount: 2
Fore
SplineSet
10 18 m 0
 10 31 20 45 36 45 c 0
 94 45 103 45 103 94 c 2
 103 593 l 2
 103 640 92 640 36 640 c 2
 35 640 l 1
 34 640 l 1
 34 640 30 642 29 642 c 0
 21 645 10 652 10 668 c 0
 10 681 20 695 36 695 c 2
 354 695 l 1
 355 695 l 1
 355 695 359 693 360 693 c 0
 367 690 379 683 379 668 c 0
 379 654 369 640 353 640 c 0
 295 640 286 640 286 591 c 2
 286 92 l 2
 286 45 297 45 353 45 c 2
 354 45 l 1
 355 45 l 1
 355 45 359 43 360 43 c 0
 367 40 379 33 379 18 c 0
 379 4 369 -10 353 -10 c 2
 35 -10 l 1
 34 -10 l 1
 34 -10 30 -8 29 -8 c 0
 21 -5 10 2 10 18 c 0
153 45 m 1
 235 45 l 1
 231 56 231 68 231 79 c 0
 231 83 231 88 231 92 c 2
 231 593 l 2
 231 609 232 624 236 640 c 1
 154 640 l 1
 158 629 158 617 158 606 c 0
 158 602 158 597 158 593 c 2
 158 92 l 2
 158 76 157 61 153 45 c 1
EndSplineSet
Validated: 1
EndChar

StartChar: J
Encoding: 74 74 146
Width: 500
VWidth: 1000
Flags: W
HStem: -85 55<134.821 203.872> 61 55<51.8349 104.165> 640 55<113.582 211.75 265 348 399.39 485.186>
VStem: -4 55<-2.74582 59.8642> 105 55<-2.86861 59.8642> 215 55<-13.3751 635.501> 343 55<30.8905 638.503>
LayerCount: 2
Fore
SplineSet
78 116 m 0
 121 116 160 82 160 37 c 1
 159 -2 140 -14 133 -27 c 1
 140 -29 155 -30 163 -30 c 0
 191 -30 215 -7 215 20 c 2
 215 593 l 2
 215 639 197 640 139 640 c 2
 138 640 l 1
 137 640 l 1
 137 640 133 642 132 642 c 0
 124 645 113 652 113 668 c 0
 113 681 123 695 139 695 c 2
 461 695 l 1
 462 695 l 1
 462 695 466 693 467 693 c 0
 474 690 486 683 486 668 c 1
 485 657 482 648 467 642 c 0
 465 641 463 640 462 640 c 2
 461 640 l 1
 461 640 458 640 457 640 c 0
 403 640 398 640 398 591 c 2
 398 111 l 2
 398 -29 293 -85 167 -85 c 0
 98 -85 -4 -54 -4 37 c 0
 -4 82 35 116 78 116 c 0
264 -14 m 1
 323 10 343 60 343 113 c 2
 343 593 l 2
 343 609 344 624 348 640 c 1
 265 640 l 1
 270 624 270 608 270 593 c 2
 270 18 l 2
 270 6 267 -4 264 -14 c 1
80 -9 m 1
 88 11 105 20 105 37 c 0
 105 50 92 61 78 61 c 0
 64 61 51 50 51 37 c 0
 51 17 63 2 80 -9 c 1
EndSplineSet
Validated: 1
EndChar

StartChar: K
Encoding: 75 75 147
Width: 777
VWidth: 1000
Flags: W
HStem: -10 55<14.6534 100.61 152 235 286.546 372.134 470.653 509.811 561.061 665 719.035 778.134> 640 55<14.6534 100.454 152 235 286.39 372.134 444.653 500.856 551 587 651.716 740.134>
VStem: 102 55<46.5 637.756> 230 55<47.2499 280 366 638.503>
LayerCount: 2
Fore
SplineSet
567 45 m 1
 665 45 l 1
 655 56 646 67 638 77 c 2
 387 378 l 1
 343 335 l 1
 530 110 l 2
 545 92 565 71 567 45 c 1
558 616 m 1
 568 624 577 632 587 640 c 1
 551 640 l 1
 554 632 557 624 558 616 c 1
14 18 m 1
 15 29 18 37 33 43 c 0
 34 43 36 44 38 45 c 1
 39 45 l 1
 39 45 42 45 43 45 c 0
 97 45 102 45 102 94 c 2
 102 593 l 2
 102 640 94 640 40 640 c 0
 24 640 14 654 14 668 c 1
 15 679 18 687 33 693 c 0
 34 693 36 694 38 695 c 1
 39 695 l 1
 347 695 l 2
 363 695 373 681 373 668 c 1
 372 657 369 648 354 642 c 0
 352 641 350 640 349 640 c 2
 348 640 l 1
 348 640 345 640 344 640 c 0
 290 640 285 640 285 591 c 2
 285 366 l 1
 485 558 l 2
 496 569 504 585 504 601 c 0
 504 622 490 640 470 640 c 0
 454 640 444 654 444 668 c 1
 445 679 448 687 463 693 c 0
 464 693 466 694 468 695 c 1
 469 695 l 1
 715 695 l 2
 731 695 741 681 741 668 c 1
 740 657 737 648 722 642 c 0
 720 641 718 640 717 640 c 2
 716 640 l 1
 715 640 l 2
 657 640 586 570 530 516 c 2
 427 416 l 1
 682 110 l 2
 704 84 732 45 753 45 c 0
 769 45 779 31 779 18 c 1
 778 7 775 -2 760 -8 c 0
 758 -9 756 -10 755 -10 c 2
 754 -10 l 1
 496 -10 l 2
 480 -10 470 4 470 18 c 1
 471 29 474 37 489 43 c 0
 490 43 492 44 494 45 c 1
 495 45 l 1
 496 45 l 2
 500 45 506 45 510 46 c 1
 506 54 495 65 486 76 c 2
 302 296 l 1
 285 280 l 1
 285 92 l 2
 285 45 293 45 347 45 c 0
 363 45 373 31 373 18 c 1
 372 7 369 -2 354 -8 c 0
 352 -9 350 -10 349 -10 c 2
 348 -10 l 1
 40 -10 l 2
 24 -10 14 4 14 18 c 1
152 45 m 1
 235 45 l 1
 231 61 230 77 230 92 c 2
 230 593 l 2
 230 609 231 624 235 640 c 1
 152 640 l 1
 156 624 157 609 157 593 c 2
 157 92 l 2
 157 77 156 61 152 45 c 1
EndSplineSet
Validated: 1
EndChar

StartChar: L
Encoding: 76 76 148
Width: 666
VWidth: 1000
Flags: W
HStem: -10 55<4.65338 90.6095 142 223 273.736 458.26 534 569> 640 55<4.65338 90.4538 142 220 272.074 353.134>
VStem: 92 55<46.5 637.756> 216 55<45.7039 638.5> 595 54<156.593 233.483>
LayerCount: 2
Fore
SplineSet
4 18 m 1
 5 29 8 37 23 43 c 0
 24 43 26 44 28 45 c 1
 29 45 l 1
 29 45 32 45 33 45 c 0
 87 45 92 45 92 94 c 2
 92 593 l 2
 92 640 84 640 30 640 c 0
 14 640 4 654 4 668 c 1
 5 679 8 687 23 693 c 0
 24 693 26 694 28 695 c 1
 29 695 l 1
 328 695 l 2
 344 695 354 681 354 668 c 1
 353 657 350 648 335 642 c 0
 333 641 331 640 330 640 c 2
 329 640 l 1
 329 640 326 640 325 640 c 0
 274 640 271 640 271 591 c 2
 271 94 l 2
 271 74 275 45 291 45 c 2
 360 45 l 2
 455 45 580 115 595 212 c 0
 597 227 611 234 622 234 c 0
 637 234 649 220 649 206 c 2
 649 205 l 1
 621 11 l 1
 618 -2 605 -9 596 -10 c 1
 30 -10 l 2
 14 -10 4 4 4 18 c 1
142 45 m 1
 223 45 l 1
 218 60 216 76 216 92 c 2
 216 593 l 2
 216 608 216 624 220 640 c 1
 142 640 l 1
 146 624 147 609 147 593 c 2
 147 92 l 2
 147 77 146 61 142 45 c 1
534 45 m 1
 569 45 l 1
 574 76 l 1
 561 65 548 54 534 45 c 1
EndSplineSet
Validated: 1
EndChar

StartChar: M
Encoding: 77 77 149
Width: 944
VWidth: 1000
Flags: W
HStem: -10 55<7.65338 84.5432 165.962 248.134 581.653 658.543 710 800 851.962 934.134> 640 55<10.6534 93.1548 178 236 723 800 851.457 928.134>
VStem: 94 62<57.5 558> 668 55<56 557> 787 55<57.5 629>
LayerCount: 2
Fore
SplineSet
443 163 m 1
 441 165 l 1
 436 168 434 172 431 177 c 2
 236 640 l 1
 178 640 l 1
 182 634 186 628 189 621 c 2
 412 89 l 1
 443 163 l 1
7 18 m 1
 8 29 11 37 26 43 c 0
 27 43 29 44 31 45 c 1
 32 45 l 1
 33 45 l 2
 64 45 94 64 94 94 c 2
 94 633 l 1
 76 639 56 640 36 640 c 0
 20 640 10 654 10 668 c 1
 11 679 14 687 29 693 c 0
 30 693 32 694 34 695 c 1
 35 695 l 1
 257 695 l 2
 269 695 277 686 280 679 c 2
 466 236 l 1
 652 679 l 1
 656 692 668 694 673 695 c 1
 674 695 l 1
 903 695 l 2
 919 695 929 681 929 668 c 1
 928 657 925 648 910 642 c 0
 908 641 906 640 905 640 c 2
 904 640 l 1
 903 640 l 2
 872 640 842 621 842 591 c 2
 842 94 l 2
 842 62 877 45 909 45 c 0
 925 45 935 31 935 18 c 1
 934 7 931 -2 916 -8 c 0
 914 -9 912 -10 911 -10 c 2
 910 -10 l 1
 607 -10 l 2
 591 -10 581 4 581 18 c 1
 582 29 585 37 600 43 c 0
 601 43 603 44 605 45 c 1
 606 45 l 1
 607 45 l 2
 638 45 668 64 668 94 c 2
 668 557 l 1
 437 7 l 2
 433 -3 423 -10 412 -10 c 0
 401 -10 391 -3 387 7 c 2
 156 558 l 1
 156 94 l 2
 156 62 191 45 223 45 c 0
 239 45 249 31 249 18 c 1
 248 7 245 -2 230 -8 c 0
 228 -9 226 -10 225 -10 c 2
 224 -10 l 1
 33 -10 l 2
 17 -10 7 4 7 18 c 1
710 45 m 1
 800 45 l 1
 791 59 787 75 787 92 c 2
 787 593 l 2
 787 609 792 626 800 640 c 1
 723 640 l 1
 723 92 l 2
 723 76 718 59 710 45 c 1
EndSplineSet
Validated: 1
EndChar

StartChar: N
Encoding: 78 78 150
Width: 722
VWidth: 1000
Flags: W
HStem: -10 55<15.6534 97.9277 169.344 256.134> 640 55<27.6534 101.012 156 247 479.653 566.656 637.099 711.134>
VStem: 102 62<50.3436 537> 579 55<-19 -18 81 192>
LayerCount: 2
Fore
SplineSet
15 18 m 1
 16 29 19 37 34 43 c 0
 35 43 37 44 39 45 c 1
 40 45 l 1
 41 45 l 2
 97 45 102 56 102 112 c 2
 102 612 l 1
 103 615 103 616 103 616 c 1
 89 631 72 640 53 640 c 0
 37 640 27 654 27 668 c 1
 28 679 31 687 46 693 c 0
 47 693 49 694 51 695 c 1
 52 695 l 1
 262 695 l 1
 265 694 270 695 277 689 c 0
 279 688 280 686 281 685 c 1
 282 685 l 1
 572 293 l 1
 572 573 l 2
 572 631 563 640 505 640 c 0
 489 640 479 654 479 668 c 1
 480 679 483 687 498 693 c 0
 499 693 501 694 503 695 c 1
 504 695 l 1
 686 695 l 2
 702 695 712 681 712 668 c 1
 711 657 708 648 693 642 c 0
 691 641 689 640 688 640 c 2
 687 640 l 1
 686 640 l 2
 634 640 634 625 634 573 c 2
 634 -3 l 2
 634 -19 620 -29 607 -29 c 0
 603 -29 597 -29 589 -22 c 0
 588 -21 588 -21 586 -19 c 1
 585 -19 l 1
 585 -18 l 1
 164 537 l 1
 164 112 l 2
 164 54 173 45 231 45 c 0
 247 45 257 31 257 18 c 1
 256 7 253 -2 238 -8 c 0
 236 -9 234 -10 233 -10 c 2
 232 -10 l 1
 41 -10 l 2
 25 -10 15 4 15 18 c 1
579 81 m 1
 579 192 l 1
 247 640 l 1
 156 640 l 1
 159 636 l 1
 579 81 l 1
EndSplineSet
Validated: 1
EndChar

StartChar: O
Encoding: 79 79 151
Width: 777
VWidth: 1000
Flags: W
HStem: -29 55<316.491 461.509> 659 55<316.491 461.509>
VStem: 23 55<216.743 468.624> 164 55<161.959 523.889> 559 55<160.706 523.995> 700 55<216.743 468.624>
LayerCount: 2
Fore
SplineSet
23 343 m 0
 23 563 168 714 389 714 c 0
 610 714 755 563 755 343 c 0
 755 122 610 -29 389 -29 c 0
 168 -29 23 122 23 343 c 0
389 26 m 0
 525 26 559 187 559 342 c 0
 559 497 525 659 389 659 c 0
 253 659 219 498 219 344 c 2
 219 343 l 2
 219 188 253 26 389 26 c 0
221 69 m 1
 172 149 164 260 164 343 c 0
 164 425 172 536 221 616 c 1
 123 560 78 457 78 343 c 0
 78 228 123 125 221 69 c 1
557 69 m 1
 655 125 700 228 700 343 c 0
 700 457 655 560 557 616 c 1
 606 536 614 425 614 343 c 0
 614 260 606 149 557 69 c 1
EndSplineSet
Validated: 1
EndChar

StartChar: P
Encoding: 80 80 152
Width: 611
VWidth: 1000
Flags: W
HStem: -10 55<6.65338 87.9263 140 222 273.669 360.134> 298 55<272 381.896> 640 55<6.65338 87.8426 140 223 273.352 385.82>
VStem: 89 55<46.5 638.5> 217 55<47.2436 298 353 635.518> 417 55<386.666 612.311> 554 55<426.938 569.267>
LayerCount: 2
Fore
SplineSet
6 18 m 1
 7 29 10 37 25 43 c 0
 26 43 28 44 30 45 c 1
 31 45 l 1
 31 45 34 45 35 45 c 0
 86 45 89 45 89 94 c 2
 89 593 l 2
 89 640 84 640 32 640 c 0
 16 640 6 654 6 668 c 1
 7 679 10 687 25 693 c 0
 26 693 28 694 30 695 c 1
 31 695 l 1
 338 695 l 2
 464 695 609 653 609 496 c 0
 609 348 455 297 336 297 c 0
 324 297 312 297 299 298 c 1
 272 298 l 1
 272 92 l 2
 272 45 281 45 335 45 c 0
 351 45 361 31 361 18 c 1
 360 7 357 -2 342 -8 c 0
 340 -9 338 -10 337 -10 c 2
 336 -10 l 1
 32 -10 l 2
 16 -10 6 4 6 18 c 1
140 45 m 1
 222 45 l 1
 218 61 217 76 217 92 c 2
 217 612 l 2
 217 622 219 631 223 640 c 1
 140 640 l 1
 144 624 144 608 144 593 c 2
 144 92 l 2
 144 77 144 61 140 45 c 1
272 353 m 1
 317 353 l 2
 408 353 417 420 417 496 c 0
 417 585 411 640 318 640 c 0
 296 640 272 629 272 610 c 2
 272 353 l 1
449 369 m 1
 508 390 554 430 554 496 c 0
 554 566 513 606 452 625 c 1
 472 581 472 528 472 496 c 0
 472 459 470 410 449 369 c 1
EndSplineSet
Validated: 1
EndChar

StartChar: Q
Encoding: 81 81 153
Width: 777
VWidth: 1000
Flags: W
HStem: -189 55<445.299 537> -29 55<342.699 440.894> 659 55<316.491 461.509>
VStem: 23 55<216.12 468.624> 164 55<161.959 523.889> 559 55<160.706 523.995> 700 55<214.093 468.624>
LayerCount: 2
Fore
SplineSet
537 -134 m 1
 493 -110 458 -72 437 -27 c 1
 421 -29 405 -29 389 -29 c 0
 373 -29 358 -28 342 -26 c 1
 385 -91 458 -131 537 -134 c 1
23 343 m 0
 23 563 168 714 389 714 c 0
 610 714 755 563 755 343 c 0
 755 169 665 27 493 -16 c 1
 524 -72 585 -107 650 -107 c 0
 670 -107 702 -98 715 -98 c 0
 730 -98 742 -111 742 -126 c 0
 742 -131 741 -136 733 -144 c 0
 699 -177 560 -189 545 -189 c 0
 428 -189 320 -118 272 -12 c 1
 107 36 23 175 23 343 c 0
389 26 m 0
 525 26 559 187 559 342 c 0
 559 497 525 659 389 659 c 0
 253 659 219 498 219 344 c 2
 219 343 l 2
 219 188 253 26 389 26 c 0
221 69 m 1
 172 149 164 260 164 343 c 0
 164 425 172 536 221 616 c 1
 123 560 78 457 78 343 c 0
 78 228 123 125 221 69 c 1
557 69 m 1
 655 125 700 228 700 343 c 0
 700 457 655 560 557 616 c 1
 606 536 614 425 614 343 c 0
 614 260 606 149 557 69 c 1
EndSplineSet
Validated: 1
EndChar

StartChar: R
Encoding: 82 82 154
Width: 722
VWidth: 1000
Flags: W
HStem: -10 55<6.65338 93.4705 145 228 279.669 366.134 530 598 654.171 712.134> 304 55<278 299> 640 55<6.65338 93.3312 145 229 279.363 407.877>
VStem: 95 55<46.4971 637.756> 223 55<47.2436 304 359 635.777> 447 55<395.344 601.399> 584 55<425.911 567.056>
LayerCount: 2
Fore
SplineSet
6 18 m 1
 7 29 10 37 25 43 c 0
 26 43 28 44 30 45 c 1
 31 45 l 1
 31 45 34 45 35 45 c 0
 89 45 95 45 95 94 c 2
 95 593 l 2
 95 640 86 640 32 640 c 0
 16 640 6 654 6 668 c 1
 7 679 10 687 25 693 c 0
 26 693 28 694 30 695 c 1
 31 695 l 1
 363 695 l 2
 478 695 639 647 639 499 c 0
 639 387 566 339 469 318 c 1
 507 258 644 47 687 45 c 0
 703 45 713 31 713 18 c 1
 712 7 709 -2 694 -8 c 0
 692 -9 690 -10 689 -10 c 2
 688 -10 l 1
 514 -10 l 1
 511 -9 506 -10 499 -4 c 0
 497 -3 496 -1 495 -0 c 2
 494 1 l 1
 299 304 l 1
 278 304 l 1
 278 92 l 2
 278 45 287 45 341 45 c 0
 357 45 367 31 367 18 c 1
 366 7 363 -2 348 -8 c 0
 346 -9 344 -10 343 -10 c 2
 342 -10 l 1
 32 -10 l 2
 16 -10 6 4 6 18 c 1
145 45 m 1
 228 45 l 1
 224 61 223 76 223 92 c 2
 223 612 l 2
 223 622 225 631 229 640 c 1
 145 640 l 1
 149 624 150 609 150 593 c 2
 150 92 l 2
 150 76 149 61 145 45 c 1
530 45 m 1
 598 45 l 1
 528 119 464 226 410 310 c 1
 395 309 379 307 363 306 c 1
 530 45 l 1
278 359 m 1
 402 359 447 365 447 499 c 0
 447 594 423 640 325 640 c 0
 309 640 278 634 278 610 c 2
 278 359 l 1
482 378 m 1
 548 396 584 431 584 499 c 0
 584 567 532 604 477 623 c 1
 498 584 502 536 502 499 c 0
 502 464 502 417 482 378 c 1
EndSplineSet
Validated: 1
EndChar

StartChar: S
Encoding: 83 83 155
Width: 555
VWidth: 1000
Flags: W
HStem: -22 55<189.05 351.884> 659 55<190.811 332.237>
VStem: 19 55<437.239 590.909> 27 55<55 76 139.949 249.516> 103 55<517.625 607.466> 384 55<85.0551 198.922> 437 55<476.636 556.062 620 637> 486 55<119.417 269.131>
LayerCount: 2
Fore
SplineSet
97 59 m 1xd8
 92 65 87 70 82 76 c 1
 82 55 l 1
 87 57 92 58 97 59 c 1xd8
27 5 m 2
 27 215 l 2
 27 220 27 222 28 227 c 0
 31 240 39 250 55 250 c 0
 72 250 82 236 82 222 c 2
 82 214 l 2
 82 133 178 33 260 33 c 0
 338 33 384 54 384 136 c 0xdd
 384 216 293 261 217 292 c 0
 133 326 19 386 19 500 c 0
 19 648 120 714 259 714 c 0
 288 714 317 709 344 698 c 0
 362 692 380 686 399 686 c 0
 400 686 402 686 403 686 c 0
 431 687 440 703 454 711 c 0
 456 712 460 714 465 714 c 0
 478 714 492 704 492 688 c 2
 492 503 l 2xea
 492 487 478 476 465 476 c 0
 454 476 440 483 438 498 c 0
 427 576 335 659 259 659 c 0
 202 659 158 626 158 565 c 0
 158 500 269 459 349 428 c 0
 446 390 541 307 541 192 c 0xc9
 541 37 386 -22 259 -22 c 0
 231 -22 201 -17 174 -6 c 0
 157 0 139 6 120 6 c 0
 119 6 117 6 116 6 c 0
 83 5 77 -18 59 -22 c 0
 58 -22 57 -22 55 -22 c 0
 41 -22 27 -11 27 5 c 2
237 343 m 0
 320 309 439 251 439 136 c 0
 439 119 437 101 433 84 c 1
 466 111 486 148 486 192 c 0
 486 280 410 345 329 377 c 0
 264 403 103 454 103 565 c 0
 103 580 105 594 109 608 c 1
 84 580 74 540 74 500 c 0xed
 74 421 163 373 237 343 c 0
437 620 m 1xca
 437 637 l 1
 433 636 429 634 425 633 c 1
 429 629 433 625 437 620 c 1xca
EndSplineSet
Validated: 1
EndChar

StartChar: T
Encoding: 84 84 156
Width: 666
VWidth: 1000
Flags: W
HStem: -10 55<145.653 239.446 293 375 427.313 521.134> 640 55<78 97 162.989 242 297 370 425 504.729 570 590>
VStem: 23 55<495 562.476 624 640> 242 55<48.1185 639> 370 55<47.9888 639> 590 55<470.636 562.476 623 640>
LayerCount: 2
Fore
SplineSet
169 45 m 1
 170 45 l 1
 171 45 l 2
 229 45 242 45 242 94 c 2
 242 639 l 1
 165 635 78 579 78 497 c 2
 78 495 l 1
 73 481 l 1
 71 480 l 1
 71 480 69 478 68 477 c 0
 62 472 57 470 50 470 c 0
 36 470 23 481 23 497 c 2
 23 669 l 1
 24 680 27 688 42 693 c 0
 44 694 46 695 47 695 c 2
 48 695 l 1
 619 695 l 2
 635 695 645 679 645 669 c 2
 645 497 l 2
 645 480 631 470 617 470 c 0
 603 470 590 481 590 497 c 0
 590 579 503 635 425 639 c 1
 425 92 l 2
 425 45 439 45 496 45 c 0
 512 45 522 31 522 18 c 1
 521 7 518 -2 503 -8 c 0
 501 -9 499 -10 498 -10 c 2
 497 -10 l 1
 171 -10 l 2
 155 -10 145 4 145 18 c 1
 146 29 149 37 164 43 c 0
 165 43 167 44 169 45 c 1
293 45 m 1
 375 45 l 1
 371 61 370 76 370 92 c 2
 370 640 l 1
 297 640 l 1
 297 92 l 2
 297 88 297 83 297 79 c 0
 297 68 297 56 293 45 c 1
570 640 m 1
 577 635 584 629 590 623 c 1
 590 640 l 1
 570 640 l 1
78 624 m 1
 84 630 90 635 97 640 c 1
 78 640 l 1
 78 624 l 1
EndSplineSet
Validated: 1
EndChar

StartChar: U
Encoding: 85 85 157
Width: 722
VWidth: 1000
Flags: W
HStem: -29 62<274.636 482.35> 640 55<6.65338 87.8426 140 217 269.998 360.134 480.653 545.148 596 602 652.852 717.134>
VStem: 89 55<124.408 638.5> 213 55<88.426 637.726> 568 62<130.65 615.924>
LayerCount: 2
Fore
SplineSet
89 593 m 2
 89 640 84 640 32 640 c 0
 16 640 6 654 6 668 c 1
 7 679 10 687 25 693 c 0
 26 693 28 694 30 695 c 1
 31 695 l 1
 335 695 l 2
 351 695 361 681 361 668 c 1
 360 657 357 648 342 642 c 0
 340 641 338 640 337 640 c 2
 336 640 l 1
 335 640 l 2
 277 640 268 640 268 591 c 2
 268 225 l 2
 268 133 278 33 389 33 c 0
 532 33 568 143 568 253 c 2
 568 517 l 2
 568 566 556 640 506 640 c 0
 490 640 480 654 480 668 c 1
 481 679 484 687 499 693 c 0
 500 693 502 694 504 695 c 1
 505 695 l 1
 692 695 l 2
 708 695 718 681 718 668 c 1
 717 657 714 648 699 642 c 0
 697 641 695 640 694 640 c 2
 693 640 l 1
 692 640 l 2
 642 640 630 566 630 517 c 2
 630 251 l 2
 630 78 536 -29 361 -29 c 0
 199 -29 89 54 89 223 c 2
 89 593 l 2
253 43 m 1
 217 96 213 167 213 223 c 2
 213 593 l 2
 213 597 213 602 213 606 c 0
 213 617 213 629 217 640 c 1
 140 640 l 1
 144 624 144 608 144 593 c 2
 144 225 l 2
 144 139 176 73 253 43 c 1
599 635 m 1
 600 637 601 638 602 640 c 1
 596 640 l 1
 597 638 598 637 599 635 c 1
EndSplineSet
Validated: 1
EndChar

StartChar: V
Encoding: 86 86 158
Width: 722
VWidth: 1000
Flags: W
HStem: 640 55<-9.37897 52.6916 104 208 259.706 338.418 483.582 537.605 589 607 659.328 729.418>
VStem: 204 55<534.537 632.347> 540 190<545 675.5>
LayerCount: 2
Fore
SplineSet
594 613 m 1
 598 622 l 2
 601 628 604 634 607 640 c 1
 589 640 l 1
 592 631 593 622 594 613 c 1
73 581 m 2
 57 614 43 640 16 640 c 2
 15 640 l 1
 14 640 l 1
 10 641 10 642 7 643 c 0
 -1 647 -10 655 -10 668 c 0
 -10 682 3 695 16 695 c 2
 314 695 l 1
 315 695 l 1
 315 695 319 693 320 693 c 0
 327 690 339 683 339 668 c 0
 339 654 329 640 313 640 c 0
 293 640 274 631 259 618 c 1
 259 617 l 1
 262 554 376 306 420 210 c 1
 468 322 540 497 540 593 c 0
 540 630 530 640 509 640 c 2
 508 640 l 1
 507 640 l 1
 507 640 503 642 502 642 c 0
 494 645 483 652 483 668 c 0
 483 681 493 695 509 695 c 2
 705 695 l 1
 706 695 l 1
 706 695 710 693 711 693 c 0
 718 690 730 683 730 668 c 0
 730 654 720 640 704 640 c 0
 679 640 659 624 648 600 c 2
 393 -13 l 2
 391 -20 383 -29 368 -29 c 0
 357 -29 348 -22 343 -13 c 2
 73 581 l 2
367 67 m 1
 394 133 l 1
 350 221 204 550 204 620 c 0
 204 625 204 632 208 640 c 1
 104 640 l 1
 112 628 117 615 123 603 c 2
 367 67 l 1
EndSplineSet
Validated: 1
EndChar

StartChar: W
Encoding: 87 87 159
Width: 1000
VWidth: 1000
Flags: W
HStem: 640 55<-1.41786 49.2711 100 187 241.423 296.418 373.582 432.345 483 579 632.001 700.418 774.582 832.304 883 900 950.012 1001.42>
VStem: 186 55<526.906 639.05> 577 55<522.832 635.512> 837 165<534 675.5>
LayerCount: 2
Fore
SplineSet
890 614 m 1
 892 619 l 2
 894 626 897 633 900 640 c 1
 883 640 l 1
 886 632 889 623 890 614 c 1
63 585 m 2
 58 598 46 640 24 640 c 2
 23 640 l 1
 22 640 l 1
 22 640 18 642 17 642 c 0
 9 645 -2 652 -2 668 c 0
 -2 681 8 695 24 695 c 2
 272 695 l 1
 273 695 l 1
 273 695 277 693 278 693 c 0
 285 690 297 683 297 668 c 0
 297 654 287 640 271 640 c 0
 260 640 250 634 241 625 c 1
 242 558 333 308 365 219 c 1
 483 492 l 1
 447 588 l 1
 432 625 418 640 399 640 c 2
 398 640 l 1
 397 640 l 1
 397 640 393 642 392 642 c 0
 384 645 373 652 373 668 c 0
 373 681 383 695 399 695 c 2
 676 695 l 1
 677 695 l 1
 677 695 681 693 682 693 c 0
 689 690 701 683 701 668 c 0
 701 654 691 640 675 640 c 0
 661 640 641 631 634 624 c 0
 633 623 632 624 632 622 c 0
 632 559 718 334 752 245 c 1
 789 349 837 488 837 580 c 0
 837 626 825 640 800 640 c 2
 799 640 l 1
 798 640 l 1
 798 640 794 642 793 642 c 0
 785 645 774 652 774 668 c 0
 774 681 784 695 800 695 c 2
 977 695 l 1
 978 695 l 1
 978 695 982 693 983 693 c 0
 990 690 1002 683 1002 668 c 0
 1002 654 992 640 976 640 c 0
 963 640 954 630 944 604 c 2
 726 -10 l 2
 724 -14 723 -15 721 -18 c 0
 716 -25 708 -29 700 -29 c 0
 696 -29 687 -28 679 -18 c 0
 677 -15 675 -13 674 -10 c 2
 512 416 l 1
 325 -13 l 2
 320 -22 311 -29 300 -29 c 0
 296 -29 287 -28 279 -18 c 0
 277 -15 275 -13 274 -10 c 2
 63 585 l 2
303 73 m 1
 333 143 l 1
 301 236 186 539 186 626 c 0
 186 629 186 635 187 640 c 1
 100 640 l 1
 107 627 111 613 115 600 c 2
 303 73 l 1
699 78 m 1
 727 157 l 1
 727 157 727 157 727 158 c 0
 701 226 577 532 577 622 c 0
 577 629 577 635 579 640 c 1
 483 640 l 1
 489 629 494 619 498 608 c 2
 699 78 l 1
EndSplineSet
Validated: 1
EndChar

StartChar: X
Encoding: 88 88 160
Width: 722
VWidth: 1000
Flags: W
HStem: -10 55<8.77896 78.3231 137 161 211.28 266.134 361.779 447.245 506 606 671.145 714.134> 640 55<12.6534 65.6207 130 233.838 285.612 355.134 416.653 467.671 519 540 602.363 702.416>
LayerCount: 2
Fore
SplineSet
227 640 m 1
 130 640 l 1
 210 535 501 111 506 48 c 0
 506 46 l 1
 506 45 l 1
 606 45 l 1
 527 150 235 577 227 640 c 1
8 18 m 1
 9 26 11 35 25 42 c 0
 26 43 29 44 32 45 c 1
 33 45 l 1
 34 45 l 2
 69 45 124 109 174 166 c 2
 296 303 l 1
 294 307 291 310 289 314 c 0
 206 438 101 594 66 630 c 0
 58 638 44 640 38 640 c 0
 22 640 12 654 12 668 c 1
 13 679 16 687 31 693 c 0
 32 693 34 694 36 695 c 1
 37 695 l 1
 330 695 l 2
 346 695 356 681 356 668 c 1
 355 657 352 648 337 642 c 0
 335 641 333 640 332 640 c 2
 331 640 l 1
 330 640 l 2
 314 640 298 639 285 633 c 1
 300 593 352 514 385 466 c 1
 452 554 l 2
 463 569 470 585 470 602 c 0
 470 622 460 640 442 640 c 0
 426 640 416 654 416 668 c 1
 417 679 420 687 435 693 c 0
 436 693 438 694 440 695 c 1
 441 695 l 1
 677 695 l 2
 690 695 703 682 703 669 c 0
 703 668 l 0
 703 660 700 650 686 643 c 0
 684 642 681 641 679 640 c 1
 678 640 l 1
 677 640 l 2
 604 640 550 580 505 521 c 2
 421 412 l 1
 445 376 l 2
 554 213 644 80 671 51 c 0
 674 48 683 45 689 45 c 0
 705 45 715 31 715 18 c 1
 714 7 711 -2 696 -8 c 0
 694 -9 692 -10 691 -10 c 2
 690 -10 l 1
 387 -10 l 2
 372 -10 361 6 361 18 c 1
 362 26 364 35 378 42 c 0
 379 43 382 44 385 45 c 1
 386 45 l 1
 387 45 l 2
 409 45 432 46 448 54 c 1
 431 101 360 207 331 250 c 1
 228 131 l 2
 216 117 208 102 208 85 c 0
 208 64 221 45 241 45 c 0
 257 45 267 31 267 18 c 1
 266 7 263 -2 248 -8 c 0
 246 -9 244 -10 243 -10 c 2
 242 -10 l 1
 34 -10 l 2
 19 -10 8 6 8 18 c 1
137 45 m 1
 161 45 l 1
 159 51 156 57 155 63 c 1
 137 45 l 1
523 625 m 1
 528 630 534 635 540 640 c 1
 519 640 l 1
 521 635 522 630 523 625 c 1
EndSplineSet
Validated: 1
EndChar

StartChar: Y
Encoding: 89 89 161
Width: 722
VWidth: 1000
Flags: W
HStem: -10 55<177.653 267.088 318 405 456.052 545.134> 640 55<9.65338 69.0854 120 209 265.188 316.134 473.653 542.963 594 604 658.357 712.134>
VStem: 270 55<48.0999 260> 398 55<48.1055 287>
LayerCount: 2
Fore
SplineSet
201 45 m 1
 202 45 l 1
 202 45 205 45 206 45 c 0
 267 45 270 49 270 112 c 2
 270 260 l 1
 92 578 l 2
 83 593 73 613 63 627 c 0
 54 640 52 640 35 640 c 0
 19 640 9 654 9 668 c 1
 10 679 13 687 28 693 c 0
 29 693 31 694 33 695 c 1
 34 695 l 1
 291 695 l 2
 307 695 317 681 317 668 c 1
 316 657 313 648 298 642 c 0
 296 641 294 640 293 640 c 2
 292 640 l 1
 292 640 289 640 288 640 c 0
 274 640 269 639 265 638 c 1
 268 629 275 619 282 606 c 2
 422 355 l 1
 545 551 l 2
 551 560 554 573 554 584 c 0
 554 615 529 640 499 640 c 0
 483 640 473 654 473 668 c 1
 474 679 477 687 492 693 c 0
 493 693 495 694 497 695 c 1
 498 695 l 1
 687 695 l 2
 703 695 713 681 713 668 c 1
 712 657 709 648 694 642 c 0
 692 641 690 640 689 640 c 2
 688 640 l 1
 687 640 l 1
 686 640 l 1
 661 635 618 564 592 523 c 2
 453 300 l 1
 453 110 l 2
 453 47 458 45 520 45 c 0
 536 45 546 31 546 18 c 1
 545 7 542 -2 527 -8 c 0
 525 -9 523 -10 522 -10 c 2
 521 -10 l 1
 203 -10 l 2
 187 -10 177 4 177 18 c 1
 178 29 181 37 196 43 c 0
 197 43 199 44 201 45 c 1
318 45 m 1
 405 45 l 1
 398 67 398 90 398 110 c 2
 398 289 l 1
 398 289 398 289 397 290 c 1
 397 287 l 1
 234 578 l 2
 228 589 210 615 209 640 c 1
 120 640 l 1
 127 628 134 616 140 606 c 2
 322 281 l 2
 323 280 323 278 324 276 c 0
 325 273 324 274 325 268 c 1
 325 110 l 2
 325 90 325 67 318 45 c 1
598 632 m 1
 604 640 l 1
 594 640 l 1
 595 637 597 635 598 632 c 1
EndSplineSet
Validated: 1
EndChar

StartChar: Z
Encoding: 90 90 162
Width: 666
VWidth: 1000
Flags: W
HStem: -10 55<95 173 238 467.22 539 566> 640 55<122 134 206.918 395 460 538>
VStem: 52 55<479.631 556.893> 591 55<170.752 252.319>
LayerCount: 2
Fore
SplineSet
18 18 m 0
 18 23 20 28 23 32 c 2
 395 640 l 1
 335 640 l 2
 239 640 121 607 107 501 c 1
 107 500 l 1
 103 486 88 479 80 479 c 0
 64 479 52 493 52 508 c 2
 52 509 l 1
 70 670 l 1
 72 678 75 688 89 693 c 0
 90 693 92 694 94 695 c 1
 95 695 l 1
 589 695 l 2
 605 695 615 681 615 668 c 1
 615 668 614 663 614 662 c 2
 614 662 614 660 614 659 c 2
 614 659 613 658 613 657 c 2
 613 657 612 655 612 654 c 2
 238 45 l 1
 365 45 l 2
 475 45 574 116 591 228 c 0
 593 241 604 253 619 253 c 0
 634 253 646 239 646 225 c 2
 646 224 l 1
 618 16 l 2
 617 2 608 -7 594 -10 c 1
 593 -10 l 1
 44 -10 l 2
 28 -10 18 4 18 18 c 0
95 45 m 1
 173 45 l 1
 538 640 l 1
 460 640 l 1
 95 45 l 1
539 45 m 1
 566 45 l 1
 570 71 l 1
 560 61 550 53 539 45 c 1
121 630 m 1
 125 634 130 637 134 640 c 1
 122 640 l 1
 121 630 l 1
EndSplineSet
Validated: 1
EndChar

StartChar: subsetornotdbleql
Encoding: 10955 10955 163
Width: 799
VWidth: 1000
Flags: W
HStem: -278 63<77.47 246 382 715.856> -75 63<77.47 416 552 715.856> 195 63<296.09 720.491> 755 63<296.09 720.491>
VStem: 76 63<406.636 606.828>
LayerCount: 2
Fore
SplineSet
175 -362 m 2
 246 -278 l 1
 105 -278 l 1
 104 -278 l 1
 94 -276 88 -272 82 -265 c 0
 76 -258 76 -251 76 -247 c 0
 76 -228 91 -217 104 -215 c 1
 105 -215 l 1
 298 -215 l 1
 416 -75 l 1
 105 -75 l 1
 104 -75 l 1
 94 -73 88 -69 82 -62 c 0
 76 -55 76 -48 76 -44 c 0
 76 -25 91 -14 104 -12 c 1
 105 -12 l 1
 470 -12 l 1
 576 114 l 1
 580 117 579 117 582 119 c 2
 582 119 583 119 584 120 c 0
 589 122 594 123 599 123 c 0
 604 123 604 123 607 122 c 0
 617 119 626 110 629 100 c 0
 630 97 630 95 630 92 c 0
 630 88 630 88 629 85 c 0
 628 81 627 76 623 72 c 2
 552 -12 l 1
 694 -12 l 1
 695 -12 l 1
 709 -15 722 -27 722 -44 c 1
 722 -44 722 -53 716 -62 c 0
 713 -66 706 -73 695 -75 c 1
 694 -75 l 1
 500 -75 l 1
 382 -215 l 1
 694 -215 l 1
 695 -215 l 1
 709 -218 722 -230 722 -247 c 1
 722 -247 722 -256 716 -265 c 0
 713 -269 706 -276 695 -278 c 1
 694 -278 l 1
 328 -278 l 1
 223 -402 l 2
 217 -410 208 -413 200 -413 c 0
 182 -413 168 -399 168 -381 c 0
 168 -377 168 -377 168 -376 c 0
 169 -367 174 -363 175 -362 c 2
397 818 m 2
 694 818 l 1
 695 818 l 1
 704 816 710 812 716 805 c 0
 718 802 722 796 722 787 c 0
 722 770 709 758 695 755 c 1
 694 755 l 1
 401 755 l 2
 261 755 139 649 139 507 c 0
 139 364 261 258 401 258 c 2
 694 258 l 1
 695 258 l 1
 704 256 710 252 716 245 c 0
 718 242 722 236 722 227 c 0
 722 210 709 198 695 195 c 1
 694 195 l 1
 397 195 l 2
 225 195 76 331 76 507 c 0
 76 682 225 818 397 818 c 2
EndSplineSet
Validated: 1
EndChar

StartChar: supersetornotdbleql
Encoding: 10956 10956 164
Width: 799
VWidth: 1000
Flags: W
HStem: -278 63<77.47 245 382 715.856> -75 63<77.47 416 552 715.856> 195 63<82.2366 501.91> 755 63<82.2366 501.91>
VStem: 659 63<406.636 606.828>
LayerCount: 2
Fore
SplineSet
176 -360 m 2
 245 -278 l 1
 105 -278 l 1
 104 -278 l 1
 94 -276 88 -272 82 -265 c 0
 76 -258 76 -251 76 -247 c 0
 76 -228 91 -217 104 -215 c 1
 105 -215 l 1
 298 -215 l 1
 416 -75 l 1
 105 -75 l 1
 104 -75 l 1
 94 -73 88 -69 82 -62 c 0
 76 -55 76 -48 76 -44 c 0
 76 -25 91 -14 104 -12 c 1
 105 -12 l 1
 470 -12 l 1
 576 113 l 2
 579 116 583 121 594 123 c 0
 595 123 597 123 599 123 c 0
 604 123 604 123 607 122 c 0
 617 119 626 110 629 100 c 0
 630 97 630 95 630 92 c 0
 630 88 630 87 629 84 c 0
 627 78 624 73 621 70 c 2
 552 -12 l 1
 694 -12 l 1
 695 -12 l 1
 709 -15 722 -27 722 -44 c 1
 722 -44 722 -53 716 -62 c 0
 713 -66 706 -73 695 -75 c 1
 694 -75 l 1
 500 -75 l 1
 382 -215 l 1
 694 -215 l 1
 695 -215 l 1
 709 -218 722 -230 722 -247 c 1
 722 -247 722 -256 716 -265 c 0
 713 -269 706 -276 695 -278 c 1
 694 -278 l 1
 328 -278 l 1
 222 -404 l 2
 219 -407 211 -413 200 -413 c 0
 182 -413 168 -399 168 -381 c 0
 168 -376 168 -376 169 -373 c 0
 169 -372 l 1
 169 -372 170 -372 170 -371 c 0
 171 -367 173 -363 176 -360 c 2
76 227 m 0
 76 229 75 236 82 245 c 0
 87 252 95 256 104 258 c 1
 105 258 l 1
 397 258 l 2
 537 258 659 364 659 507 c 0
 659 649 537 755 397 755 c 2
 105 755 l 1
 104 755 l 1
 91 757 76 768 76 787 c 1
 76 787 75 797 82 805 c 0
 87 812 95 816 104 818 c 1
 105 818 l 1
 401 818 l 2
 573 818 722 682 722 507 c 0
 722 331 573 195 401 195 c 2
 105 195 l 1
 104 195 l 1
 91 197 76 208 76 227 c 0
EndSplineSet
Validated: 1
EndChar

StartChar: precedenotdbleql
Encoding: 10933 10933 165
Width: 799
VWidth: 1000
Flags: W
HStem: -202 63<77.47 232 377 715.856> 1 63<82.2366 421 566 720.491> 441 63<82.2366 337.686>
VStem: 659 63<173.327 258.735 686.972 773.717>
LayerCount: 2
Fore
SplineSet
182 -255 m 2
 232 -202 l 1
 105 -202 l 1
 104 -202 l 1
 94 -200 88 -196 82 -189 c 0
 76 -182 76 -175 76 -171 c 0
 76 -152 91 -141 104 -139 c 1
 105 -139 l 1
 291 -139 l 1
 421 1 l 1
 105 1 l 1
 104 1 l 1
 91 3 76 14 76 33 c 1
 76 33 75 43 82 51 c 0
 87 58 95 62 104 64 c 1
 105 64 l 1
 480 64 l 1
 571 162 l 2
 574 165 582 171 593 171 c 0
 611 171 625 157 625 139 c 0
 625 131 623 125 618 119 c 2
 618 119 617 118 616 117 c 2
 566 64 l 1
 694 64 l 1
 695 64 l 1
 704 62 710 58 716 51 c 0
 718 48 722 42 722 33 c 0
 722 16 709 4 695 1 c 1
 694 1 l 1
 507 1 l 1
 377 -139 l 1
 694 -139 l 1
 695 -139 l 1
 709 -142 722 -154 722 -171 c 1
 722 -171 722 -180 716 -189 c 0
 713 -193 706 -200 695 -202 c 1
 694 -202 l 1
 318 -202 l 1
 227 -300 l 2
 224 -303 216 -309 205 -309 c 0
 187 -309 173 -295 173 -277 c 0
 173 -269 175 -263 180 -257 c 2
 180 -257 181 -256 182 -255 c 2
76 473 m 0
 76 475 75 482 82 491 c 0
 87 498 95 502 104 504 c 1
 105 504 l 1
 106 504 l 2
 300 504 635 523 659 756 c 1
 662 770 674 784 691 784 c 0
 693 784 704 784 713 774 c 0
 719 768 722 760 722 751 c 2
 722 750 l 1
 705 583 570 508 427 473 c 1
 561 440 704 367 722 196 c 1
 722 195 l 1
 721 186 720 180 715 173 c 0
 709 165 701 161 691 161 c 0
 672 161 661 177 659 190 c 0
 635 422 300 441 106 441 c 2
 105 441 l 1
 104 441 l 1
 91 443 76 454 76 473 c 0
EndSplineSet
Validated: 1
EndChar

StartChar: follownotdbleql
Encoding: 10934 10934 166
Width: 799
VWidth: 1000
Flags: W
HStem: -202 63<77.47 232 377 715.856> 1 63<82.2366 421 566 720.491> 441 63<460.596 720.491>
VStem: 76 63<686.972 777.856>
LayerCount: 2
Fore
SplineSet
182 -255 m 2
 232 -202 l 1
 105 -202 l 1
 104 -202 l 1
 94 -200 88 -196 82 -189 c 0
 76 -182 76 -175 76 -171 c 0
 76 -152 91 -141 104 -139 c 1
 105 -139 l 1
 291 -139 l 1
 421 1 l 1
 105 1 l 1
 104 1 l 1
 91 3 76 14 76 33 c 1
 76 33 75 43 82 51 c 0
 87 58 95 62 104 64 c 1
 105 64 l 1
 480 64 l 1
 571 161 l 2
 576 165 579 168 585 170 c 0
 587 171 590 171 593 171 c 0
 611 171 625 157 625 139 c 0
 625 131 623 125 618 119 c 2
 618 119 617 118 616 117 c 2
 566 64 l 1
 694 64 l 1
 695 64 l 1
 704 62 710 58 716 51 c 0
 718 48 722 42 722 33 c 0
 722 16 709 4 695 1 c 1
 694 1 l 1
 507 1 l 1
 377 -139 l 1
 694 -139 l 1
 695 -139 l 1
 709 -142 722 -154 722 -171 c 1
 722 -171 722 -180 716 -189 c 0
 713 -193 706 -200 695 -202 c 1
 694 -202 l 1
 318 -202 l 1
 227 -299 l 2
 222 -303 219 -306 213 -308 c 0
 211 -309 208 -309 205 -309 c 0
 187 -309 173 -295 173 -277 c 0
 173 -269 175 -263 180 -257 c 2
 180 -257 181 -256 182 -255 c 2
76 195 m 2
 76 196 l 1
 94 367 237 440 371 473 c 1
 239 505 93 579 76 750 c 1
 76 751 l 2
 76 769 89 784 108 784 c 1
 108 784 117 784 126 778 c 0
 130 775 137 767 139 756 c 0
 163 523 498 504 693 504 c 2
 694 504 l 1
 695 504 l 1
 704 502 710 498 716 491 c 0
 718 488 722 482 722 473 c 0
 722 456 709 444 695 441 c 1
 694 441 l 1
 693 441 l 2
 498 441 163 422 139 190 c 0
 137 180 133 173 126 167 c 0
 119 161 112 161 108 161 c 0
 102 161 100 161 96 163 c 0
 92 165 88 168 85 171 c 0
 83 173 76 180 76 195 c 2
EndSplineSet
Validated: 1
EndChar

StartChar: precedenotapprox
Encoding: 10937 10937 167
Width: 799
VWidth: 1000
Flags: W
HStem: -322 81<483.827 648.541> -179 80<149.459 307.661> -79 81<490.339 648.541> 64 81<149.459 314.354> 482 63<82.2366 334.556>
VStem: 47 50<-318.711 -227.894 -75.7115 15.1062> 245 60<-364.682 -347> 493 60<170 187.682> 659 63<245.327 325.539 703.134 783.717> 701 50<-192.389 -102.335 50.8938 141.711>
LayerCount: 2
Fore
SplineSet
47 -287 m 1xff40
 47 -278 l 2
 47 -176 129 -99 228 -99 c 0
 270 -99 308 -112 343 -131 c 1
 402 -12 l 1
 345 26 292 64 228 64 c 0
 166 64 97 22 97 -43 c 2
 97 -44 l 1
 96 -54 93 -70 83 -76 c 0
 79 -78 75 -79 72 -79 c 0
 71 -79 66 -79 61 -76 c 0
 51 -70 48 -54 47 -44 c 1
 47 -35 l 2
 47 67 129 145 228 145 c 0
 309 145 377 91 434 53 c 1
 493 170 l 2
 495 173 495 176 498 179 c 0
 501 182 506 188 516 189 c 0
 517 189 519 189 522 189 c 0
 538 189 553 176 553 158 c 2
 553 158 553 155 553 154 c 2
 553 154 553 152 553 151 c 2
 553 151 552 150 552 149 c 2
 552 149 552 147 551 146 c 2
 489 22 l 1
 515 10 543 2 570 2 c 0
 632 2 701 44 701 109 c 2
 701 110 l 1
 702 120 705 136 715 142 c 0
 719 144 723 145 726 145 c 0
 727 145 732 145 737 142 c 0
 747 136 750 120 751 110 c 1
 751 101 l 2
 751 -1 669 -79 570 -79 c 0
 528 -79 490 -65 455 -46 c 1
 396 -165 l 1
 454 -203 506 -241 570 -241 c 0
 632 -241 701 -199 701 -135 c 2
 701 -134 l 1
 703 -121 706 -108 716 -102 c 0
 720 -100 723 -99 726 -99 c 0
 732 -100 732 -100 736 -102 c 0
 747 -109 750 -126 751 -134 c 1
 751 -143 l 2
 751 -244 669 -322 570 -322 c 0
 489 -322 421 -268 364 -230 c 1
 305 -347 l 2
 303 -350 303 -353 300 -356 c 0
 297 -359 292 -365 282 -366 c 0
 281 -366 279 -366 276 -366 c 0
 260 -366 245 -353 245 -335 c 0
 245 -333 245 -332 245 -331 c 0
 245 -329 245 -330 245 -328 c 0
 245 -327 245 -328 246 -326 c 2
 246 -326 246 -325 247 -323 c 2
 309 -199 l 1
 283 -187 255 -179 228 -179 c 0
 166 -179 97 -221 97 -286 c 2
 97 -287 l 1
 96 -297 93 -313 83 -319 c 0
 79 -321 75 -322 72 -322 c 0
 71 -322 66 -322 61 -319 c 0
 51 -313 48 -297 47 -287 c 1xff40
76 514 m 0
 76 516 75 523 82 532 c 0
 87 539 95 543 104 545 c 1
 105 545 l 1
 106 545 l 2
 294 545 633 550 659 767 c 1
 662 781 674 794 691 794 c 0
 693 794 704 794 713 784 c 0
 719 778 722 770 722 761 c 2
 722 760 l 1
 704 608 585 543 469 514 c 1
 583 484 704 420 722 268 c 1
 722 267 l 1
 721 258 720 252 715 245 c 0
 709 237 701 233 691 233 c 0
 672 233 661 249 659 262 c 0xff80
 633 478 294 482 106 482 c 2
 105 482 l 1
 104 482 l 1
 91 484 76 495 76 514 c 0
EndSplineSet
Validated: 1
EndChar

StartChar: follownotapprox
Encoding: 10938 10938 168
Width: 799
VWidth: 1000
Flags: W
HStem: -322 81<483.827 648.541> -179 80<149.459 307.661> -79 81<490.339 648.541> 64 81<149.459 314.354> 482 63<463.726 720.491>
VStem: 47 50<-318.711 -227.894 -75.7115 15.1062> 76 63<703.134 787.856> 245 60<-364.682 -347> 493 60<170 187.682> 701 50<-192.389 -102.335 50.8938 141.711>
LayerCount: 2
Fore
SplineSet
47 -287 m 1xfdc0
 47 -278 l 2
 47 -176 129 -99 228 -99 c 0
 270 -99 308 -112 343 -131 c 1
 402 -12 l 1
 345 26 292 64 228 64 c 0
 166 64 97 22 97 -43 c 2
 97 -44 l 1
 96 -54 93 -70 83 -76 c 0
 79 -78 75 -79 72 -79 c 0
 71 -79 66 -79 61 -76 c 0
 51 -70 48 -54 47 -44 c 1
 47 -35 l 2
 47 67 129 145 228 145 c 0
 309 145 377 91 434 53 c 1
 493 170 l 2
 495 173 495 176 498 179 c 0
 501 182 506 188 516 189 c 0
 517 189 519 189 522 189 c 0
 538 189 553 176 553 158 c 2
 553 158 553 155 553 154 c 2
 553 154 553 152 553 151 c 2
 553 151 552 150 552 149 c 2
 552 149 552 147 551 146 c 2
 489 22 l 1
 515 10 543 2 570 2 c 0
 632 2 701 44 701 109 c 2
 701 110 l 1
 702 120 705 136 715 142 c 0
 719 144 723 145 726 145 c 0
 727 145 732 145 737 142 c 0
 747 136 750 120 751 110 c 1
 751 101 l 2
 751 -1 669 -79 570 -79 c 0
 528 -79 490 -65 455 -46 c 1
 396 -165 l 1
 454 -203 506 -241 570 -241 c 0
 632 -241 701 -199 701 -135 c 2
 701 -134 l 1
 703 -121 706 -108 716 -102 c 0
 720 -100 723 -99 726 -99 c 0
 732 -100 732 -100 736 -102 c 0
 747 -109 750 -126 751 -134 c 1
 751 -143 l 2
 751 -244 669 -322 570 -322 c 0
 489 -322 421 -268 364 -230 c 1
 305 -347 l 2
 303 -350 303 -353 300 -356 c 0
 297 -359 292 -365 282 -366 c 0
 281 -366 279 -366 276 -366 c 0
 260 -366 245 -353 245 -335 c 0
 245 -333 245 -332 245 -331 c 0
 245 -329 245 -330 245 -328 c 0
 245 -327 245 -328 246 -326 c 2
 246 -326 246 -325 247 -323 c 2
 309 -199 l 1
 283 -187 255 -179 228 -179 c 0
 166 -179 97 -221 97 -286 c 2
 97 -287 l 1
 96 -297 93 -313 83 -319 c 0
 79 -321 75 -322 72 -322 c 0
 71 -322 66 -322 61 -319 c 0
 51 -313 48 -297 47 -287 c 1xfdc0
76 267 m 2xfbc0
 76 268 l 1
 94 420 214 484 329 514 c 1
 213 543 94 608 76 760 c 1
 76 761 l 2
 76 779 89 794 108 794 c 1
 108 794 117 794 126 788 c 0
 130 785 138 778 139 767 c 0
 165 550 504 545 693 545 c 2
 694 545 l 1
 695 545 l 1
 704 543 710 539 716 532 c 0
 718 529 722 523 722 514 c 0
 722 497 709 485 695 482 c 1
 694 482 l 1
 693 482 l 2
 504 482 165 478 139 262 c 0
 137 252 133 245 126 239 c 0
 119 233 112 233 108 233 c 0
 102 233 100 233 96 235 c 0
 92 237 88 240 85 243 c 0
 83 245 76 252 76 267 c 2xfbc0
EndSplineSet
Validated: 1
EndChar

StartChar: lessnotdbleql
Encoding: 8808 8808 169
Width: 799
VWidth: 1000
Flags: W
HStem: -202 63<77.47 232 377 715.856> 1 63<82.2366 421 566 720.491>
LayerCount: 2
Fore
SplineSet
182 -255 m 2
 232 -202 l 1
 105 -202 l 1
 104 -202 l 1
 94 -200 88 -196 82 -189 c 0
 76 -182 76 -175 76 -171 c 0
 76 -152 91 -141 104 -139 c 1
 105 -139 l 1
 291 -139 l 1
 421 1 l 1
 105 1 l 1
 104 1 l 1
 91 3 76 14 76 33 c 1
 76 33 75 43 82 51 c 0
 87 58 95 62 104 64 c 1
 105 64 l 1
 480 64 l 1
 571 162 l 2
 574 165 582 171 593 171 c 0
 611 171 625 157 625 139 c 0
 625 131 623 125 618 119 c 2
 618 119 617 118 616 117 c 2
 566 64 l 1
 694 64 l 1
 695 64 l 1
 704 62 710 58 716 51 c 0
 718 48 722 42 722 33 c 0
 722 16 709 4 695 1 c 1
 694 1 l 1
 507 1 l 1
 377 -139 l 1
 694 -139 l 1
 695 -139 l 1
 709 -142 722 -154 722 -171 c 1
 722 -171 722 -180 716 -189 c 0
 713 -193 706 -200 695 -202 c 1
 694 -202 l 1
 318 -202 l 1
 227 -300 l 2
 224 -303 216 -309 205 -309 c 0
 187 -309 173 -295 173 -277 c 0
 173 -269 175 -263 180 -257 c 2
 180 -257 181 -256 182 -255 c 2
76 473 m 0
 76 476 76 482 80 488 c 0
 84 495 91 499 96 502 c 2
 679 782 l 2
 682 783 682 784 687 784 c 2
 687 784 688 784 689 784 c 0
 690 784 690 784 691 784 c 0
 696 784 696 784 699 783 c 0
 709 780 718 771 721 761 c 0
 722 758 722 756 722 753 c 0
 722 739 713 728 703 724 c 2
 180 473 l 1
 706 220 l 2
 707 219 713 218 717 211 c 0
 721 205 722 198 722 193 c 0
 722 184 719 170 702 163 c 0
 699 162 695 161 691 161 c 2
 691 161 687 161 686 161 c 0
 682 161 679 164 677 165 c 2
 93 445 l 2
 91 446 82 449 78 460 c 0
 76 464 76 469 76 473 c 0
EndSplineSet
Validated: 1
EndChar

StartChar: greaternotdbleql
Encoding: 8809 8809 170
Width: 799
VWidth: 1000
Flags: W
HStem: -202 63<77.47 232 377 715.856> 1 63<82.2366 421 566 720.491> 161 61<77.4106 96>
LayerCount: 2
Fore
SplineSet
182 -255 m 2
 232 -202 l 1
 105 -202 l 1
 104 -202 l 1
 94 -200 88 -196 82 -189 c 0
 76 -182 76 -175 76 -171 c 0
 76 -152 91 -141 104 -139 c 1
 105 -139 l 1
 291 -139 l 1
 421 1 l 1
 105 1 l 1
 104 1 l 1
 91 3 76 14 76 33 c 1
 76 33 75 43 82 51 c 0
 87 58 95 62 104 64 c 1
 105 64 l 1
 480 64 l 1
 571 161 l 2
 576 165 579 168 585 170 c 0
 587 171 590 171 593 171 c 0
 611 171 625 157 625 139 c 0
 625 131 623 125 618 119 c 2
 618 119 617 118 616 117 c 2
 566 64 l 1
 694 64 l 1
 695 64 l 1
 704 62 710 58 716 51 c 0
 718 48 722 42 722 33 c 0
 722 16 709 4 695 1 c 1
 694 1 l 1
 507 1 l 1
 377 -139 l 1
 694 -139 l 1
 695 -139 l 1
 709 -142 722 -154 722 -171 c 1
 722 -171 722 -180 716 -189 c 0
 713 -193 706 -200 695 -202 c 1
 694 -202 l 1
 318 -202 l 1
 227 -299 l 2
 222 -303 219 -306 213 -308 c 0
 211 -309 208 -309 205 -309 c 0
 187 -309 173 -295 173 -277 c 0
 173 -269 175 -263 180 -257 c 2
 180 -257 181 -256 182 -255 c 2
96 222 m 2
 618 473 l 1
 93 725 l 2
 91 726 82 729 78 740 c 0
 76 744 76 749 76 753 c 0
 76 755 76 759 78 764 c 0
 83 776 94 784 108 784 c 0
 111 784 115 783 119 782 c 1
 120 782 l 1
 706 500 l 2
 707 499 713 498 717 491 c 0
 721 485 722 478 722 473 c 0
 722 459 713 448 703 444 c 2
 121 164 l 2
 116 161 110 161 108 161 c 0
 90 161 76 175 76 193 c 0
 76 196 76 202 80 208 c 0
 84 215 91 219 96 222 c 2
EndSplineSet
Validated: 1
EndChar

StartChar: notprecede
Encoding: 8832 8832 171
Width: 799
VWidth: 1000
Flags: W
HStem: 191 57<433 472.283> 218 63<82.2366 336.48>
VStem: 659 63<-60.53 39.458 457.692 548.717>
LayerCount: 2
Fore
SplineSet
142 -189 m 2xa0
 340 202 l 1
 265 214 184 218 106 218 c 2
 105 218 l 1
 104 218 l 1
 91 220 76 231 76 250 c 1
 76 250 75 260 82 268 c 0
 87 275 95 279 104 281 c 1
 105 281 l 1
 106 281 l 2x60
 201 281 299 286 392 306 c 1
 599 717 l 1
 600 718 l 2
 602 720 611 732 627 732 c 0
 632 732 632 732 635 731 c 0
 645 728 654 719 657 709 c 0
 658 706 658 704 658 701 c 2
 658 701 658 698 658 697 c 2
 658 697 658 695 658 694 c 2
 658 694 657 693 657 692 c 2
 657 692 657 690 656 689 c 2
 474 329 l 1
 596 372 650 446 659 532 c 0
 661 545 672 561 691 561 c 0
 696 561 706 560 715 549 c 0
 720 543 722 535 722 527 c 2
 722 526 l 1
 714 450 677 383 617 335 c 0
 596 318 573 304 549 292 c 0
 528 282 506 273 482 266 c 1
 466 260 451 255 434 250 c 1
 433 248 l 1
 574 212 704 135 722 -28 c 1
 722 -29 l 1
 721 -39 719 -45 713 -52 c 0
 712 -54 704 -62 691 -62 c 0
 672 -62 660 -47 659 -34 c 0
 644 101 526 162 404 191 c 1
 199 -217 l 1
 198 -218 l 2
 196 -220 187 -232 171 -232 c 0
 166 -232 166 -232 163 -231 c 0
 153 -228 144 -219 141 -209 c 0
 140 -206 140 -204 140 -201 c 0
 140 -199 140 -198 140 -197 c 0
 140 -195 140 -196 140 -194 c 0
 140 -193 140 -194 141 -192 c 2
 141 -192 141 -191 142 -189 c 2xa0
EndSplineSet
Validated: 1
EndChar

StartChar: notfollow
Encoding: 8833 8833 172
Width: 799
VWidth: 1000
Flags: W
HStem: 218 63<463.133 720.491>
VStem: 76 63<-54.7187 40.9832 457.239 554.763>
LayerCount: 2
Fore
SplineSet
142 -189 m 2
 323 170 l 1
 202 126 148 53 139 -34 c 1
 137 -43 135 -49 128 -55 c 0
 123 -59 117 -61 113 -62 c 0
 111 -62 110 -62 108 -62 c 0
 89 -62 76 -47 76 -29 c 2
 76 -28 l 1
 84 49 122 116 182 164 c 0
 203 180 225 195 250 207 c 0
 271 217 294 226 317 234 c 0
 333 239 349 243 364 248 c 0
 364 249 365 250 365 251 c 0
 223 286 92 364 76 527 c 1
 77 537 78 544 85 551 c 0
 88 554 92 557 96 559 c 0
 100 560 104 561 108 561 c 0
 110 561 117 562 126 555 c 0
 133 550 138 541 139 532 c 0
 150 434 218 349 394 308 c 1
 599 717 l 1
 600 718 l 2
 602 720 611 732 627 732 c 0
 632 732 632 732 635 731 c 0
 645 728 654 719 657 709 c 0
 658 706 658 704 658 701 c 2
 658 701 658 698 658 697 c 2
 658 697 658 695 658 694 c 2
 658 694 657 693 657 692 c 2
 657 692 657 690 656 689 c 2
 458 297 l 1
 533 285 614 281 693 281 c 2
 694 281 l 1
 695 281 l 1
 704 279 710 275 716 268 c 0
 718 265 722 259 722 250 c 0
 722 233 709 221 695 218 c 1
 694 218 l 1
 693 218 l 2
 596 218 499 213 406 193 c 1
 199 -217 l 1
 198 -218 l 2
 196 -220 187 -232 171 -232 c 0
 166 -232 166 -232 163 -231 c 0
 153 -228 144 -219 141 -209 c 0
 140 -206 140 -204 140 -201 c 0
 140 -199 140 -198 140 -197 c 0
 140 -195 140 -196 140 -194 c 0
 140 -193 140 -194 141 -192 c 2
 141 -192 141 -191 142 -189 c 2
EndSplineSet
Validated: 1
EndChar

StartChar: followsim
Encoding: 8831 8831 173
Width: 818
Flags: W
HStem: -257 82<506.297 653.759> -79 82<163.664 310.703> 425 64<482.616 737.126>
VStem: 48 51<-251.621 -145.273> 78 64<148.33 238.756 675.95 765.672> 718 51<-109.619 -2.37935>
LayerCount: 2
Fore
SplineSet
48 -221 m 1xf4
 48 -212 l 2
 48 -108 118 3 233 3 c 0
 380 3 451 -175 584 -175 c 0
 660 -175 718 -109 718 -34 c 2
 718 -33 l 1
 719 -24 721 -10 730 -2 c 0
 732 0 737 3 743 3 c 0
 749 2 750 2 753 0 c 0
 764 -6 768 -22 769 -33 c 1
 769 -42 l 2
 769 -145 700 -257 584 -257 c 0
 437 -257 366 -79 233 -79 c 0
 158 -79 99 -145 99 -220 c 2
 99 -221 l 1
 98 -230 96 -244 87 -252 c 0
 85 -254 80 -257 74 -257 c 1
 74 -257 69 -257 64 -254 c 0
 54 -247 49 -232 48 -221 c 1xf4
142 168 m 1xec
 139 153 127 138 109 138 c 0
 107 138 96 138 87 148 c 0
 81 155 77 164 78 173 c 0
 95 349 244 424 380 458 c 1
 241 492 95 567 78 742 c 1
 79 752 81 759 87 766 c 0
 96 776 107 776 109 776 c 0
 122 776 138 765 142 747 c 1
 167 507 509 489 708 489 c 2
 709 489 l 1
 710 489 l 1
 719 487 725 484 731 477 c 0
 736 472 739 466 739 458 c 0
 739 440 725 428 710 425 c 1
 709 425 l 1
 708 425 l 2
 510 425 167 407 142 168 c 1xec
EndSplineSet
Validated: 1
EndChar

StartChar: precedenotsim
Encoding: 8936 8936 174
Width: 799
VWidth: 1000
Flags: W
HStem: -251 80<493.587 639.583> -77 80<158.845 304.741> 415 63<82.2366 337.686>
VStem: 47 50<-247.711 -139.256> 659 63<147.327 232.995 660.712 747.717> 701 50<-108.744 -0.335377>
LayerCount: 2
Fore
SplineSet
47 -216 m 1xf4
 47 -207 l 2
 47 -101 119 3 228 3 c 0
 294 3 346 -34 391 -72 c 1
 494 115 l 2
 500 124 511 130 522 130 c 0
 538 130 553 117 553 99 c 0
 553 95 553 95 552 92 c 0
 551 89 551 86 549 83 c 2
 441 -113 l 1
 475 -140 519 -171 570 -171 c 0
 644 -171 701 -106 701 -33 c 2
 701 -32 l 1
 703 -19 706 -6 716 0 c 0
 720 2 723 3 726 3 c 0
 732 2 732 2 736 0 c 0
 747 -7 750 -24 751 -32 c 1
 751 -41 l 2
 751 -146 680 -251 570 -251 c 0
 505 -251 453 -213 406 -175 c 1
 304 -362 l 2
 298 -371 287 -377 276 -377 c 0
 260 -377 245 -364 245 -346 c 0
 245 -342 245 -342 246 -339 c 0
 247 -336 247 -333 249 -330 c 2
 357 -135 l 1
 323 -108 279 -77 228 -77 c 0
 155 -77 97 -142 97 -215 c 2
 97 -216 l 1
 96 -226 93 -242 83 -248 c 0
 79 -250 75 -251 72 -251 c 0
 71 -251 66 -251 61 -248 c 0
 51 -242 48 -226 47 -216 c 1xf4
76 447 m 0
 76 449 75 456 82 465 c 0
 87 472 95 476 104 478 c 1
 105 478 l 1
 106 478 l 2
 301 478 635 496 659 730 c 1
 662 744 674 758 691 758 c 0
 693 758 704 758 713 748 c 0
 719 742 722 734 722 725 c 2
 722 724 l 1
 704 553 562 480 428 447 c 1
 561 414 704 341 722 170 c 1
 722 169 l 1
 721 160 720 154 715 147 c 0
 709 139 701 135 691 135 c 0
 672 135 661 151 659 164 c 0xf8
 635 397 300 415 106 415 c 2
 105 415 l 1
 104 415 l 1
 91 417 76 428 76 447 c 0
EndSplineSet
Validated: 1
EndChar

StartChar: follownotsim
Encoding: 8937 8937 175
Width: 799
VWidth: 1000
Flags: W
HStem: -256 80<494.533 639.748> -73 80<158.875 302.87> 419 63<460.596 720.491>
VStem: 47 50<-252.711 -140.09> 76 63<664.712 755.856> 701 50<-108.91 3.66462>
LayerCount: 2
Fore
SplineSet
47 -221 m 1xf4
 47 -212 l 2
 47 -110 113 7 228 7 c 0
 293 7 343 -29 391 -71 c 1
 494 119 l 2
 500 128 511 134 522 134 c 0
 538 134 553 121 553 103 c 0
 553 99 553 99 552 96 c 0
 551 93 551 90 549 87 c 2
 440 -115 l 1
 476 -145 518 -176 570 -176 c 0
 648 -176 701 -105 701 -29 c 2
 701 -28 l 1
 703 -15 706 -2 716 4 c 0
 720 6 723 7 726 7 c 0
 732 6 732 6 736 4 c 0
 747 -3 750 -20 751 -28 c 1
 751 -37 l 2
 751 -138 687 -256 570 -256 c 0
 505 -256 453 -218 406 -177 c 1
 304 -367 l 1
 298 -376 287 -382 276 -382 c 0
 260 -382 245 -369 245 -351 c 0
 245 -347 245 -347 246 -344 c 0
 247 -341 247 -338 249 -335 c 2
 357 -134 l 1
 322 -104 279 -73 228 -73 c 0
 151 -73 97 -144 97 -220 c 2
 97 -221 l 1
 96 -231 93 -247 83 -253 c 0
 79 -255 75 -256 72 -256 c 0
 71 -256 66 -256 61 -253 c 0
 51 -247 48 -231 47 -221 c 1xf4
76 173 m 2xec
 76 174 l 1
 93 345 237 418 370 451 c 1
 236 484 93 557 76 728 c 1
 76 729 l 2
 76 747 89 762 108 762 c 1
 108 762 117 762 126 756 c 0
 130 753 137 745 139 734 c 0
 163 500 498 482 693 482 c 2
 694 482 l 1
 695 482 l 1
 704 480 710 476 716 469 c 0
 718 466 722 460 722 451 c 0
 722 434 709 422 695 419 c 1
 694 419 l 1
 693 419 l 2
 497 419 163 401 139 168 c 0
 137 158 133 151 126 145 c 0
 119 139 112 139 108 139 c 0
 102 139 100 139 96 141 c 0
 92 143 88 146 85 149 c 0
 83 151 76 158 76 173 c 2xec
EndSplineSet
Validated: 1
EndChar

StartChar: lessnotsim
Encoding: 8934 8934 176
Width: 799
VWidth: 1000
Flags: W
HStem: -251 80<493.587 639.583> -77 80<158.845 304.741>
VStem: 47 50<-247.711 -139.256> 701 50<-108.744 -0.335377>
LayerCount: 2
Fore
SplineSet
47 -216 m 1
 47 -207 l 2
 47 -101 119 3 228 3 c 0
 294 3 346 -34 391 -72 c 1
 494 115 l 2
 500 124 511 130 522 130 c 0
 538 130 553 117 553 99 c 0
 553 95 553 95 552 92 c 0
 551 89 551 86 549 83 c 2
 441 -113 l 1
 475 -140 519 -171 570 -171 c 0
 644 -171 701 -106 701 -33 c 2
 701 -32 l 1
 703 -19 706 -6 716 0 c 0
 720 2 723 3 726 3 c 0
 732 2 732 2 736 0 c 0
 747 -7 750 -24 751 -32 c 1
 751 -41 l 2
 751 -146 680 -251 570 -251 c 0
 505 -251 453 -213 406 -175 c 1
 304 -362 l 2
 298 -371 287 -377 276 -377 c 0
 260 -377 245 -364 245 -346 c 0
 245 -342 245 -342 246 -339 c 0
 247 -336 247 -333 249 -330 c 2
 357 -135 l 1
 323 -108 279 -77 228 -77 c 0
 155 -77 97 -142 97 -215 c 2
 97 -216 l 1
 96 -226 93 -242 83 -248 c 0
 79 -250 75 -251 72 -251 c 0
 71 -251 66 -251 61 -248 c 0
 51 -242 48 -226 47 -216 c 1
76 447 m 0
 76 450 76 456 80 462 c 0
 84 469 91 473 96 476 c 2
 679 756 l 2
 682 757 682 758 687 758 c 2
 687 758 688 758 689 758 c 0
 690 758 690 758 691 758 c 0
 696 758 696 758 699 757 c 0
 709 754 718 745 721 735 c 0
 722 732 722 730 722 727 c 0
 722 713 713 702 703 698 c 2
 180 447 l 1
 706 194 l 2
 707 193 713 192 717 185 c 0
 721 179 722 172 722 167 c 0
 722 158 719 144 702 137 c 0
 699 136 695 135 691 135 c 2
 691 135 687 135 686 135 c 0
 682 135 679 138 677 139 c 2
 93 419 l 2
 91 420 82 423 78 434 c 0
 76 438 76 443 76 447 c 0
EndSplineSet
Validated: 1
EndChar

StartChar: greaternotsim
Encoding: 8935 8935 177
Width: 799
VWidth: 1000
Flags: W
HStem: -256 80<494.533 639.748> -73 80<158.875 302.87> 139 61<77.4106 96>
VStem: 47 50<-252.711 -140.09> 701 50<-108.91 3.66462>
LayerCount: 2
Fore
SplineSet
47 -221 m 1
 47 -212 l 2
 47 -110 113 7 228 7 c 0
 293 7 343 -29 391 -71 c 1
 494 119 l 2
 500 128 511 134 522 134 c 0
 538 134 553 121 553 103 c 0
 553 99 553 99 552 96 c 0
 551 93 551 90 549 87 c 2
 440 -115 l 1
 476 -145 518 -176 570 -176 c 0
 648 -176 701 -105 701 -29 c 2
 701 -28 l 1
 703 -15 706 -2 716 4 c 0
 720 6 723 7 726 7 c 0
 732 6 732 6 736 4 c 0
 747 -3 750 -20 751 -28 c 1
 751 -37 l 2
 751 -138 687 -256 570 -256 c 0
 505 -256 453 -218 406 -177 c 1
 304 -367 l 1
 298 -376 287 -382 276 -382 c 0
 260 -382 245 -369 245 -351 c 0
 245 -347 245 -347 246 -344 c 0
 247 -341 247 -338 249 -335 c 2
 357 -134 l 1
 322 -104 279 -73 228 -73 c 0
 151 -73 97 -144 97 -220 c 2
 97 -221 l 1
 96 -231 93 -247 83 -253 c 0
 79 -255 75 -256 72 -256 c 0
 71 -256 66 -256 61 -253 c 0
 51 -247 48 -231 47 -221 c 1
96 200 m 2
 618 451 l 1
 93 703 l 2
 91 704 82 707 78 718 c 0
 76 722 76 727 76 731 c 0
 76 733 76 737 78 742 c 0
 83 754 94 762 108 762 c 0
 111 762 115 761 119 760 c 1
 120 760 l 1
 706 478 l 2
 707 477 713 476 717 469 c 0
 721 463 722 456 722 451 c 0
 722 437 713 426 703 422 c 2
 121 142 l 2
 116 139 110 139 108 139 c 0
 90 139 76 153 76 171 c 0
 76 174 76 180 80 186 c 0
 84 193 91 197 96 200 c 2
EndSplineSet
Validated: 1
EndChar

StartChar: notlesseql
Encoding: 8816 8816 178
Width: 799
VWidth: 1000
Flags: W
HStem: -164 63<77.47 194 288 720.057> 642 20G<689.5 692>
LayerCount: 2
Fore
SplineSet
142 -290 m 2
 194 -164 l 1
 105 -164 l 1
 104 -164 l 1
 97 -162 93 -161 88 -157 c 0
 80 -151 76 -143 76 -133 c 0
 76 -114 91 -103 104 -101 c 1
 105 -101 l 1
 220 -101 l 1
 345 201 l 1
 93 323 l 2
 89 325 82 328 78 340 c 0
 77 343 76 347 76 350 c 0
 76 353 76 359 80 365 c 0
 84 372 91 376 96 379 c 2
 498 572 l 1
 598 814 l 2
 599 816 600 822 609 828 c 0
 614 831 621 833 627 833 c 0
 632 833 632 833 635 832 c 0
 645 829 654 820 657 810 c 0
 658 807 658 805 658 802 c 2
 658 802 658 799 658 798 c 2
 658 798 658 796 658 795 c 2
 658 795 657 794 657 793 c 2
 657 793 657 791 656 790 c 2
 583 613 l 1
 679 659 l 2
 681 660 682 661 683 661 c 0
 685 662 688 662 691 662 c 0
 693 662 697 662 702 660 c 0
 714 655 722 644 722 630 c 0
 722 625 722 625 721 622 c 0
 720 620 717 608 704 601 c 2
 548 527 l 1
 426 232 l 1
 706 98 l 2
 707 97 712 96 716 89 c 0
 720 83 722 76 722 70 c 0
 722 52 707 39 691 39 c 2
 691 39 688 39 687 39 c 2
 687 39 685 39 684 39 c 0
 683 39 683 40 682 40 c 2
 682 40 681 40 679 41 c 2
 402 174 l 1
 288 -101 l 1
 694 -101 l 1
 696 -101 l 1
 705 -104 711 -108 716 -115 c 0
 719 -119 720 -123 721 -127 c 0
 721 -129 722 -131 722 -133 c 0
 722 -135 722 -146 712 -155 c 0
 708 -159 702 -163 695 -164 c 1
 694 -164 l 1
 262 -164 l 1
 200 -314 l 2
 199 -316 198 -322 189 -328 c 0
 184 -331 177 -333 171 -333 c 0
 166 -333 166 -333 163 -332 c 0
 153 -329 144 -320 141 -310 c 0
 140 -307 140 -305 140 -302 c 0
 140 -300 140 -299 140 -298 c 0
 140 -296 140 -297 140 -295 c 0
 140 -294 140 -295 141 -293 c 2
 141 -293 141 -292 142 -290 c 2
180 350 m 1
 369 260 l 1
 462 486 l 1
 180 350 l 1
EndSplineSet
Validated: 1
EndChar

StartChar: notgreatereql
Encoding: 8817 8817 179
Width: 799
VWidth: 1000
Flags: W
HStem: -164 63<83.282 194 288 720.491> 39 59<77.2633 93> 601 61<77.4106 96>
LayerCount: 2
Fore
SplineSet
142 -290 m 2
 194 -164 l 1
 105 -164 l 1
 104 -164 l 1
 97 -162 93 -161 88 -157 c 0
 80 -151 76 -143 76 -133 c 1
 76 -133 76 -122 83 -113 c 0
 89 -106 96 -103 103 -101 c 1
 105 -101 l 1
 220 -101 l 1
 318 137 l 1
 120 41 l 1
 119 41 l 1
 115 40 111 39 108 39 c 0
 91 39 76 52 76 70 c 0
 76 77 78 81 81 87 c 0
 84 92 87 96 93 98 c 2
 354 223 l 1
 441 435 l 1
 96 601 l 2
 89 605 84 608 80 615 c 0
 78 619 76 624 76 630 c 0
 76 648 90 662 108 662 c 0
 112 662 116 660 119 659 c 1
 120 659 l 1
 466 494 l 1
 598 814 l 2
 599 816 600 822 609 828 c 0
 614 831 621 833 627 833 c 0
 632 833 632 833 635 832 c 0
 645 829 654 820 657 810 c 0
 658 807 658 805 658 802 c 2
 658 802 658 799 658 798 c 2
 658 798 658 796 658 795 c 2
 658 795 657 794 657 793 c 2
 657 793 657 791 656 790 c 2
 522 466 l 1
 704 379 l 1
 712 374 718 367 721 358 c 0
 722 355 722 353 722 350 c 0
 722 343 721 338 717 332 c 0
 714 327 710 325 706 323 c 2
 403 178 l 1
 288 -101 l 1
 694 -101 l 1
 695 -101 l 1
 709 -104 722 -116 722 -133 c 0
 722 -135 722 -146 712 -155 c 0
 708 -159 702 -163 695 -164 c 1
 694 -164 l 1
 262 -164 l 1
 200 -314 l 2
 199 -316 198 -322 189 -328 c 0
 184 -331 177 -333 171 -333 c 0
 166 -333 166 -333 163 -332 c 0
 153 -329 144 -320 141 -310 c 0
 140 -307 140 -305 140 -302 c 0
 140 -300 140 -299 140 -298 c 0
 140 -296 140 -297 140 -295 c 0
 140 -294 140 -295 141 -293 c 2
 141 -293 141 -292 142 -290 c 2
439 264 m 1
 618 350 l 1
 498 407 l 1
 439 264 l 1
EndSplineSet
Validated: 1
EndChar

